<?xml version="1.0" encoding="UTF-8" standalone="no"?>
<svg xmlns="http://www.w3.org/2000/svg" xmlns:xlink="http://www.w3.org/1999/xlink"  version="1.2" baseProfile="tiny" viewBox ="0 0 500.000000 534.000000">
<title>pyqtgraph SVG export</title>
<desc>Generated with Qt and pyqtgraph</desc>
<style>
    image {
        image-rendering: crisp-edges;
        image-rendering: -moz-crisp-edges;
        image-rendering: pixelated;
    }
</style>
<rect width="100%" height="100%" style="fill:rgba(255, 255, 255, 1.000000)" />
<defs>
</defs>
<g fill="none" stroke="black" stroke-width="1" fill-rule="evenodd" stroke-linecap="square" stroke-linejoin="bevel" id="PlotItem_1">
    <g fill="none" stroke="black" stroke-width="1" fill-rule="evenodd" stroke-linecap="square" stroke-linejoin="bevel" id="ViewBox_1">
        <g fill="none" stroke="none" font-family="Segoe UI" font-size="12" font-weight="400" font-style="normal">
            <path vector-effect="non-scaling-stroke" fill-rule="evenodd" d="M26.3281,1.0 L499.00010000000003,1.0 L499.00010000000003,513.0 L26.3281,513.0 L26.3281,1.0 "/>
        </g>
        <clipPath id="ViewBox_1_clip">
            <path vector-effect="none" fill-rule="evenodd" d="M26.3281,1.0 L499.0,1.0 L499.0,513.0 L26.3281,513.0 L26.3281,1.0 " stroke-width="1.0"/>
        </clipPath>
        <g clip-path="url(#ViewBox_1_clip)">
            <g fill="none" stroke="black" stroke-width="1" fill-rule="evenodd" stroke-linecap="square" stroke-linejoin="bevel" id="ChildGroup_1">
                <g id="PlotDataItem_1">
                    <g fill="none" stroke="black" stroke-width="1" fill-rule="evenodd" stroke-linecap="square" stroke-linejoin="bevel" id="PlotCurveItem_1">
                        <g fill="none" stroke="#ff0000" stroke-opacity="1" stroke-width="1" stroke-linecap="square" stroke-linejoin="bevel" font-family="Segoe UI" font-size="12" font-weight="400" font-style="normal">
                            <path vector-effect="non-scaling-stroke" fill-rule="evenodd" d="M46.8833,430.487 L48.66661,448.34431772420004 L50.44992,420.4460580776 L52.23323,428.44921542962004 L54.01654,435.1582401686 L55.79985,432.0502835624 L57.58316,417.40527578120003 L59.36647,416.3204043764 L61.14978,412.9060673816 L62.93308999999999,430.11092048858 L64.7164,376.52153728400003 L66.49971,474.04821658400004 L68.28302,412.888717169 L70.06633,491.56226896400005 L71.84964,452.90549116880004 L73.63295,424.0358296676 L75.41626,389.6466580394 L77.19957,411.30094166000003 L78.98288,442.7028939968 L80.76619,423.5366644712 L82.5495,403.179949898 L84.33281,398.73169987100005 L86.11612,397.80461877740004 L87.89943,441.6183586736 L89.68274,442.14415833680005 L91.46605,390.35490800120004 L93.24936,403.5472870868 L95.03267,402.2693368028 L96.81598,434.81195009000004 L98.59929,368.942897204 L100.3826,413.5851202544 L102.16591,382.49874854 L103.94922,387.52232825600004 L105.73253,371.28916687400005 L107.51584,349.072912808 L109.29915,347.069026268 L111.08246,367.68217110200004 L112.86577,367.46917938800004 L114.64908,360.85257288800005 L116.43239,328.672339586 L118.2157,339.260170292 L119.99901,403.1006766506 L121.78232,381.00108491000003 L123.56563,383.484307832 L125.34894,349.445543282 L127.13225,413.06326955000003 L128.91556,383.4775862 L130.69887,371.59332072200004 L132.48218,386.484256214 L134.26549,359.25156416600004 L136.0488,368.14722401600005 L137.83211,306.0590891300001 L139.61542,329.59110266000005 L141.39873,325.019552696 L143.18204,364.86454698800003 L144.96535,321.083617058 L146.74866,346.69219477400003 L148.53197,319.776679736 L150.31528,302.09584686200003 L152.09859,337.40079884000005 L153.8819,315.086661008 L155.66521,290.55186400400004 L157.44852,329.982217622 L159.23183,296.768113298 L161.01514,302.389078058 L162.79845,299.67227842400007 L164.58176,319.35531743 L166.36507,291.34501658 L168.14838,294.12399131 L169.93169,301.592144564 L171.715,314.35106240600004 L173.49831,299.0366640980001 L175.28161999999998,290.93457692600003 L177.06492999999998,286.630631936 L178.84823999999998,298.67579648000003 L180.63154999999998,293.34428199800004 L182.41485999999998,289.84651274600003 L184.19816999999998,279.522085994 L185.98147999999998,287.903961098 L187.76478999999998,287.9539532360001 L189.54809999999998,281.85239178800003 L191.33140999999998,276.14656642400007 L193.11471999999998,276.361658648 L194.89802999999998,277.70220413000004 L196.68133999999998,277.822353302 L198.46464999999998,270.73229184800005 L200.24795999999998,269.20438087400004 L202.03126999999998,271.344800564 L203.81457999999998,272.35892679200003 L205.59788999999998,267.54329756600004 L207.38119999999998,265.2302159540001 L209.16450999999998,263.02846137200004 L210.94781999999998,265.35834706400004 L212.73112999999998,262.888987508 L214.51443999999998,260.436852134 L216.29774999999998,257.504960276 L218.08105999999998,257.374728656 L219.86436999999998,259.11731175200003 L221.64767999999998,261.76605486200003 L223.43098999999998,264.43454276600005 L225.21429999999998,261.969804332 L226.99760999999998,260.38643989400003 L228.78091999999998,259.46515620800005 L230.56422999999998,259.39541927600004 L232.34753999999998,256.568132816 L234.13084999999998,253.64926412000005 L235.91415999999998,251.76384634400006 L237.69746999999998,255.36874160600001 L239.48077999999998,257.38103018600003 L241.26408999999998,257.99521931000004 L243.04739999999998,257.41631875400003 L244.83070999999998,257.533527212 L246.61401999999998,260.11925502200006 L248.39732999999998,262.28236022 L250.18063999999998,261.37872081800003 L251.96394999999998,262.47140612 L253.74725999999998,261.13338125000007 L255.53056999999998,261.39510479600006 L257.31388,261.50685192800006 L259.09719,261.4980297860001 L260.8805,262.56424866200007 L262.66381,264.28162563800004 L264.44712,266.99338404800005 L266.23043,267.62899837400005 L268.01374,266.468256548 L269.79705,263.014598006 L271.58036,261.394264592 L273.36367,260.002046564 L275.14698,258.72913750400005 L276.93029,257.48059436000005 L278.7136,255.73339014200005 L280.49691,251.95205204 L282.28022,251.76552675200003 L284.06353,249.81667357400005 L285.84684,251.77266848600004 L287.63015,255.12424224200004 L289.41346,256.12240459400005 L291.19677,256.46058670400004 L292.98008,255.94260093800003 L294.76339,256.921438598 L296.5467,257.399514674 L298.33001,260.34190908200003 L300.11332,260.34190908200003 L301.89663,259.77141056600004 L303.67994,261.56104508600004 L305.46325,258.6909082220001 L307.24656,256.63324862600007 L309.02987,256.032502766 L310.81318,255.29060263400004 L312.59649,255.09567530600003 L314.3798,252.81410134400002 L316.16311,250.46321055200002 L317.94642,248.69164041800005 L319.72973,246.41090666000002 L321.51304,247.23010556000003 L323.29635,248.15895108200004 L325.07966,249.14114955800002 L326.86297,251.36811026 L328.64628,252.14529896000002 L330.42959,251.35802781200005 L332.2129,251.95205204 L333.99621,251.83442348000003 L335.77952,252.64017911600004 L337.56283,252.92878919000003 L339.34614,253.90888715600005 L341.12945,254.90368869200003 L342.91276,256.14340969400007 L344.69607,258.20695071800003 L346.47938,259.18746878600007 L348.26269,259.29879581600005 L350.046,257.406656408 L351.82931,258.01328369600003 L353.61262,258.42372335000005 L355.39593,259.66176394400003 L357.17924,260.11001277800005 L358.96255,260.6162356880001 L360.74586,260.50154784200004 L362.52917,261.59339294000006 L364.31248,262.83983557400006 L366.09579,264.766423346 L367.8791,264.76810375400004 L369.66241,265.32305849600004 L371.44572,266.87407508 L373.22903,268.507851758 L375.01234,269.1926180180001 L376.79565,269.2564735220001 L378.57896,270.24581373200004 L380.36227,271.08181671200003 L382.14558,272.693327984 L383.92889,270.91251560600006 L385.7122,273.14787834800006 L387.49551,274.9442345 L389.27882,276.60783842 L391.06213,276.65194913000005 L392.84544,277.30478763800005 L394.62875,278.17607918600004 L396.41206,276.63262443800005 L398.19537,273.97589939 L399.97868,272.882373884 L401.76199,270.697423382 L403.5453,269.305205354 L405.32861,270.056767832 L407.11192,270.242032814 L408.89523,273.793995224 L410.67854,276.68387688200005 L412.46185,274.92364950200005 L414.24516,272.5055423900001 L416.02847,269.38880565200003 L417.81178,266.70813479000003 L419.59509,265.38901451000004 L421.3784,265.20038871200006 L423.16171,267.81678396800004 L424.94502,268.29317963600005 L426.72833,268.73974806200005 L428.51164,268.3700583020001 L430.29495000000003,267.70377653 L432.07826,267.261409124 L433.86157000000003,269.127502208 L435.64488,269.989971614 L437.42819000000003,270.67851879200003 L439.2115,270.94864437800004 L440.99481000000003,269.71606511000005 L442.77812,269.59339532600006 L444.56143000000003,269.241769952 L446.34474,270.95536601000003 L448.12805000000003,271.8014514380001 L449.91136,271.795990112 L451.69467000000003,270.351259334 L453.47798,271.09105895600004 L455.26129000000003,272.030407028 L457.0446,272.84582501 L458.82791000000003,273.100406822 L460.61122,273.47135688800006 L462.39453000000003,274.55606025200007 L464.17784,276.342754058 L465.96115000000003,277.081713476 L467.74446,275.84157237200003 L469.52777000000003,274.793417882 L471.31108,273.79945655000006 L473.09439000000003,273.684348602 L474.8777,272.04469049600004 L476.66101000000003,269.44257870800004 L478.44432,270.191200472 "/>
                        </g>
                    </g>
                </g>
                <g id="PlotDataItem_2">
                    <g fill="none" stroke="black" stroke-width="1" fill-rule="evenodd" stroke-linecap="square" stroke-linejoin="bevel" id="PlotCurveItem_2">
                        <g fill="none" stroke="#00ff00" stroke-opacity="1" stroke-width="1" stroke-linecap="square" stroke-linejoin="bevel" font-family="Segoe UI" font-size="12" font-weight="400" font-style="normal">
                            <path vector-effect="non-scaling-stroke" fill-rule="evenodd" d="M46.8833,430.487 L48.66661,404.94471437960004 L50.44992,363.350079278 L52.23323,365.252721236 L54.01654,380.65744147400005 L55.79985,366.80793884 L57.58316,369.707062742 L59.36647,381.601410668 L61.14978,394.6942675898 L62.93308999999999,408.8119213304 L64.7164,432.83212699256 L66.49971,448.78525678340003 L68.28302,476.502452468 L70.06633,487.149937658 L71.84964,489.13954073 L73.63295,396.99125929520005 L75.41626,327.049905662 L77.19957,289.010089664 L78.98288,305.90449159400004 L80.76619,233.43983730800002 L82.5495,229.25646159200005 L84.33281,232.38538128800005 L86.11612,238.45963610600003 L87.89943,239.62835987000003 L89.68274,287.459493182 L91.46605,280.76222709800004 L93.24936,215.83252228400002 L95.03267,228.77292419000003 L96.81598,283.51473540200004 L98.59929,275.67689238800006 L100.3826,232.39294312400003 L102.16591,214.05128980400002 L103.94922,217.63602017000002 L105.73253,202.29473533400005 L107.51584,192.02660225000002 L109.29915,202.52663163800005 L111.08246,193.60618577000005 L112.86577,211.77013594400003 L114.64908,231.64516156400003 L116.43239,169.45494189200008 L118.2157,190.68731707400002 L119.99901,248.67063531800005 L121.78232,172.72501586000004 L123.56563,149.24761559 L125.34894,264.502179188 L127.13225,364.49317682000003 L128.91556,419.30510305580003 L130.69887,344.38751520200003 L132.48218,272.994121016 L134.26549,257.84608310000004 L136.0488,351.761565608 L137.83211,350.91884099600003 L139.61542,341.894209832 L141.39873,177.00963615800003 L143.18204,343.52672620400006 L144.96535,201.24490043600002 L146.74866,236.31543549800006 L148.53197,206.31301096400003 L150.31528,222.27394625000005 L152.09859,262.77387956 L153.8819,182.30166105200004 L155.66521,249.99605712800002 L157.44852,167.86401561800005 L159.23183,247.05618333200002 L161.01514,155.878085456 L162.79845,243.13159044800005 L164.58176,167.19941425400003 L166.36507,212.875424306 L168.14838,157.24803807800004 L169.93169,200.21901135200005 L171.715,161.37217941200004 L173.49831,204.79308192800002 L175.28161999999998,161.77421702600003 L177.06492999999998,193.46545160000002 L178.84823999999998,164.32843718600003 L180.63154999999998,178.39429235000003 L182.41485999999998,158.22897624800004 L184.19816999999998,165.38961483800006 L185.98147999999998,159.31325951000002 L187.76478999999998,151.97197706000009 L189.54809999999998,148.93505970200005 L191.33140999999998,143.93122478000004 L193.11471999999998,142.08613679600006 L194.89802999999998,136.43492469200004 L196.68133999999998,130.39637854400007 L198.46464999999998,129.85738767800007 L200.24795999999998,124.91530775000007 L202.03126999999998,125.15728650200003 L203.81457999999998,116.05451636600003 L205.59788999999998,119.78082110600008 L207.38119999999998,108.46789434800002 L209.16450999999998,114.95300892200004 L210.94781999999998,102.02815079000004 L212.73112999999998,109.66980617000002 L214.51443999999998,98.77067988200002 L216.29774999999998,101.02326680600004 L218.08105999999998,92.82329586800006 L219.86436999999998,95.290975016 L221.64767999999998,88.64832219200002 L223.43098999999998,86.065114994 L225.21429999999998,88.10344989800006 L226.99760999999998,85.32573547400006 L228.78091999999998,92.98041401600005 L230.56422999999998,90.57280945400004 L232.34753999999998,98.09809658000006 L234.13084999999998,95.55059805200005 L235.91415999999998,108.25700314400001 L237.69746999999998,100.46453114600007 L239.48077999999998,107.62727024600008 L241.26408999999998,108.17508325400007 L243.04739999999998,111.70772097200006 L244.83070999999998,108.505283426 L246.61401999999998,104.98776938000003 L248.39732999999998,100.23095443400007 L250.18063999999998,100.72457428400003 L251.96394999999998,97.15706810000006 L253.74725999999998,95.35861143800008 L255.53056999999998,91.63440720800003 L257.31388,90.69715964600005 L259.09719,90.41737171400001 L260.8805,90.06952725800005 L262.66381,90.61187894000005 L264.44712,87.83710523000002 L266.23043,90.12834153800003 L268.01374,89.79310014200001 L269.79705,89.07934684400004 L271.58036,91.27900091600003 L273.36367,89.03775674600007 L275.14698,85.77692502200006 L276.93029,84.43848005000001 L278.7136,87.23887998200007 L280.49691,93.79037067200005 L282.28022,93.14425379600004 L284.06353,94.46169366800007 L285.84684,90.18757592000003 L287.63015,91.99023360200005 L289.41346,92.91949922600008 L291.19677,91.53022191200006 L292.98008,94.22937726200007 L294.76339,93.30641316800006 L296.5467,97.03691892800003 L298.33001,93.79709230400005 L300.11332,93.79709230400005 L301.89663,91.04038298000006 L303.67994,90.332931212 L305.46325,90.71606423600002 L307.24656,96.65588641400007 L309.02987,99.20086433000006 L310.81318,102.81248122400001 L312.59649,101.06107598600005 L314.3798,99.58357725200005 L316.16311,96.03329525000004 L317.94642,96.94071557000001 L319.72973,98.567350514 L321.51304,98.83117457000003 L323.29635,102.81122091800006 L325.07966,101.26692596600003 L326.86297,104.28703924400003 L328.64628,101.17366332200004 L330.42959,105.84099654200003 L332.2129,107.11138499000003 L333.99621,109.43076813200008 L335.77952,107.98897806800005 L337.56283,109.15392091400003 L339.34614,107.50880148200008 L341.12945,109.16064254600002 L342.91276,106.90553501000005 L344.69607,108.555275564 L346.47938,109.39547956400003 L348.26269,111.06160409600005 L350.046,117.34633001600002 L351.82931,112.47482722400002 L353.61262,114.80135210000009 L355.39593,112.88946789800002 L357.17924,111.64134485600005 L358.96255,109.87355564000006 L360.74586,114.13086930800006 L362.52917,109.09090561400001 L364.31248,107.30043089000003 L366.09579,105.19109874800006 L367.8791,106.16489518400004 L369.66241,107.64239391800004 L371.44572,108.33304160600005 L373.22903,114.04642880600005 L375.01234,110.55454098200005 L376.79565,114.48879621200001 L378.57896,115.26976583000004 L380.36227,116.23011900200004 L382.14558,115.52518784600005 L383.92889,120.31729136000007 L385.7122,117.24424523000005 L387.49551,118.25249003000005 L389.27882,116.48722142600002 L391.06213,116.85313026800009 L392.84544,115.89865852400004 L394.62875,117.40094327600008 L396.41206,114.02080258400002 L398.19537,116.25910604000006 L399.97868,111.62748149000004 L401.76199,115.15297747400007 L403.5453,114.83664066800003 L405.32861,113.29906734800005 L407.11192,108.09652418000002 L408.89523,103.22460128600005 L410.67854,93.55805426600006 L412.46185,100.71239132600004 L414.24516,97.85569772600002 L416.02847,100.24733841200003 L417.81178,100.23935647400009 L419.59509,100.14147270800004 L421.3784,101.26524555800006 L423.16171,98.15270984000006 L424.94502,101.96765610200003 L426.72833,100.06963526600003 L428.51164,103.85853520400002 L430.29495000000003,102.90826448000001 L432.07826,102.23904199400005 L433.86157000000003,102.98472304400002 L435.64488,102.44195126000005 L437.42819000000003,103.64092236800002 L439.2115,104.52439687400005 L440.99481000000003,104.80334460200004 L442.77812,101.52864951200007 L444.56143000000003,98.10901923200004 L446.34474,96.83274935600002 L448.12805000000003,97.77503814200003 L449.91136,101.58536328200006 L451.69467000000003,106.01743938200002 L453.47798,108.82035992600004 L455.26129000000003,109.68366953600002 L457.0446,111.06496491200005 L458.82791000000003,113.08649573600007 L460.61122,115.84824628400003 L462.39453000000003,120.16059331400004 L464.17784,120.34921911200001 L465.96115000000003,120.75377733800008 L467.74446,118.04958076400004 L469.52777000000003,120.54750725600007 L471.31108,117.72022079600004 L473.09439000000003,116.05829728400005 L474.8777,116.36497174400006 L476.66101000000003,124.81784408600004 L478.44432,124.43723167400003 "/>
                        </g>
                    </g>
                </g>
                <g id="PlotDataItem_3">
                    <g fill="none" stroke="black" stroke-width="1" fill-rule="evenodd" stroke-linecap="square" stroke-linejoin="bevel" id="PlotCurveItem_3">
                        <g fill="none" stroke="#0000ff" stroke-opacity="1" stroke-width="1" stroke-linecap="square" stroke-linejoin="bevel" font-family="Segoe UI" font-size="12" font-weight="400" font-style="normal">
                            <path vector-effect="non-scaling-stroke" fill-rule="evenodd" d="M46.8833,430.487 L48.66661,431.75378397284004 L50.44992,424.4453450972 L52.23323,421.6562879192 L54.01654,418.1092407026 L55.79985,414.8161031348 L57.58316,412.35964071020004 L59.36647,409.50513164060004 L61.14978,408.9263571152 L62.93308999999999,406.09255907420004 L64.7164,395.00190828440003 L66.49971,401.718204989 L68.28302,396.2657851514 L70.06633,399.3467712092 L71.84964,393.477694208 L73.63295,390.1730458454 L75.41626,384.306867548 L77.19957,378.89847440000005 L78.98288,377.096656922 L80.76619,371.09213903600005 L82.5495,367.35827246 L84.33281,364.372187444 L86.11612,362.589274556 L87.89943,363.08331450800006 L89.68274,361.93223502800004 L91.46605,360.425329154 L93.24936,356.71540839200003 L95.03267,354.082209056 L96.81598,356.95486653200004 L98.59929,353.94021458000003 L100.3826,350.679382856 L102.16591,348.506615312 L103.94922,345.673447424 L105.73253,343.13099012000004 L107.51584,343.01126105000003 L109.29915,342.11434328 L111.08246,340.299082538 L112.86577,340.91789278400006 L114.64908,341.379584882 L116.43239,338.04439510400005 L118.2157,340.91201135600005 L119.99901,350.266002488 L121.78232,346.16706727400003 L123.56563,344.14175553200005 L125.34894,337.482298628 L127.13225,338.881238288 L128.91556,338.718238712 L130.69887,337.34912629400003 L132.48218,334.303806896 L134.26549,327.031841276 L136.0488,89.46079946000003 L137.83211,164.39565350600003 L139.61542,159.69135131000002 L141.39873,162.49091103800004 L143.18204,159.22167727400006 L144.96535,140.26919564600007 L146.74866,139.93647486200007 L148.53197,141.29508473000004 L150.31528,138.32496359000004 L152.09859,111.04437991400005 L153.8819,108.12761172800003 L155.66521,102.50580676400006 L157.44852,101.87481356 L159.23183,98.096836274 L161.01514,92.17045736 L162.79845,89.34317090000002 L164.58176,87.05403510200006 L166.36507,87.79635533600003 L168.14838,86.62889187800005 L169.93169,86.55327351800008 L171.715,83.59239462200003 L173.49831,78.51798256400008 L175.28161999999998,76.66659305000002 L177.06492999999998,77.49293368400009 L178.84823999999998,74.25478746800002 L180.63154999999998,75.02315402600004 L182.41485999999998,70.79314698800005 L184.19816999999998,67.51467098000006 L185.98147999999998,66.16740386600003 L187.76478999999998,65.469614444 L189.54809999999998,64.04126764400007 L191.33140999999998,62.455802696000035 L193.11471999999998,60.42460952600004 L194.89802999999998,58.229576576000056 L196.68133999999998,57.00665965400003 L198.46464999999998,54.128960954000036 L200.24795999999998,54.00082984400001 L202.03126999999998,53.40092418800003 L203.81457999999998,50.234195312000054 L205.59788999999998,48.01269593600006 L207.38119999999998,42.952987448000044 L209.16450999999998,41.235190370000055 L210.94781999999998,41.340215870000065 L212.73112999999998,36.01164210200005 L214.51443999999998,35.70034652000004 L216.29774999999998,35.61968693600005 L218.08105999999998,34.53078255200006 L219.86436999999998,34.96558812200004 L221.64767999999998,34.99877618000005 L223.43098999999998,33.204940640000075 L225.21429999999998,34.566491222000025 L226.99760999999998,35.349981452000065 L228.78091999999998,37.22069565800007 L230.56422999999998,39.699297458000046 L232.34753999999998,39.606454916000075 L234.13084999999998,39.473282582000024 L235.91415999999998,39.135520574000054 L237.69746999999998,39.81230489600006 L239.48077999999998,40.67645471000003 L241.26408999999998,41.84979959600008 L243.04739999999998,41.73301124000005 L244.83070999999998,41.42717698400003 L246.61401999999998,42.76646216000006 L248.39732999999998,43.402496588000076 L250.18063999999998,44.78043114800005 L251.96394999999998,46.83262941800007 L253.74725999999998,48.57395220800004 L255.53056999999998,50.44298600600007 L257.31388,51.02650768400002 L259.09719,50.579939258000024 L260.8805,50.953409936000014 L262.66381,50.65807823000006 L264.44712,52.08936574400008 L266.23043,54.00293035400006 L268.01374,53.39924378000006 L269.79705,49.12596623600007 L271.58036,45.35807139800005 L273.36367,43.97299510400006 L275.14698,43.31049425000003 L276.93029,43.37939097800006 L278.7136,43.94232765800007 L280.49691,45.00266510600005 L282.28022,48.83651595800001 L284.06353,50.182522766000034 L285.84684,51.44492927600004 L287.63015,50.57321762600009 L289.41346,49.33223631800007 L291.19677,48.682758626000066 L292.98008,47.99715216200008 L294.76339,46.35665385200002 L296.5467,42.76184103800006 L298.33001,41.885088164000024 L300.11332,41.885088164000024 L301.89663,41.56371013400002 L303.67994,41.451963002000014 L305.46325,41.136466400000074 L307.24656,41.41121310800003 L309.02987,39.41362809800006 L310.81318,38.830526522000014 L312.59649,37.51980828200004 L314.3798,38.89354182200003 L316.16311,39.689635112000076 L317.94642,41.46708667400003 L319.72973,39.85767591200005 L321.51304,41.136466400000074 L323.29635,39.78499826600006 L325.07966,37.607609600000046 L326.86297,38.533094306000066 L328.64628,41.39230851800005 L330.42959,42.11446385600004 L332.2129,40.752913274000036 L333.99621,39.800121938000075 L335.77952,37.98948231800006 L337.56283,35.07901566200002 L339.34614,31.213657160000025 L341.12945,31.494285296000044 L342.91276,31.579566002000035 L344.69607,31.59973089800002 L346.47938,32.00344892000004 L348.26269,32.16518819000004 L350.046,31.692153338000026 L351.82931,33.901049654000076 L353.61262,34.84417864400007 L355.39593,33.48094765400009 L357.17924,35.59406071400008 L358.96255,36.774967436000054 L360.74586,37.24632188000004 L362.52917,38.785155506000024 L364.31248,41.48095004000004 L366.09579,41.798547152000026 L367.8791,39.82742856800007 L369.66241,39.12291751400005 L371.44572,35.96963190200006 L373.22903,35.51466143600004 L375.01234,33.520437242000014 L376.79565,32.66763018200004 L378.57896,28.896374528000024 L380.36227,25.984647566000035 L382.14558,24.186611006000078 L383.92889,22.728857066000046 L385.7122,22.43730627800005 L387.49551,23.295574664000014 L389.27882,23.75936727200002 L391.06213,23.484200462000047 L392.84544,23.904722564000053 L394.62875,25.380540890000077 L396.41206,28.41955875800005 L398.19537,28.101961646000063 L399.97868,26.569429550000052 L401.76199,25.429272722000064 L403.5453,25.605295460000036 L405.32861,25.27551539000001 L407.11192,27.222268058000054 L408.89523,27.95072492600002 L410.67854,26.540862614000048 L412.46185,27.572213024000007 L414.24516,26.27241743600007 L416.02847,25.63974382400005 L417.81178,27.621785060000036 L419.59509,26.89542870200006 L421.3784,26.671094234000066 L423.16171,26.66605301000004 L424.94502,27.341156924000074 L426.72833,26.06068602800002 L428.51164,24.942374504000043 L430.29495000000003,26.00019134000007 L432.07826,26.595055772000023 L433.86157000000003,26.88702666200004 L435.64488,27.062209196000026 L437.42819000000003,28.160355824000078 L439.2115,26.843336054000076 L440.99481000000003,24.956237870000052 L442.77812,23.958495620000008 L444.56143000000003,24.954557462000025 L446.34474,25.933815224000057 L448.12805000000003,27.139087862000054 L449.91136,26.99961399800003 L451.69467000000003,28.08935858600006 L453.47798,28.774124846000007 L455.26129000000003,31.02083034200001 L457.0446,29.55425426000005 L458.82791000000003,32.24710808000003 L460.61122,34.12286351000006 L462.39453000000003,33.95020158800003 L464.17784,32.28617756600005 L465.96115000000003,33.99389219600005 L467.74446,35.18572157 L469.52777000000003,36.85268630600007 L471.31108,38.21087607200002 L473.09439000000003,39.70559898800008 L474.8777,39.01201058600003 L476.66101000000003,34.65639305000008 L478.44432,34.525321226000074 "/>
                        </g>
                    </g>
                </g>
            </g>
            <g fill="none" stroke="black" stroke-width="1" fill-rule="evenodd" stroke-linecap="square" stroke-linejoin="bevel" id="LegendItem_1">
                <g fill="none" stroke="none" transform="matrix(1,0,0,1,56.3281,31)" font-family="Segoe UI" font-size="12" font-weight="400" font-style="normal">
                    <rect vector-effect="non-scaling-stroke" x="0" y="0" width="88.1563" height="90"/>
                </g>
                <g fill="none" stroke="black" stroke-width="1" fill-rule="evenodd" stroke-linecap="square" stroke-linejoin="bevel" id="ItemSample_1">
                    <g fill="none" stroke="#ff0000" stroke-opacity="1" stroke-width="1" stroke-linecap="square" stroke-linejoin="bevel" font-family="Segoe UI" font-size="12" font-weight="400" font-style="normal">
                        <polyline fill="none" vector-effect="non-scaling-stroke" points="65.3281,51.0 85.3281,51.0"/>
                    </g>
                </g>
                <g fill="none" stroke="black" stroke-width="1" fill-rule="evenodd" stroke-linecap="square" stroke-linejoin="bevel" id="LabelItem_1">
                    <g fill="none" stroke="black" stroke-width="1" fill-rule="evenodd" stroke-linecap="square" stroke-linejoin="bevel" id="QGraphicsTextItem_1">
                        


                        


                        


                        <g fill="none" stroke="#969696" stroke-opacity="1" stroke-width="1" stroke-linecap="square" stroke-linejoin="bevel" transform="matrix(1,0,0,1,90.3281,40)" font-family="Segoe UI" font-size="12" font-weight="400" font-style="normal">
                            <text fill="#969696" fill-opacity="1" stroke="none" xml:space="preserve" x="4" y="16.9531" font-family="&quot;Segoe UI&quot;" font-size="12" font-weight="400" font-style="normal">euler_x</text>
                        </g>
                        


                        

                    </g>
                </g>
                <g fill="none" stroke="black" stroke-width="1" fill-rule="evenodd" stroke-linecap="square" stroke-linejoin="bevel" id="ItemSample_2">
                    <g fill="none" stroke="#00ff00" stroke-opacity="1" stroke-width="1" stroke-linecap="square" stroke-linejoin="bevel" font-family="Segoe UI" font-size="12" font-weight="400" font-style="normal">
                        <polyline fill="none" vector-effect="non-scaling-stroke" points="65.3281,75.0 85.3281,75.0"/>
                    </g>
                </g>
                <g fill="none" stroke="black" stroke-width="1" fill-rule="evenodd" stroke-linecap="square" stroke-linejoin="bevel" id="LabelItem_2">
                    <g fill="none" stroke="black" stroke-width="1" fill-rule="evenodd" stroke-linecap="square" stroke-linejoin="bevel" id="QGraphicsTextItem_2">
                        


                        


                        


                        <g fill="none" stroke="#969696" stroke-opacity="1" stroke-width="1" stroke-linecap="square" stroke-linejoin="bevel" transform="matrix(1,0,0,1,90.3281,64)" font-family="Segoe UI" font-size="12" font-weight="400" font-style="normal">
                            <text fill="#969696" fill-opacity="1" stroke="none" xml:space="preserve" x="4" y="16.9531" font-family="&quot;Segoe UI&quot;" font-size="12" font-weight="400" font-style="normal">euler_y</text>
                        </g>
                        


                        

                    </g>
                </g>
                <g fill="none" stroke="black" stroke-width="1" fill-rule="evenodd" stroke-linecap="square" stroke-linejoin="bevel" id="ItemSample_3">
                    <g fill="none" stroke="#0000ff" stroke-opacity="1" stroke-width="1" stroke-linecap="square" stroke-linejoin="bevel" font-family="Segoe UI" font-size="12" font-weight="400" font-style="normal">
                        <polyline fill="none" vector-effect="non-scaling-stroke" points="65.3281,99.0 85.3281,99.0"/>
                    </g>
                </g>
                <g fill="none" stroke="black" stroke-width="1" fill-rule="evenodd" stroke-linecap="square" stroke-linejoin="bevel" id="LabelItem_3">
                    <g fill="none" stroke="black" stroke-width="1" fill-rule="evenodd" stroke-linecap="square" stroke-linejoin="bevel" id="QGraphicsTextItem_3">
                        


                        


                        


                        <g fill="none" stroke="#969696" stroke-opacity="1" stroke-width="1" stroke-linecap="square" stroke-linejoin="bevel" transform="matrix(1,0,0,1,90.3281,88)" font-family="Segoe UI" font-size="12" font-weight="400" font-style="normal">
                            <text fill="#969696" fill-opacity="1" stroke="none" xml:space="preserve" x="4" y="16.9531" font-family="&quot;Segoe UI&quot;" font-size="12" font-weight="400" font-style="normal">euler_z</text>
                        </g>
                        


                        

                    </g>
                </g>
            </g>
            <g fill="none" stroke="black" stroke-width="1" fill-rule="evenodd" stroke-linecap="square" stroke-linejoin="bevel" id="QGraphicsRectItem_1">
                <g fill="none" stroke="none" transform="matrix(1,0,0,1,26.3281,1)" font-family="Segoe UI" font-size="12" font-weight="400" font-style="normal">
                    <rect vector-effect="non-scaling-stroke" x="0" y="0" width="472.672" height="512"/>
                </g>
            </g>
        </g>
    </g>
    <g fill="none" stroke="black" stroke-width="1" fill-rule="evenodd" stroke-linecap="square" stroke-linejoin="bevel" id="AxisItem_1">
        <g fill="none" stroke="#969696" stroke-opacity="1" stroke-width="1" stroke-linecap="square" stroke-linejoin="bevel" font-family="Segoe UI" font-size="12" font-weight="400" font-style="normal">
            <polyline fill="none" vector-effect="non-scaling-stroke" points="26.3281,513.0 499.00010000000003,513.0"/>
            <polyline fill="none" vector-effect="non-scaling-stroke" points="46.8833,513.0 46.8833,508.0"/>
            <polyline fill="none" vector-effect="non-scaling-stroke" points="403.5461,513.0 403.5461,508.0"/>
        </g>
        <g fill="none" stroke="#969696" stroke-opacity="0.498039" stroke-width="1" stroke-linecap="square" stroke-linejoin="bevel" font-family="Segoe UI" font-size="12" font-weight="400" font-style="normal">
            <polyline fill="none" vector-effect="non-scaling-stroke" points="225.2141,513.0 225.2141,509.66667"/>
        </g>
        <g fill="none" stroke="#969696" stroke-opacity="0.333333" stroke-width="1" stroke-linecap="square" stroke-linejoin="bevel" font-family="Segoe UI" font-size="12" font-weight="400" font-style="normal">
            <polyline fill="none" vector-effect="non-scaling-stroke" points="82.5495,513.0 82.5495,510.5"/>
            <polyline fill="none" vector-effect="non-scaling-stroke" points="118.2158,513.0 118.2158,510.5"/>
            <polyline fill="none" vector-effect="non-scaling-stroke" points="153.8821,513.0 153.8821,510.5"/>
            <polyline fill="none" vector-effect="non-scaling-stroke" points="189.5481,513.0 189.5481,510.5"/>
            <polyline fill="none" vector-effect="non-scaling-stroke" points="260.8811,513.0 260.8811,510.5"/>
            <polyline fill="none" vector-effect="non-scaling-stroke" points="296.5471,513.0 296.5471,510.5"/>
            <polyline fill="none" vector-effect="non-scaling-stroke" points="332.2131,513.0 332.2131,510.5"/>
            <polyline fill="none" vector-effect="non-scaling-stroke" points="367.8791,513.0 367.8791,510.5"/>
            <polyline fill="none" vector-effect="non-scaling-stroke" points="439.2121,513.0 439.2121,510.5"/>
            <polyline fill="none" vector-effect="non-scaling-stroke" points="474.8781,513.0 474.8781,510.5"/>
        </g>
        <g fill="none" stroke="#969696" stroke-opacity="1" stroke-width="1" stroke-linecap="square" stroke-linejoin="bevel" transform="matrix(1,0,0,1,26.3281,513)" font-family="Segoe UI" font-size="12" font-weight="400" font-style="normal">
            <text fill="#969696" fill-opacity="1" stroke="none" xml:space="preserve" x="17.3125" y="14.9063" font-family="&quot;Segoe UI&quot;" font-size="12" font-weight="400" font-style="normal">0</text>
            <text fill="#969696" fill-opacity="1" stroke="none" xml:space="preserve" x="367.5" y="14.9063" font-family="&quot;Segoe UI&quot;" font-size="12" font-weight="400" font-style="normal">200</text>
            <text fill="#969696" fill-opacity="1" stroke="none" xml:space="preserve" x="189.172" y="14.9063" font-family="&quot;Segoe UI&quot;" font-size="12" font-weight="400" font-style="normal">100</text>
            <text fill="#969696" fill-opacity="1" stroke="none" xml:space="preserve" x="49.75" y="14.9063" font-family="&quot;Segoe UI&quot;" font-size="12" font-weight="400" font-style="normal">20</text>
            <text fill="#969696" fill-opacity="1" stroke="none" xml:space="preserve" x="85.4063" y="14.9063" font-family="&quot;Segoe UI&quot;" font-size="12" font-weight="400" font-style="normal">40</text>
            <text fill="#969696" fill-opacity="1" stroke="none" xml:space="preserve" x="121.078" y="14.9063" font-family="&quot;Segoe UI&quot;" font-size="12" font-weight="400" font-style="normal">60</text>
            <text fill="#969696" fill-opacity="1" stroke="none" xml:space="preserve" x="156.75" y="14.9063" font-family="&quot;Segoe UI&quot;" font-size="12" font-weight="400" font-style="normal">80</text>
            <text fill="#969696" fill-opacity="1" stroke="none" xml:space="preserve" x="224.844" y="14.9063" font-family="&quot;Segoe UI&quot;" font-size="12" font-weight="400" font-style="normal">120</text>
            <text fill="#969696" fill-opacity="1" stroke="none" xml:space="preserve" x="260.516" y="14.9063" font-family="&quot;Segoe UI&quot;" font-size="12" font-weight="400" font-style="normal">140</text>
            <text fill="#969696" fill-opacity="1" stroke="none" xml:space="preserve" x="296.172" y="14.9063" font-family="&quot;Segoe UI&quot;" font-size="12" font-weight="400" font-style="normal">160</text>
            <text fill="#969696" fill-opacity="1" stroke="none" xml:space="preserve" x="331.844" y="14.9063" font-family="&quot;Segoe UI&quot;" font-size="12" font-weight="400" font-style="normal">180</text>
            <text fill="#969696" fill-opacity="1" stroke="none" xml:space="preserve" x="403.172" y="14.9063" font-family="&quot;Segoe UI&quot;" font-size="12" font-weight="400" font-style="normal">220</text>
            <text fill="#969696" fill-opacity="1" stroke="none" xml:space="preserve" x="438.844" y="14.9063" font-family="&quot;Segoe UI&quot;" font-size="12" font-weight="400" font-style="normal">240</text>
        </g>
    </g>
    <g fill="none" stroke="black" stroke-width="1" fill-rule="evenodd" stroke-linecap="square" stroke-linejoin="bevel" id="AxisItem_2">
        <g fill="none" stroke="#969696" stroke-opacity="1" stroke-width="1" stroke-linecap="square" stroke-linejoin="bevel" font-family="Segoe UI" font-size="12" font-weight="400" font-style="normal">
            <polyline fill="none" vector-effect="non-scaling-stroke" points="26.3281,1.0 26.3281,513.0"/>
            <polyline fill="none" vector-effect="non-scaling-stroke" points="26.3281,430.487 31.3281,430.487"/>
            <polyline fill="none" vector-effect="non-scaling-stroke" points="26.3281,10.38561 31.3281,10.38561"/>
        </g>
        <g fill="none" stroke="#969696" stroke-opacity="0.498039" stroke-width="1" stroke-linecap="square" stroke-linejoin="bevel" font-family="Segoe UI" font-size="12" font-weight="400" font-style="normal">
            <polyline fill="none" vector-effect="non-scaling-stroke" points="26.3281,346.467 29.6615,346.467"/>
            <polyline fill="none" vector-effect="non-scaling-stroke" points="26.3281,262.447 29.6615,262.447"/>
            <polyline fill="none" vector-effect="non-scaling-stroke" points="26.3281,178.426 29.6615,178.426"/>
            <polyline fill="none" vector-effect="non-scaling-stroke" points="26.3281,94.4059 29.6615,94.4059"/>
        </g>
        <g fill="none" stroke="#969696" stroke-opacity="0.333333" stroke-width="1" stroke-linecap="square" stroke-linejoin="bevel" font-family="Segoe UI" font-size="12" font-weight="400" font-style="normal">
            <polyline fill="none" vector-effect="non-scaling-stroke" points="26.3281,472.497 28.8281,472.497"/>
            <polyline fill="none" vector-effect="non-scaling-stroke" points="26.3281,388.477 28.8281,388.477"/>
            <polyline fill="none" vector-effect="non-scaling-stroke" points="26.3281,304.457 28.8281,304.457"/>
            <polyline fill="none" vector-effect="non-scaling-stroke" points="26.3281,220.436 28.8281,220.436"/>
            <polyline fill="none" vector-effect="non-scaling-stroke" points="26.3281,136.416 28.8281,136.416"/>
            <polyline fill="none" vector-effect="non-scaling-stroke" points="26.3281,52.3958 28.8281,52.3958"/>
        </g>
        <g fill="none" stroke="#969696" stroke-opacity="1" stroke-width="1" stroke-linecap="square" stroke-linejoin="bevel" transform="matrix(1,0,0,1,1,1)" font-family="Segoe UI" font-size="12" font-weight="400" font-style="normal">
            <text fill="#969696" fill-opacity="1" stroke="none" xml:space="preserve" x="13.8594" y="434.406" font-family="&quot;Segoe UI&quot;" font-size="12" font-weight="400" font-style="normal">0</text>
            <text fill="#969696" fill-opacity="1" stroke="none" xml:space="preserve" x="13.8594" y="14.2969" font-family="&quot;Segoe UI&quot;" font-size="12" font-weight="400" font-style="normal">1</text>
            <text fill="#969696" fill-opacity="1" stroke="none" xml:space="preserve" x="4.79688" y="350.375" font-family="&quot;Segoe UI&quot;" font-size="12" font-weight="400" font-style="normal">0.2</text>
            <text fill="#969696" fill-opacity="1" stroke="none" xml:space="preserve" x="4.79688" y="266.359" font-family="&quot;Segoe UI&quot;" font-size="12" font-weight="400" font-style="normal">0.4</text>
            <text fill="#969696" fill-opacity="1" stroke="none" xml:space="preserve" x="4.79688" y="182.344" font-family="&quot;Segoe UI&quot;" font-size="12" font-weight="400" font-style="normal">0.6</text>
            <text fill="#969696" fill-opacity="1" stroke="none" xml:space="preserve" x="4.79688" y="98.3125" font-family="&quot;Segoe UI&quot;" font-size="12" font-weight="400" font-style="normal">0.8</text>
        </g>
    </g>
</g>

</svg>
