<?xml version="1.0" encoding="UTF-8" standalone="no"?>
<svg xmlns="http://www.w3.org/2000/svg" xmlns:xlink="http://www.w3.org/1999/xlink"  version="1.2" baseProfile="tiny" viewBox ="0 0 501.000000 534.000000">
<title>pyqtgraph SVG export</title>
<desc>Generated with Qt and pyqtgraph</desc>
<style>
    image {
        image-rendering: crisp-edges;
        image-rendering: -moz-crisp-edges;
        image-rendering: pixelated;
    }
</style>
<rect width="100%" height="100%" style="fill:rgba(255, 255, 255, 1.000000)" />
<defs>
</defs>
<g fill="none" stroke="black" stroke-width="1" fill-rule="evenodd" stroke-linecap="square" stroke-linejoin="bevel" id="PlotItem_1">
    <g fill="none" stroke="black" stroke-width="1" fill-rule="evenodd" stroke-linecap="square" stroke-linejoin="bevel" id="ViewBox_1">
        <g fill="none" stroke="none" font-family="Segoe UI" font-size="12" font-weight="400" font-style="normal">
            <path vector-effect="non-scaling-stroke" fill-rule="evenodd" d="M17.2656,1.0 L499.9996,1.0 L499.9996,513.0 L17.2656,513.0 L17.2656,1.0 "/>
        </g>
        <clipPath id="ViewBox_1_clip">
            <path vector-effect="none" fill-rule="evenodd" d="M17.2656,1.0 L500.0,1.0 L500.0,513.0 L17.2656,513.0 L17.2656,1.0 " stroke-width="1.0"/>
        </clipPath>
        <g clip-path="url(#ViewBox_1_clip)">
            <g fill="none" stroke="black" stroke-width="1" fill-rule="evenodd" stroke-linecap="square" stroke-linejoin="bevel" id="ChildGroup_1">
                <g id="PlotDataItem_1">
                    <g fill="none" stroke="black" stroke-width="1" fill-rule="evenodd" stroke-linecap="square" stroke-linejoin="bevel" id="PlotCurveItem_1">
                        <g fill="none" stroke="#ff0000" stroke-opacity="1" stroke-width="1" stroke-linecap="square" stroke-linejoin="bevel" font-family="Segoe UI" font-size="12" font-weight="400" font-style="normal">
                            <path vector-effect="non-scaling-stroke" fill-rule="evenodd" d="M38.05,22.4378 L39.873,22.4378 L41.696,22.4378 L43.519,22.4378 L45.342,22.4378 L47.165,22.4378 L48.988,22.4378 L50.81099999999999,22.4378 L52.634,22.4378 L54.456999999999994,22.4378 L56.28,22.4378 L58.102999999999994,22.4378 L59.925999999999995,22.4378 L61.748999999999995,22.4378 L63.571999999999996,22.4378 L65.395,22.4378 L67.21799999999999,22.4378 L69.041,22.4378 L70.864,22.4378 L72.687,22.4378 L74.50999999999999,22.4378 L76.333,22.4378 L78.156,22.4378 L79.979,22.4378 L81.80199999999999,22.4378 L83.625,22.4378 L85.448,22.4378 L87.27099999999999,22.4378 L89.094,22.4378 L90.917,22.4378 L92.74,22.4378 L94.56299999999999,22.4378 L96.386,22.4378 L98.209,22.4378 L100.032,22.4378 L101.85499999999999,22.4378 L103.678,22.4378 L105.50099999999999,22.4378 L107.324,22.4378 L109.14699999999999,22.4378 L110.97,22.4378 L112.79299999999999,22.4378 L114.616,22.4378 L116.439,22.4378 L118.262,22.4378 L120.085,22.4378 L121.908,22.4378 L123.731,22.4378 L125.55399999999999,22.4378 L127.377,22.4378 L129.2,22.4378 L131.023,22.4378 L132.846,22.4378 L134.66899999999998,22.4378 L136.492,22.4378 L138.315,22.4378 L140.13799999999998,22.4378 L141.961,22.4378 L143.784,22.4378 L145.607,22.4378 L147.43,22.4378 L149.253,22.4378 L151.076,22.4378 L152.899,22.4378 L154.72199999999998,22.4378 L156.545,22.4378 L158.368,22.4378 L160.19099999999997,22.4378 L162.014,22.4378 L163.837,22.4378 L165.66,22.4378 L167.483,22.4378 L169.30599999999998,22.4378 L171.12900000000002,22.4378 L172.952,22.4378 L174.77499999999998,22.4378 L176.598,22.4378 L178.421,22.4378 L180.24399999999997,22.4378 L182.067,22.4378 L183.89,22.4378 L185.71299999999997,22.4378 L187.536,22.4378 L189.35899999999998,22.4378 L191.18200000000002,22.4378 L193.005,22.4378 L194.82799999999997,22.4378 L196.651,22.4378 L198.474,22.4378 L200.29699999999997,22.4378 L202.12,22.4378 L203.94299999999998,22.4378 L205.76600000000002,22.4378 L207.589,22.4378 L209.41199999999998,22.4378 L211.235,22.4378 L213.058,22.4378 L214.88099999999997,22.4378 L216.704,22.4378 L218.527,22.4378 L220.34999999999997,22.4378 L222.173,22.4378 L223.99599999999998,22.4378 L225.81900000000002,22.4378 L227.642,22.4378 L229.46499999999997,22.4378 L231.288,22.4378 L233.111,22.4378 L234.93399999999997,22.4378 L236.757,22.4378 L238.57999999999998,22.4378 L240.40300000000002,22.4378 L242.226,22.4378 L244.04899999999998,22.4378 L245.872,22.4378 L247.695,22.4378 L249.51799999999997,22.4378 L251.341,22.4378 L253.164,22.4378 L254.98699999999997,22.4378 L256.81,22.4378 L258.633,22.4378 L260.456,22.4378 L262.279,22.4378 L264.102,22.4378 L265.925,22.4378 L267.748,22.4378 L269.57099999999997,22.4378 L271.394,22.4378 L273.217,22.4378 L275.03999999999996,22.4378 L276.863,22.4378 L278.686,22.4378 L280.509,22.4378 L282.332,22.4378 L284.155,22.4378 L285.978,22.4378 L287.801,22.4378 L289.62399999999997,22.4378 L291.447,22.4378 L293.27,22.4378 L295.093,22.4378 L296.916,22.4378 L298.73900000000003,22.4378 L300.562,22.4378 L302.385,22.4378 L304.208,22.4378 L306.031,22.4378 L307.854,22.4378 L309.677,22.4378 L311.5,22.4378 L313.323,22.4378 L315.146,22.4378 L316.969,22.4378 L318.79200000000003,22.4378 L320.615,22.4378 L322.438,22.4378 L324.261,22.4378 L326.084,22.4378 L327.907,22.4378 L329.73,22.4378 L331.553,22.4378 L333.376,22.4378 L335.199,22.4378 L337.022,22.4378 L338.845,22.4378 L340.668,22.4378 L342.491,22.4378 L344.314,22.4378 L346.137,22.4378 L347.96,22.4378 L349.783,22.4378 L351.606,22.4378 L353.42900000000003,22.4378 L355.252,22.4378 L357.075,22.4378 L358.898,22.4378 L360.721,22.4378 L362.544,22.4378 L364.367,22.4378 L366.19,22.4378 L368.013,22.4378 L369.836,22.4378 L371.659,22.4378 L373.482,22.4378 L375.305,22.4378 L377.128,22.4378 L378.951,22.4378 L380.774,22.4378 L382.597,22.4378 L384.42,22.4378 L386.243,22.4378 L388.066,22.4378 L389.889,22.4378 L391.712,22.4378 L393.535,22.4378 L395.358,22.4378 L397.181,22.4378 L399.004,22.4378 L400.827,22.4378 L402.65,22.4378 L404.473,22.4378 L406.296,22.4378 L408.119,22.4378 L409.942,22.4378 L411.765,22.4378 L413.588,22.4378 L415.411,22.4378 L417.234,22.4378 L419.057,22.4378 L420.88,22.4378 L422.703,22.4378 L424.526,22.4378 L426.349,22.4378 L428.172,22.4378 L429.995,22.4378 L431.818,22.4378 L433.641,22.4378 L435.464,22.4378 L437.287,22.4378 L439.11,22.4378 L440.933,22.4378 L442.75600000000003,22.4378 L444.579,22.4378 L446.402,22.4378 L448.225,22.4378 L450.048,22.4378 L451.871,22.4378 L453.694,22.4378 L455.517,22.4378 L457.34,22.4378 L459.163,22.4378 L460.986,22.4378 L462.809,22.4378 L464.632,22.4378 L466.455,22.4378 L468.278,22.4378 L470.101,22.4378 L471.924,22.4378 L473.747,22.4378 L475.57,22.4378 L477.393,22.4378 L479.216,22.4378 "/>
                        </g>
                    </g>
                </g>
                <g id="PlotDataItem_2">
                    <g fill="none" stroke="black" stroke-width="1" fill-rule="evenodd" stroke-linecap="square" stroke-linejoin="bevel" id="PlotCurveItem_2">
                        <g fill="none" stroke="#00ff00" stroke-opacity="1" stroke-width="1" stroke-linecap="square" stroke-linejoin="bevel" font-family="Segoe UI" font-size="12" font-weight="400" font-style="normal">
                            <path vector-effect="non-scaling-stroke" fill-rule="evenodd" d="M38.05,22.4378 L39.873,22.4378 L41.696,22.4378 L43.519,22.4378 L45.342,22.4378 L47.165,22.4378 L48.988,22.4378 L50.81099999999999,22.4378 L52.634,22.4378 L54.456999999999994,22.4378 L56.28,22.4378 L58.102999999999994,22.4378 L59.925999999999995,22.4378 L61.748999999999995,22.4378 L63.571999999999996,22.4378 L65.395,22.4378 L67.21799999999999,22.4378 L69.041,22.4378 L70.864,22.4378 L72.687,22.4378 L74.50999999999999,22.4378 L76.333,22.4378 L78.156,22.4378 L79.979,22.4378 L81.80199999999999,22.4378 L83.625,22.4378 L85.448,22.4378 L87.27099999999999,22.4378 L89.094,22.4378 L90.917,22.4378 L92.74,22.4378 L94.56299999999999,22.4378 L96.386,22.4378 L98.209,22.4378 L100.032,22.4378 L101.85499999999999,22.4378 L103.678,22.4378 L105.50099999999999,22.4378 L107.324,22.4378 L109.14699999999999,22.4378 L110.97,22.4378 L112.79299999999999,22.4378 L114.616,22.4378 L116.439,22.4378 L118.262,22.4378 L120.085,22.4378 L121.908,22.4378 L123.731,22.4378 L125.55399999999999,22.4378 L127.377,22.4378 L129.2,22.4378 L131.023,22.4378 L132.846,22.4378 L134.66899999999998,22.4378 L136.492,22.4378 L138.315,22.4378 L140.13799999999998,22.4378 L141.961,22.4378 L143.784,22.4378 L145.607,22.4378 L147.43,22.4378 L149.253,22.4378 L151.076,22.4378 L152.899,22.4378 L154.72199999999998,22.4378 L156.545,22.4378 L158.368,22.4378 L160.19099999999997,22.4378 L162.014,22.4378 L163.837,22.4378 L165.66,22.4378 L167.483,22.4378 L169.30599999999998,22.4378 L171.12900000000002,22.4378 L172.952,22.4378 L174.77499999999998,22.4378 L176.598,22.4378 L178.421,22.4378 L180.24399999999997,22.4378 L182.067,22.4378 L183.89,22.4378 L185.71299999999997,22.4378 L187.536,22.4378 L189.35899999999998,22.4378 L191.18200000000002,22.4378 L193.005,22.4378 L194.82799999999997,22.4378 L196.651,22.4378 L198.474,22.4378 L200.29699999999997,22.4378 L202.12,22.4378 L203.94299999999998,22.4378 L205.76600000000002,22.4378 L207.589,22.4378 L209.41199999999998,22.4378 L211.235,22.4378 L213.058,22.4378 L214.88099999999997,22.4378 L216.704,22.4378 L218.527,22.4378 L220.34999999999997,22.4378 L222.173,22.4378 L223.99599999999998,22.4378 L225.81900000000002,22.4378 L227.642,22.4378 L229.46499999999997,22.4378 L231.288,22.4378 L233.111,22.4378 L234.93399999999997,22.4378 L236.757,22.4378 L238.57999999999998,22.4378 L240.40300000000002,22.4378 L242.226,22.4378 L244.04899999999998,22.4378 L245.872,22.4378 L247.695,22.4378 L249.51799999999997,22.4378 L251.341,22.4378 L253.164,22.4378 L254.98699999999997,22.4378 L256.81,22.4378 L258.633,22.4378 L260.456,22.4378 L262.279,22.4378 L264.102,22.4378 L265.925,22.4378 L267.748,22.4378 L269.57099999999997,22.4378 L271.394,22.4378 L273.217,22.4378 L275.03999999999996,22.4378 L276.863,22.4378 L278.686,22.4378 L280.509,22.4378 L282.332,22.4378 L284.155,22.4378 L285.978,22.4378 L287.801,22.4378 L289.62399999999997,22.4378 L291.447,22.4378 L293.27,22.4378 L295.093,22.4378 L296.916,22.4378 L298.73900000000003,22.4378 L300.562,22.4378 L302.385,22.4378 L304.208,22.4378 L306.031,22.4378 L307.854,22.4378 L309.677,22.4378 L311.5,22.4378 L313.323,22.4378 L315.146,22.4378 L316.969,22.4378 L318.79200000000003,22.4378 L320.615,22.4378 L322.438,22.4378 L324.261,22.4378 L326.084,22.4378 L327.907,22.4378 L329.73,22.4378 L331.553,22.4378 L333.376,22.4378 L335.199,22.4378 L337.022,22.4378 L338.845,22.4378 L340.668,22.4378 L342.491,22.4378 L344.314,22.4378 L346.137,22.4378 L347.96,22.4378 L349.783,22.4378 L351.606,22.4378 L353.42900000000003,22.4378 L355.252,22.4378 L357.075,22.4378 L358.898,22.4378 L360.721,22.4378 L362.544,22.4378 L364.367,22.4378 L366.19,22.4378 L368.013,22.4378 L369.836,22.4378 L371.659,22.4378 L373.482,22.4378 L375.305,22.4378 L377.128,22.4378 L378.951,22.4378 L380.774,22.4378 L382.597,22.4378 L384.42,22.4378 L386.243,22.4378 L388.066,22.4378 L389.889,22.4378 L391.712,22.4378 L393.535,22.4378 L395.358,22.4378 L397.181,22.4378 L399.004,22.4378 L400.827,22.4378 L402.65,22.4378 L404.473,22.4378 L406.296,22.4378 L408.119,22.4378 L409.942,22.4378 L411.765,22.4378 L413.588,22.4378 L415.411,22.4378 L417.234,22.4378 L419.057,22.4378 L420.88,22.4378 L422.703,22.4378 L424.526,22.4378 L426.349,22.4378 L428.172,22.4378 L429.995,22.4378 L431.818,22.4378 L433.641,22.4378 L435.464,22.4378 L437.287,22.4378 L439.11,22.4378 L440.933,22.4378 L442.75600000000003,22.4378 L444.579,22.4378 L446.402,22.4378 L448.225,22.4378 L450.048,22.4378 L451.871,22.4378 L453.694,22.4378 L455.517,22.4378 L457.34,22.4378 L459.163,22.4378 L460.986,22.4378 L462.809,22.4378 L464.632,22.4378 L466.455,22.4378 L468.278,22.4378 L470.101,22.4378 L471.924,22.4378 L473.747,22.4378 L475.57,22.4378 L477.393,22.4378 L479.216,22.4378 "/>
                        </g>
                    </g>
                </g>
                <g id="PlotDataItem_3">
                    <g fill="none" stroke="black" stroke-width="1" fill-rule="evenodd" stroke-linecap="square" stroke-linejoin="bevel" id="PlotCurveItem_3">
                        <g fill="none" stroke="#0000ff" stroke-opacity="1" stroke-width="1" stroke-linecap="square" stroke-linejoin="bevel" font-family="Segoe UI" font-size="12" font-weight="400" font-style="normal">
                            <path vector-effect="non-scaling-stroke" fill-rule="evenodd" d="M38.05,22.4378 L39.873,27.08999023049 L41.696,29.15031868437 L43.519,31.136137095869998 L45.342,33.0916320738 L47.165,35.015102393 L48.988,36.9574852685 L50.81099999999999,38.894257720599995 L52.634,40.8597157246 L54.456999999999994,42.697762823000005 L56.28,45.0494351346 L58.102999999999994,47.1870969407 L59.925999999999995,49.3817678878 L61.748999999999995,51.3769068414 L63.571999999999996,53.3318679242 L65.395,55.24945634790001 L67.21799999999999,57.243780885199996 L69.041,59.307330808 L70.864,61.2422029554 L72.687,63.206394089599996 L74.50999999999999,65.1859686428 L76.333,67.2702409359 L78.156,69.1971499017 L79.979,71.22776120969999 L81.80199999999999,73.1543987034 L83.625,75.1403980963 L85.448,77.1538161713 L87.27099999999999,79.1757403721 L89.094,80.9547875341 L90.917,82.8988897329 L92.74,84.8544842506 L94.56299999999999,86.8849145772 L96.386,88.711378866 L98.209,90.4601116435 L100.032,92.3757997625 L101.85499999999999,94.3460537736 L103.678,96.3306053153 L105.50099999999999,98.3503577393 L107.324,100.0951994167 L109.14699999999999,102.0440071319 L110.97,104.2384066069 L112.79299999999999,106.0836929613 L114.616,108.05186568629999 L116.439,110.202015209 L118.262,112.2984132559 L120.085,114.17274712499999 L121.908,116.051334057 L123.731,117.900963965 L125.55399999999999,120.087219277 L127.377,121.859027183 L129.2,123.753902441 L131.023,125.831568913 L132.846,127.763545358 L134.66899999999998,129.73081317600003 L136.492,131.40851075400002 L138.315,133.164935241 L140.13799999999998,135.59189581500002 L141.961,137.01712434 L143.784,139.258578979 L145.607,141.072012607 L147.43,143.36052241000002 L149.253,145.041839616 L151.076,147.18556429900002 L152.899,149.07501011500003 L154.72199999999998,150.95450195400002 L156.545,152.87652442200002 L158.368,154.965049778 L160.19099999999997,156.930507782 L162.014,158.92673262400004 L163.837,160.84061092900004 L165.66,162.828691608 L167.483,164.800483961 L169.30599999999998,166.79037445400002 L171.12900000000002,168.68615461900004 L172.952,170.699572694 L174.77499999999998,172.51029160100003 L176.598,174.52280476900003 L178.421,176.43306344600003 L180.24399999999997,180.25991514900002 L182.067,182.28057248000002 L183.89,184.080432503 L185.71299999999997,185.966258691 L187.536,187.89461550800002 L189.35899999999998,189.944229863 L191.18200000000002,191.75766349100002 L193.005,193.77651100800003 L194.82799999999997,195.66324210300002 L196.651,197.60788724600002 L198.474,199.51362138800002 L200.29699999999997,201.44016839100001 L202.12,203.35314178900003 L203.94299999999998,205.24892195400002 L205.76600000000002,207.19990144600004 L207.589,209.178028148 L209.41199999999998,210.988747055 L211.235,212.865524173 L213.058,214.937761203 L214.88099999999997,216.80186962300002 L216.704,218.67593202000003 L218.527,220.52013248600002 L220.34999999999997,222.43672551200004 L222.173,224.372321585 L223.99599999999998,226.291629332 L225.81900000000002,228.170216264 L227.642,230.08590438300004 L229.46499999999997,232.01335629300004 L231.288,233.958001436 L233.111,235.915315277 L234.93399999999997,237.93144807300004 L236.757,239.85256563400003 L238.57999999999998,241.748345799 L240.40300000000002,243.760858967 L242.226,247.571422344 L244.04899999999998,249.508828231 L245.872,251.36388758100003 L247.695,253.35830260900002 L249.51799999999997,255.274895635 L251.341,257.074755658 L253.164,258.991348684 L254.98699999999997,260.87265033700004 L256.81,262.825439643 L258.633,264.777324042 L260.456,266.573564437 L262.279,268.415050182 L264.102,270.40041614 L265.925,272.385782098 L267.748,274.245365983 L269.57099999999997,276.06603886700003 L271.394,278.127417013 L273.217,282.115342162 L275.03999999999996,284.10070812 L276.863,285.83812955999997 L278.686,287.77915507499995 L280.509,289.72380021799995 L282.332,291.599672429 L284.155,293.492737873 L285.978,295.297122431 L287.801,297.09245791899997 L289.62399999999997,299.07148952800003 L291.447,301.196211164 L293.27,303.135426865 L295.093,304.813124443 L296.916,304.813124443 L298.73900000000003,305.738844304 L300.562,307.40387318399996 L302.385,309.387429328 L304.208,311.399037589 L306.031,313.102072563 L307.854,314.906457121 L309.677,316.636639305 L311.5,318.675394776 L313.323,320.65352147799996 L315.146,322.437998082 L316.969,324.361830364 L318.79200000000003,326.326383461 L320.615,328.19139678799996 L322.438,330.03107271899995 L324.261,331.850840696 L326.084,333.679657743 L327.907,335.475898138 L329.73,337.47212298 L331.553,339.433961356 L333.376,341.266398031 L335.199,343.095215078 L337.022,344.875167147 L338.845,346.90668336199997 L340.668,348.86037757500003 L342.491,350.80230799699996 L344.314,352.57773553100003 L346.137,354.407457485 L347.96,356.36658114 L349.783,358.247882793 L351.606,360.07127039799997 L353.42900000000003,362.05754126299996 L355.252,363.926174218 L357.075,365.711555729 L358.898,367.709590385 L360.721,369.691336715 L362.544,371.698420441 L364.367,373.678356957 L366.19,375.61847756500003 L368.013,377.43462591400004 L369.836,379.391034848 L371.659,381.362827201 L373.482,383.23869941199996 L375.305,385.214111393 L377.128,387.18771356 L378.951,389.080779004 L380.774,390.907786237 L382.597,392.72393458600004 L384.42,394.684868055 L386.243,396.63584754699997 L388.066,398.44928117499995 L389.889,398.58049268999997 L391.712,399.38314519899996 L393.535,401.182100315 L395.358,403.192803669 L397.181,405.197172674 L399.004,406.954502068 L400.827,408.71454618300004 L402.65,410.38047996999995 L404.473,412.268115972 L406.296,414.24443285999996 L408.119,418.20159117099996 L409.942,419.983353054 L411.765,421.958765035 L413.588,423.897980736 L415.411,425.87429762399995 L417.234,427.762838533 L419.057,429.65499907 L420.88,431.601454027 L422.703,433.52528630899997 L424.526,435.36043770500004 L426.349,437.391049013 L428.172,439.361031552 L429.995,441.36992509199996 L431.818,443.154401696 L433.641,444.955166626 L435.464,446.78488858000003 L437.287,448.568460277 L439.11,450.36108104399995 L440.933,452.22247474299996 L442.75600000000003,454.115540187 L444.579,455.995032026 L446.402,457.829278515 L448.225,459.76125496 L450.048,461.692326498 L451.871,463.596250826 L453.694,465.254945357 L455.517,467.097336009 L457.34,468.965968964 L459.163,470.89251596699995 L460.986,472.77200780600003 L462.809,474.65059473800005 L464.632,476.381681829 L466.455,477.990606475 L468.278,479.671923681 L470.101,481.47992786699996 L471.924,483.355800078 L473.747,485.214479056 L475.57,487.11659357 L477.393,490.93168148200004 L479.216,491.562401661 "/>
                        </g>
                    </g>
                </g>
            </g>
            <g fill="none" stroke="black" stroke-width="1" fill-rule="evenodd" stroke-linecap="square" stroke-linejoin="bevel" id="LegendItem_1">
                <g fill="none" stroke="none" transform="matrix(1,0,0,1,47.2656,31)" font-family="Segoe UI" font-size="12" font-weight="400" font-style="normal">
                    <rect vector-effect="non-scaling-stroke" x="0" y="0" width="102" height="90"/>
                </g>
                <g fill="none" stroke="black" stroke-width="1" fill-rule="evenodd" stroke-linecap="square" stroke-linejoin="bevel" id="ItemSample_1">
                    <g fill="none" stroke="#ff0000" stroke-opacity="1" stroke-width="1" stroke-linecap="square" stroke-linejoin="bevel" font-family="Segoe UI" font-size="12" font-weight="400" font-style="normal">
                        <polyline fill="none" vector-effect="non-scaling-stroke" points="56.2656,51.0 76.2656,51.0"/>
                    </g>
                </g>
                <g fill="none" stroke="black" stroke-width="1" fill-rule="evenodd" stroke-linecap="square" stroke-linejoin="bevel" id="LabelItem_1">
                    <g fill="none" stroke="black" stroke-width="1" fill-rule="evenodd" stroke-linecap="square" stroke-linejoin="bevel" id="QGraphicsTextItem_1">
                        


                        


                        


                        <g fill="none" stroke="#969696" stroke-opacity="1" stroke-width="1" stroke-linecap="square" stroke-linejoin="bevel" transform="matrix(1,0,0,1,81.2656,40)" font-family="Segoe UI" font-size="12" font-weight="400" font-style="normal">
                            <text fill="#969696" fill-opacity="1" stroke="none" xml:space="preserve" x="4" y="16.9531" font-family="&quot;Segoe UI&quot;" font-size="12" font-weight="400" font-style="normal">velocity_x</text>
                        </g>
                        


                        

                    </g>
                </g>
                <g fill="none" stroke="black" stroke-width="1" fill-rule="evenodd" stroke-linecap="square" stroke-linejoin="bevel" id="ItemSample_2">
                    <g fill="none" stroke="#00ff00" stroke-opacity="1" stroke-width="1" stroke-linecap="square" stroke-linejoin="bevel" font-family="Segoe UI" font-size="12" font-weight="400" font-style="normal">
                        <polyline fill="none" vector-effect="non-scaling-stroke" points="56.2656,75.0 76.2656,75.0"/>
                    </g>
                </g>
                <g fill="none" stroke="black" stroke-width="1" fill-rule="evenodd" stroke-linecap="square" stroke-linejoin="bevel" id="LabelItem_2">
                    <g fill="none" stroke="black" stroke-width="1" fill-rule="evenodd" stroke-linecap="square" stroke-linejoin="bevel" id="QGraphicsTextItem_2">
                        


                        


                        


                        <g fill="none" stroke="#969696" stroke-opacity="1" stroke-width="1" stroke-linecap="square" stroke-linejoin="bevel" transform="matrix(1,0,0,1,81.2656,64)" font-family="Segoe UI" font-size="12" font-weight="400" font-style="normal">
                            <text fill="#969696" fill-opacity="1" stroke="none" xml:space="preserve" x="4" y="16.9531" font-family="&quot;Segoe UI&quot;" font-size="12" font-weight="400" font-style="normal">velocity_y</text>
                        </g>
                        


                        

                    </g>
                </g>
                <g fill="none" stroke="black" stroke-width="1" fill-rule="evenodd" stroke-linecap="square" stroke-linejoin="bevel" id="ItemSample_3">
                    <g fill="none" stroke="#0000ff" stroke-opacity="1" stroke-width="1" stroke-linecap="square" stroke-linejoin="bevel" font-family="Segoe UI" font-size="12" font-weight="400" font-style="normal">
                        <polyline fill="none" vector-effect="non-scaling-stroke" points="56.2656,99.0 76.2656,99.0"/>
                    </g>
                </g>
                <g fill="none" stroke="black" stroke-width="1" fill-rule="evenodd" stroke-linecap="square" stroke-linejoin="bevel" id="LabelItem_3">
                    <g fill="none" stroke="black" stroke-width="1" fill-rule="evenodd" stroke-linecap="square" stroke-linejoin="bevel" id="QGraphicsTextItem_3">
                        


                        


                        


                        <g fill="none" stroke="#969696" stroke-opacity="1" stroke-width="1" stroke-linecap="square" stroke-linejoin="bevel" transform="matrix(1,0,0,1,81.2656,88)" font-family="Segoe UI" font-size="12" font-weight="400" font-style="normal">
                            <text fill="#969696" fill-opacity="1" stroke="none" xml:space="preserve" x="4" y="16.9531" font-family="&quot;Segoe UI&quot;" font-size="12" font-weight="400" font-style="normal">velocity_z</text>
                        </g>
                        


                        

                    </g>
                </g>
            </g>
            <g fill="none" stroke="black" stroke-width="1" fill-rule="evenodd" stroke-linecap="square" stroke-linejoin="bevel" id="QGraphicsRectItem_1">
                <g fill="none" stroke="none" transform="matrix(1,0,0,1,17.2656,1)" font-family="Segoe UI" font-size="12" font-weight="400" font-style="normal">
                    <rect vector-effect="non-scaling-stroke" x="0" y="0" width="482.734" height="512"/>
                </g>
            </g>
        </g>
    </g>
    <g fill="none" stroke="black" stroke-width="1" fill-rule="evenodd" stroke-linecap="square" stroke-linejoin="bevel" id="AxisItem_1">
        <g fill="none" stroke="#969696" stroke-opacity="1" stroke-width="1" stroke-linecap="square" stroke-linejoin="bevel" font-family="Segoe UI" font-size="12" font-weight="400" font-style="normal">
            <polyline fill="none" vector-effect="non-scaling-stroke" points="17.2656,513.0 499.9996,513.0"/>
            <polyline fill="none" vector-effect="non-scaling-stroke" points="38.05,513.0 38.05,508.0"/>
            <polyline fill="none" vector-effect="non-scaling-stroke" points="402.6496,513.0 402.6496,508.0"/>
        </g>
        <g fill="none" stroke="#969696" stroke-opacity="0.498039" stroke-width="1" stroke-linecap="square" stroke-linejoin="bevel" font-family="Segoe UI" font-size="12" font-weight="400" font-style="normal">
            <polyline fill="none" vector-effect="non-scaling-stroke" points="220.3496,513.0 220.3496,509.66667"/>
        </g>
        <g fill="none" stroke="#969696" stroke-opacity="0.333333" stroke-width="1" stroke-linecap="square" stroke-linejoin="bevel" font-family="Segoe UI" font-size="12" font-weight="400" font-style="normal">
            <polyline fill="none" vector-effect="non-scaling-stroke" points="74.50999999999999,513.0 74.50999999999999,510.5"/>
            <polyline fill="none" vector-effect="non-scaling-stroke" points="110.9699,513.0 110.9699,510.5"/>
            <polyline fill="none" vector-effect="non-scaling-stroke" points="147.4296,513.0 147.4296,510.5"/>
            <polyline fill="none" vector-effect="non-scaling-stroke" points="183.8896,513.0 183.8896,510.5"/>
            <polyline fill="none" vector-effect="non-scaling-stroke" points="256.8096,513.0 256.8096,510.5"/>
            <polyline fill="none" vector-effect="non-scaling-stroke" points="293.2696,513.0 293.2696,510.5"/>
            <polyline fill="none" vector-effect="non-scaling-stroke" points="329.7296,513.0 329.7296,510.5"/>
            <polyline fill="none" vector-effect="non-scaling-stroke" points="366.1896,513.0 366.1896,510.5"/>
            <polyline fill="none" vector-effect="non-scaling-stroke" points="439.1096,513.0 439.1096,510.5"/>
            <polyline fill="none" vector-effect="non-scaling-stroke" points="475.5696,513.0 475.5696,510.5"/>
        </g>
        <g fill="none" stroke="#969696" stroke-opacity="1" stroke-width="1" stroke-linecap="square" stroke-linejoin="bevel" transform="matrix(1,0,0,1,17.2656,513)" font-family="Segoe UI" font-size="12" font-weight="400" font-style="normal">
            <text fill="#969696" fill-opacity="1" stroke="none" xml:space="preserve" x="17.5469" y="14.9063" font-family="&quot;Segoe UI&quot;" font-size="12" font-weight="400" font-style="normal">0</text>
            <text fill="#969696" fill-opacity="1" stroke="none" xml:space="preserve" x="375.672" y="14.9063" font-family="&quot;Segoe UI&quot;" font-size="12" font-weight="400" font-style="normal">200</text>
            <text fill="#969696" fill-opacity="1" stroke="none" xml:space="preserve" x="193.375" y="14.9063" font-family="&quot;Segoe UI&quot;" font-size="12" font-weight="400" font-style="normal">100</text>
            <text fill="#969696" fill-opacity="1" stroke="none" xml:space="preserve" x="50.7656" y="14.9063" font-family="&quot;Segoe UI&quot;" font-size="12" font-weight="400" font-style="normal">20</text>
            <text fill="#969696" fill-opacity="1" stroke="none" xml:space="preserve" x="87.2344" y="14.9063" font-family="&quot;Segoe UI&quot;" font-size="12" font-weight="400" font-style="normal">40</text>
            <text fill="#969696" fill-opacity="1" stroke="none" xml:space="preserve" x="123.688" y="14.9063" font-family="&quot;Segoe UI&quot;" font-size="12" font-weight="400" font-style="normal">60</text>
            <text fill="#969696" fill-opacity="1" stroke="none" xml:space="preserve" x="160.141" y="14.9063" font-family="&quot;Segoe UI&quot;" font-size="12" font-weight="400" font-style="normal">80</text>
            <text fill="#969696" fill-opacity="1" stroke="none" xml:space="preserve" x="229.828" y="14.9063" font-family="&quot;Segoe UI&quot;" font-size="12" font-weight="400" font-style="normal">120</text>
            <text fill="#969696" fill-opacity="1" stroke="none" xml:space="preserve" x="266.297" y="14.9063" font-family="&quot;Segoe UI&quot;" font-size="12" font-weight="400" font-style="normal">140</text>
            <text fill="#969696" fill-opacity="1" stroke="none" xml:space="preserve" x="302.75" y="14.9063" font-family="&quot;Segoe UI&quot;" font-size="12" font-weight="400" font-style="normal">160</text>
            <text fill="#969696" fill-opacity="1" stroke="none" xml:space="preserve" x="339.219" y="14.9063" font-family="&quot;Segoe UI&quot;" font-size="12" font-weight="400" font-style="normal">180</text>
            <text fill="#969696" fill-opacity="1" stroke="none" xml:space="preserve" x="412.141" y="14.9063" font-family="&quot;Segoe UI&quot;" font-size="12" font-weight="400" font-style="normal">220</text>
            <text fill="#969696" fill-opacity="1" stroke="none" xml:space="preserve" x="448.594" y="14.9063" font-family="&quot;Segoe UI&quot;" font-size="12" font-weight="400" font-style="normal">240</text>
        </g>
    </g>
    <g fill="none" stroke="black" stroke-width="1" fill-rule="evenodd" stroke-linecap="square" stroke-linejoin="bevel" id="AxisItem_2">
        <g fill="none" stroke="#969696" stroke-opacity="1" stroke-width="1" stroke-linecap="square" stroke-linejoin="bevel" font-family="Segoe UI" font-size="12" font-weight="400" font-style="normal">
            <polyline fill="none" vector-effect="non-scaling-stroke" points="17.2656,1.0 17.2656,513.0"/>
            <polyline fill="none" vector-effect="non-scaling-stroke" points="17.2656,384.401 22.2656,384.401"/>
            <polyline fill="none" vector-effect="non-scaling-stroke" points="17.2656,203.419 22.2656,203.419"/>
            <polyline fill="none" vector-effect="non-scaling-stroke" points="17.2656,22.4378 22.2656,22.4378"/>
        </g>
        <g fill="none" stroke="#969696" stroke-opacity="0.498039" stroke-width="1" stroke-linecap="square" stroke-linejoin="bevel" font-family="Segoe UI" font-size="12" font-weight="400" font-style="normal">
            <polyline fill="none" vector-effect="non-scaling-stroke" points="17.2656,474.891 20.599,474.891"/>
            <polyline fill="none" vector-effect="non-scaling-stroke" points="17.2656,293.91 20.599,293.91"/>
            <polyline fill="none" vector-effect="non-scaling-stroke" points="17.2656,112.929 20.599,112.929"/>
        </g>
        <g fill="none" stroke="#969696" stroke-opacity="1" stroke-width="1" stroke-linecap="square" stroke-linejoin="bevel" transform="matrix(1,0,0,1,1,1)" font-family="Segoe UI" font-size="12" font-weight="400" font-style="normal">
            <text fill="#969696" fill-opacity="1" stroke="none" xml:space="preserve" x="0" y="388.313" font-family="&quot;Segoe UI&quot;" font-size="12" font-weight="400" font-style="normal">-4</text>
            <text fill="#969696" fill-opacity="1" stroke="none" xml:space="preserve" x="0" y="207.328" font-family="&quot;Segoe UI&quot;" font-size="12" font-weight="400" font-style="normal">-2</text>
            <text fill="#969696" fill-opacity="1" stroke="none" xml:space="preserve" x="4.79688" y="26.3594" font-family="&quot;Segoe UI&quot;" font-size="12" font-weight="400" font-style="normal">0</text>
            <text fill="#969696" fill-opacity="1" stroke="none" xml:space="preserve" x="0" y="478.813" font-family="&quot;Segoe UI&quot;" font-size="12" font-weight="400" font-style="normal">-5</text>
            <text fill="#969696" fill-opacity="1" stroke="none" xml:space="preserve" x="0" y="297.828" font-family="&quot;Segoe UI&quot;" font-size="12" font-weight="400" font-style="normal">-3</text>
            <text fill="#969696" fill-opacity="1" stroke="none" xml:space="preserve" x="0" y="116.844" font-family="&quot;Segoe UI&quot;" font-size="12" font-weight="400" font-style="normal">-1</text>
        </g>
    </g>
</g>

</svg>
