<?xml version="1.0" encoding="UTF-8" standalone="no"?>
<svg xmlns="http://www.w3.org/2000/svg" xmlns:xlink="http://www.w3.org/1999/xlink"  version="1.2" baseProfile="tiny" viewBox ="0 0 501.000000 534.000000">
<title>pyqtgraph SVG export</title>
<desc>Generated with Qt and pyqtgraph</desc>
<style>
    image {
        image-rendering: crisp-edges;
        image-rendering: -moz-crisp-edges;
        image-rendering: pixelated;
    }
</style>
<rect width="100%" height="100%" style="fill:rgba(255, 255, 255, 1.000000)" />
<defs>
</defs>
<g fill="none" stroke="black" stroke-width="1" fill-rule="evenodd" stroke-linecap="square" stroke-linejoin="bevel" id="PlotItem_1">
    <g fill="none" stroke="black" stroke-width="1" fill-rule="evenodd" stroke-linecap="square" stroke-linejoin="bevel" id="ViewBox_1">
        <g fill="none" stroke="none" font-family="Segoe UI" font-size="12" font-weight="400" font-style="normal">
            <path vector-effect="non-scaling-stroke" fill-rule="evenodd" d="M26.3281,1.0 L500.00010000000003,1.0 L500.00010000000003,513.0 L26.3281,513.0 L26.3281,1.0 "/>
        </g>
        <clipPath id="ViewBox_1_clip">
            <path vector-effect="none" fill-rule="evenodd" d="M26.3281,1.0 L500.0,1.0 L500.0,513.0 L26.3281,513.0 L26.3281,1.0 " stroke-width="1.0"/>
        </clipPath>
        <g clip-path="url(#ViewBox_1_clip)">
            <g fill="none" stroke="black" stroke-width="1" fill-rule="evenodd" stroke-linecap="square" stroke-linejoin="bevel" id="ChildGroup_1">
                <g id="PlotDataItem_1">
                    <g fill="none" stroke="black" stroke-width="1" fill-rule="evenodd" stroke-linecap="square" stroke-linejoin="bevel" id="PlotCurveItem_1">
                        <g fill="none" stroke="#ff0000" stroke-opacity="1" stroke-width="1" stroke-linecap="square" stroke-linejoin="bevel" font-family="Segoe UI" font-size="12" font-weight="400" font-style="normal">
                            <path vector-effect="non-scaling-stroke" fill-rule="evenodd" d="M46.9062,464.046 L48.69346,476.676268 L50.48072,478.029511 L52.26798,476.676268 L54.05524,476.676268 L55.8425,478.480592 L57.62976,475.323025 L59.41702,476.676268 L61.20428,476.225187 L62.99154,462.692757 L64.7788,473.06762 L66.56606,476.225187 L68.35332,473.06762 L70.14058,474.871944 L71.92784,471.714377 L73.7151,478.029511 L75.50236,477.127349 L77.28962,477.57842999999997 L79.07688,474.420863 L80.86413999999999,478.931673 L82.6514,479.83383499999997 L84.43866,478.480592 L86.22592,478.931673 L88.01318,478.931673 L89.80044000000001,476.225187 L91.5877,476.676268 L93.37496,478.931673 L95.16221999999999,477.57842999999997 L96.94948,477.57842999999997 L98.73674,476.676268 L100.524,477.57842999999997 L102.31126,473.06762 L104.09852000000001,476.676268 L105.88578000000001,477.127349 L107.67304,478.029511 L109.4603,476.676268 L111.24756000000001,478.029511 L113.03482,477.57842999999997 L114.82208,473.06762 L116.60934,478.029511 L118.3966,477.57842999999997 L120.18386,473.969782 L121.97112,481.187078 L123.75838,481.187078 L125.54564,472.165458 L127.3329,473.969782 L129.12016,470.361134 L130.90742,476.676268 L132.69468,477.57842999999997 L134.48194,477.57842999999997 L136.2692,465.399243 L138.05646000000002,471.714377 L139.84372000000002,469.458972 L141.63098000000002,491.561941 L143.41824,466.752486 L145.2055,484.795726 L146.99276,472.165458 L148.78002,481.638159 L150.56727999999998,475.323025 L152.35454,470.812215 L154.1418,478.480592 L155.92906,472.616539 L157.71632,483.442483 L159.50358,472.165458 L161.29084,483.89356399999997 L163.0781,471.26329599999997 L164.86536,482.991402 L166.65262,472.616539 L168.43988000000002,482.08924 L170.22714000000002,473.969782 L172.01440000000002,481.638159 L173.80166,473.06762 L175.58892000000003,479.83383499999997 L177.37617999999998,475.323025 L179.16343999999998,478.029511 L180.95069999999998,474.871944 L182.73796,478.029511 L184.52522,475.774106 L186.31248,475.774106 L188.09974,477.127349 L189.887,477.127349 L191.67426,477.127349 L193.46152,476.225187 L195.24878,476.676268 L197.03604,478.480592 L198.82330000000002,474.871944 L200.61056000000002,476.225187 L202.39782000000002,474.871944 L204.18508000000003,477.127349 L205.97234000000003,474.420863 L207.75959999999998,477.127349 L209.54685999999998,474.871944 L211.33411999999998,478.480592 L213.12138,476.225187 L214.90864,477.127349 L216.6959,476.225187 L218.48316,477.127349 L220.27042,475.774106 L222.05768,474.871944 L223.84494,476.225187 L225.6322,476.676268 L227.41946000000002,477.57842999999997 L229.20672000000002,477.127349 L230.99398000000002,478.029511 L232.78124000000003,475.774106 L234.56850000000003,478.029511 L236.35576000000003,476.676268 L238.14301999999998,478.029511 L239.93027999999998,476.225187 L241.71753999999999,478.029511 L243.5048,476.676268 L245.29206,477.127349 L247.07932,477.127349 L248.86658,478.029511 L250.65384,477.57842999999997 L252.4411,477.127349 L254.22836,476.676268 L256.01562,476.676268 L257.80288,478.029511 L259.59014,477.127349 L261.3774,477.127349 L263.16466,477.127349 L264.95192000000003,477.127349 L266.73918000000003,476.676268 L268.52644,476.676268 L270.3137,476.676268 L272.10096,475.774106 L273.88822,477.57842999999997 L275.67548,476.676268 L277.46274,476.676268 L279.25,476.676268 L281.03726,476.225187 L282.82452,476.676268 L284.61178,475.774106 L286.39904,476.225187 L288.1863,475.774106 L289.97356,476.676268 L291.76082,476.676268 L293.54808,475.774106 L295.33534000000003,478.931673 L297.12260000000003,475.323025 L298.90986,478.029511 L300.69712,478.029511 L302.48438,475.774106 L304.27164000000005,478.029511 L306.05890000000005,477.57842999999997 L307.84616,476.676268 L309.63342,477.127349 L311.42068,477.127349 L313.20794,477.57842999999997 L314.9952,476.676268 L316.78246,477.127349 L318.56972,475.774106 L320.35698,476.676268 L322.14424,476.225187 L323.9315,475.323025 L325.71876000000003,476.225187 L327.50602000000003,473.51870099999996 L329.29328000000004,475.774106 L331.08054000000004,476.225187 L332.86780000000005,476.225187 L334.65506000000005,475.774106 L336.44232000000005,477.127349 L338.22958,475.774106 L340.01684,475.323025 L341.8041,476.676268 L343.59136,476.676268 L345.37862,476.676268 L347.16588,476.676268 L348.95314,476.676268 L350.7404,476.225187 L352.52766,477.57842999999997 L354.31492000000003,476.225187 L356.10218000000003,477.127349 L357.88944000000004,476.225187 L359.67670000000004,475.323025 L361.46396000000004,476.676268 L363.25122000000005,475.774106 L365.03848000000005,477.127349 L366.82574000000005,476.676268 L368.613,476.676268 L370.40026,476.676268 L372.18752,477.57842999999997 L373.97478,475.774106 L375.76204,478.029511 L377.5493,476.225187 L379.33656,477.127349 L381.12382,477.57842999999997 L382.91108,477.57842999999997 L384.69834000000003,475.774106 L386.48560000000003,478.029511 L388.27286000000004,476.676268 L390.06012000000004,476.676268 L391.84738000000004,475.774106 L393.63464000000005,478.480592 L395.42190000000005,476.225187 L397.20916000000005,478.480592 L398.99642,476.676268 L400.78368,479.382754 L402.57094,476.225187 L404.3582,476.225187 L406.14546,475.323025 L407.93272,476.676268 L409.71998,475.323025 L411.50724,478.480592 L413.2945,476.225187 L415.08176000000003,477.57842999999997 L416.86902000000003,477.127349 L418.65628000000004,476.676268 L420.44354000000004,478.029511 L422.23080000000004,476.225187 L424.01806000000005,476.676268 L425.80532000000005,475.774106 L427.59258000000005,476.225187 L429.37984,476.225187 L431.1671,477.57842999999997 L432.95436,476.676268 L434.74162,475.774106 L436.52888,476.225187 L438.31614,476.676268 L440.1034,475.323025 L441.89066,475.323025 L443.67792000000003,475.323025 L445.46518000000003,475.774106 L447.25244000000004,476.225187 L449.03970000000004,477.127349 L450.82696000000004,477.57842999999997 L452.61422000000005,477.57842999999997 L454.40148000000005,477.127349 L456.18874000000005,475.774106 L457.97600000000006,477.57842999999997 L459.76326,476.676268 L461.55052,476.225187 L463.33778,477.57842999999997 L465.12504,477.127349 L466.9123,477.57842999999997 L468.69956,477.127349 L470.48682,476.225187 L472.27408,476.225187 L474.06134000000003,476.225187 L475.84860000000003,476.676268 L477.63586000000004,476.225187 L479.42312000000004,476.676268 "/>
                        </g>
                    </g>
                </g>
                <g id="PlotDataItem_2">
                    <g fill="none" stroke="black" stroke-width="1" fill-rule="evenodd" stroke-linecap="square" stroke-linejoin="bevel" id="PlotCurveItem_2">
                        <g fill="none" stroke="#00ff00" stroke-opacity="1" stroke-width="1" stroke-linecap="square" stroke-linejoin="bevel" font-family="Segoe UI" font-size="12" font-weight="400" font-style="normal">
                            <path vector-effect="non-scaling-stroke" fill-rule="evenodd" d="M46.9062,464.046 L48.69346,468.55681 L50.48072,467.203567 L52.26798,469.007891 L54.05524,467.203567 L55.8425,470.361134 L57.62976,467.654648 L59.41702,469.007891 L61.20428,466.301405 L62.99154,467.203567 L64.7788,458.63302799999997 L66.56606,475.774106 L68.35332,462.241676 L70.14058,472.165458 L71.92784,466.752486 L73.7151,468.55681 L75.50236,467.203567 L77.28962,465.850324 L79.07688,469.910053 L80.86413999999999,468.105729 L82.6514,468.55681 L84.43866,467.203567 L86.22592,466.752486 L88.01318,472.616539 L89.80044000000001,467.654648 L91.5877,467.203567 L93.37496,469.458972 L95.16221999999999,466.752486 L96.94948,470.812215 L98.73674,464.046 L100.524,472.616539 L102.31126,466.752486 L104.09852000000001,468.55681 L105.88578000000001,469.007891 L107.67304,467.654648 L109.4603,468.105729 L111.24756000000001,469.910053 L113.03482,468.105729 L114.82208,468.55681 L116.60934,466.301405 L118.3966,469.007891 L120.18386,472.616539 L121.97112,467.203567 L123.75838,472.165458 L125.54564,464.046 L127.3329,472.616539 L129.12016,466.752486 L130.90742,465.850324 L132.69468,470.812215 L134.48194,467.203567 L136.2692,477.127349 L138.05646000000002,467.654648 L139.84372000000002,464.497081 L141.63098000000002,459.986271 L143.41824,469.007891 L145.2055,459.084109 L146.99276,474.871944 L148.78002,469.007891 L150.56727999999998,463.594919 L152.35454,473.969782 L154.1418,471.26329599999997 L155.92906,464.046 L157.71632,472.616539 L159.50358,468.55681 L161.29084,464.497081 L163.0781,468.105729 L164.86536,475.323025 L166.65262,467.654648 L168.43988000000002,464.046 L170.22714000000002,465.850324 L172.01440000000002,472.616539 L173.80166,471.714377 L175.58892000000003,466.752486 L177.37617999999998,464.046 L179.16343999999998,468.55681 L180.95069999999998,471.26329599999997 L182.73796,469.910053 L184.52522,464.94816199999997 L186.31248,468.55681 L188.09974,469.458972 L189.887,469.007891 L191.67426,465.850324 L193.46152,467.654648 L195.24878,470.361134 L197.03604,469.458972 L198.82330000000002,467.654648 L200.61056000000002,467.203567 L202.39782000000002,468.105729 L204.18508000000003,468.55681 L205.97234000000003,468.105729 L207.75959999999998,468.105729 L209.54685999999998,467.203567 L211.33411999999998,467.654648 L213.12138,468.55681 L214.90864,469.007891 L216.6959,469.007891 L218.48316,466.752486 L220.27042,467.654648 L222.05768,467.654648 L223.84494,469.007891 L225.6322,468.105729 L227.41946000000002,468.55681 L229.20672000000002,467.654648 L230.99398000000002,467.654648 L232.78124000000003,467.203567 L234.56850000000003,468.105729 L236.35576000000003,467.654648 L238.14301999999998,468.105729 L239.93027999999998,469.007891 L241.71753999999999,468.105729 L243.5048,467.654648 L245.29206,468.105729 L247.07932,469.007891 L248.86658,468.55681 L250.65384,469.007891 L252.4411,467.654648 L254.22836,467.654648 L256.01562,468.105729 L257.80288,469.007891 L259.59014,468.105729 L261.3774,466.752486 L263.16466,467.203567 L264.95192000000003,469.007891 L266.73918000000003,469.007891 L268.52644,468.105729 L270.3137,466.752486 L272.10096,467.654648 L273.88822,469.007891 L275.67548,468.105729 L277.46274,467.654648 L279.25,468.105729 L281.03726,468.55681 L282.82452,468.105729 L284.61178,469.007891 L286.39904,467.654648 L288.1863,467.203567 L289.97356,467.654648 L291.76082,468.55681 L293.54808,469.007891 L295.33534000000003,467.654648 L297.12260000000003,468.55681 L298.90986,467.654648 L300.69712,467.654648 L302.48438,468.55681 L304.27164000000005,469.458972 L306.05890000000005,468.105729 L307.84616,468.55681 L309.63342,467.654648 L311.42068,467.654648 L313.20794,468.55681 L314.9952,468.105729 L316.78246,469.007891 L318.56972,468.55681 L320.35698,468.55681 L322.14424,468.105729 L323.9315,468.105729 L325.71876000000003,468.105729 L327.50602000000003,465.399243 L329.29328000000004,467.203567 L331.08054000000004,467.654648 L332.86780000000005,467.203567 L334.65506000000005,467.654648 L336.44232000000005,468.55681 L338.22958,468.55681 L340.01684,467.654648 L341.8041,467.654648 L343.59136,468.105729 L345.37862,468.55681 L347.16588,468.105729 L348.95314,467.654648 L350.7404,467.654648 L352.52766,468.105729 L354.31492000000003,467.654648 L356.10218000000003,468.105729 L357.88944000000004,469.007891 L359.67670000000004,469.007891 L361.46396000000004,467.203567 L363.25122000000005,467.203567 L365.03848000000005,467.203567 L366.82574000000005,467.203567 L368.613,468.105729 L370.40026,467.654648 L372.18752,468.105729 L373.97478,468.105729 L375.76204,468.105729 L377.5493,467.654648 L379.33656,467.654648 L381.12382,468.105729 L382.91108,467.654648 L384.69834000000003,468.105729 L386.48560000000003,467.654648 L388.27286000000004,467.654648 L390.06012000000004,469.007891 L391.84738000000004,469.007891 L393.63464000000005,468.105729 L395.42190000000005,467.203567 L397.20916000000005,468.105729 L398.99642,467.654648 L400.78368,467.203567 L402.57094,466.752486 L404.3582,466.752486 L406.14546,467.654648 L407.93272,468.105729 L409.71998,467.654648 L411.50724,469.007891 L413.2945,467.203567 L415.08176000000003,467.654648 L416.86902000000003,467.654648 L418.65628000000004,467.654648 L420.44354000000004,468.55681 L422.23080000000004,469.007891 L424.01806000000005,467.654648 L425.80532000000005,467.654648 L427.59258000000005,468.105729 L429.37984,468.105729 L431.1671,468.55681 L432.95436,467.203567 L434.74162,468.105729 L436.52888,468.105729 L438.31614,468.55681 L440.1034,469.007891 L441.89066,468.55681 L443.67792000000003,467.654648 L445.46518000000003,468.105729 L447.25244000000004,466.752486 L449.03970000000004,468.105729 L450.82696000000004,468.55681 L452.61422000000005,468.55681 L454.40148000000005,468.105729 L456.18874000000005,468.105729 L457.97600000000006,468.105729 L459.76326,467.654648 L461.55052,467.654648 L463.33778,467.654648 L465.12504,469.007891 L466.9123,467.654648 L468.69956,468.105729 L470.48682,469.007891 L472.27408,467.203567 L474.06134000000003,468.55681 L475.84860000000003,467.654648 L477.63586000000004,467.654648 L479.42312000000004,468.105729 "/>
                        </g>
                    </g>
                </g>
                <g id="PlotDataItem_3">
                    <g fill="none" stroke="black" stroke-width="1" fill-rule="evenodd" stroke-linecap="square" stroke-linejoin="bevel" id="PlotCurveItem_3">
                        <g fill="none" stroke="#0000ff" stroke-opacity="1" stroke-width="1" stroke-linecap="square" stroke-linejoin="bevel" font-family="Segoe UI" font-size="12" font-weight="400" font-style="normal">
                            <path vector-effect="non-scaling-stroke" fill-rule="evenodd" d="M46.9062,464.046 L48.69346,31.910401999999976 L50.48072,32.81256399999995 L52.26798,31.45932099999999 L54.05524,31.45932099999999 L55.8425,31.00824 L57.62976,31.45932099999999 L59.41702,31.00824 L61.20428,31.910401999999976 L62.99154,30.557159000000013 L64.7788,34.16580700000003 L66.56606,32.81256399999995 L68.35332,39.12769800000001 L70.14058,32.81256399999995 L71.92784,31.45932099999999 L73.7151,32.361482999999964 L75.50236,31.00824 L77.28962,31.45932099999999 L79.07688,29.65499699999998 L80.86413999999999,32.81256399999995 L82.6514,31.45932099999999 L84.43866,31.45932099999999 L86.22592,31.45932099999999 L88.01318,31.00824 L89.80044000000001,31.00824 L91.5877,31.45932099999999 L93.37496,33.26364499999994 L95.16221999999999,31.45932099999999 L96.94948,31.00824 L98.73674,31.910401999999976 L100.524,31.00824 L102.31126,30.557159000000013 L104.09852000000001,31.910401999999976 L105.88578000000001,31.00824 L107.67304,31.00824 L109.4603,31.00824 L111.24756000000001,31.45932099999999 L113.03482,32.361482999999964 L114.82208,31.910401999999976 L116.60934,32.361482999999964 L118.3966,32.81256399999995 L120.18386,31.910401999999976 L121.97112,33.26364499999994 L123.75838,31.910401999999976 L125.54564,33.71472600000004 L127.3329,30.106078000000025 L129.12016,32.81256399999995 L130.90742,31.45932099999999 L132.69468,31.45932099999999 L134.48194,35.067969000000005 L136.2692,28.752834999999948 L138.05646000000002,30.557159000000013 L139.84372000000002,25.144186999999988 L141.63098000000002,35.51904999999999 L143.41824,22.437701000000004 L145.2055,29.203915999999936 L146.99276,33.26364499999994 L148.78002,32.361482999999964 L150.56727999999998,31.45932099999999 L152.35454,32.361482999999964 L154.1418,33.26364499999994 L155.92906,32.81256399999995 L157.71632,34.61688800000002 L159.50358,27.850672999999972 L161.29084,35.51904999999999 L163.0781,31.00824 L164.86536,31.910401999999976 L166.65262,29.65499699999998 L168.43988000000002,33.71472600000004 L170.22714000000002,31.45932099999999 L172.01440000000002,32.361482999999964 L173.80166,30.557159000000013 L175.58892000000003,32.361482999999964 L177.37617999999998,31.910401999999976 L179.16343999999998,31.910401999999976 L180.95069999999998,30.106078000000025 L182.73796,31.45932099999999 L184.52522,32.361482999999964 L186.31248,31.45932099999999 L188.09974,31.45932099999999 L189.887,31.45932099999999 L191.67426,32.81256399999995 L193.46152,32.361482999999964 L195.24878,30.106078000000025 L197.03604,30.557159000000013 L198.82330000000002,30.557159000000013 L200.61056000000002,31.00824 L202.39782000000002,31.00824 L204.18508000000003,31.45932099999999 L205.97234000000003,30.557159000000013 L207.75959999999998,31.45932099999999 L209.54685999999998,32.361482999999964 L211.33411999999998,31.910401999999976 L213.12138,31.910401999999976 L214.90864,31.45932099999999 L216.6959,31.00824 L218.48316,32.81256399999995 L220.27042,31.45932099999999 L222.05768,32.361482999999964 L223.84494,31.45932099999999 L225.6322,30.557159000000013 L227.41946000000002,31.910401999999976 L229.20672000000002,31.00824 L230.99398000000002,31.910401999999976 L232.78124000000003,30.557159000000013 L234.56850000000003,31.910401999999976 L236.35576000000003,31.910401999999976 L238.14301999999998,31.45932099999999 L239.93027999999998,31.00824 L241.71753999999999,31.00824 L243.5048,32.361482999999964 L245.29206,31.910401999999976 L247.07932,31.910401999999976 L248.86658,31.910401999999976 L250.65384,31.910401999999976 L252.4411,31.45932099999999 L254.22836,31.910401999999976 L256.01562,30.557159000000013 L257.80288,31.45932099999999 L259.59014,31.00824 L261.3774,31.45932099999999 L263.16466,31.910401999999976 L264.95192000000003,31.00824 L266.73918000000003,31.910401999999976 L268.52644,30.557159000000013 L270.3137,31.45932099999999 L272.10096,31.00824 L273.88822,31.910401999999976 L275.67548,31.45932099999999 L277.46274,32.361482999999964 L279.25,33.26364499999994 L281.03726,31.910401999999976 L282.82452,34.16580700000003 L284.61178,30.557159000000013 L286.39904,31.45932099999999 L288.1863,30.557159000000013 L289.97356,32.361482999999964 L291.76082,31.00824 L293.54808,31.910401999999976 L295.33534000000003,26.948510999999996 L297.12260000000003,33.26364499999994 L298.90986,32.361482999999964 L300.69712,32.361482999999964 L302.48438,31.910401999999976 L304.27164000000005,30.557159000000013 L306.05890000000005,31.45932099999999 L307.84616,31.45932099999999 L309.63342,31.00824 L311.42068,31.00824 L313.20794,31.45932099999999 L314.9952,31.00824 L316.78246,32.361482999999964 L318.56972,30.557159000000013 L320.35698,31.45932099999999 L322.14424,30.557159000000013 L323.9315,31.45932099999999 L325.71876000000003,31.45932099999999 L327.50602000000003,34.61688800000002 L329.29328000000004,31.910401999999976 L331.08054000000004,31.910401999999976 L332.86780000000005,31.45932099999999 L334.65506000000005,32.81256399999995 L336.44232000000005,31.45932099999999 L338.22958,31.45932099999999 L340.01684,31.45932099999999 L341.8041,31.00824 L343.59136,31.00824 L345.37862,29.65499699999998 L347.16588,31.910401999999976 L348.95314,31.45932099999999 L350.7404,32.361482999999964 L352.52766,32.81256399999995 L354.31492000000003,31.45932099999999 L356.10218000000003,32.361482999999964 L357.88944000000004,31.45932099999999 L359.67670000000004,30.106078000000025 L361.46396000000004,31.00824 L363.25122000000005,32.81256399999995 L365.03848000000005,31.45932099999999 L366.82574000000005,32.81256399999995 L368.613,31.45932099999999 L370.40026,31.45932099999999 L372.18752,31.910401999999976 L373.97478,31.45932099999999 L375.76204,31.910401999999976 L377.5493,31.45932099999999 L379.33656,31.910401999999976 L381.12382,31.910401999999976 L382.91108,31.00824 L384.69834000000003,31.45932099999999 L386.48560000000003,31.45932099999999 L388.27286000000004,31.45932099999999 L390.06012000000004,31.00824 L391.84738000000004,31.45932099999999 L393.63464000000005,31.910401999999976 L395.42190000000005,32.81256399999995 L397.20916000000005,31.45932099999999 L398.99642,31.45932099999999 L400.78368,32.361482999999964 L402.57094,33.71472600000004 L404.3582,31.00824 L406.14546,32.361482999999964 L407.93272,31.00824 L409.71998,31.910401999999976 L411.50724,31.45932099999999 L413.2945,31.00824 L415.08176000000003,31.45932099999999 L416.86902000000003,31.45932099999999 L418.65628000000004,31.910401999999976 L420.44354000000004,31.45932099999999 L422.23080000000004,31.00824 L424.01806000000005,32.361482999999964 L425.80532000000005,31.45932099999999 L427.59258000000005,31.910401999999976 L429.37984,31.45932099999999 L431.1671,32.361482999999964 L432.95436,31.00824 L434.74162,31.910401999999976 L436.52888,31.00824 L438.31614,31.45932099999999 L440.1034,31.45932099999999 L441.89066,31.910401999999976 L443.67792000000003,30.557159000000013 L445.46518000000003,31.00824 L447.25244000000004,32.81256399999995 L449.03970000000004,30.557159000000013 L450.82696000000004,31.00824 L452.61422000000005,29.65499699999998 L454.40148000000005,31.45932099999999 L456.18874000000005,31.910401999999976 L457.97600000000006,31.45932099999999 L459.76326,30.557159000000013 L461.55052,31.910401999999976 L463.33778,31.45932099999999 L465.12504,31.45932099999999 L466.9123,32.361482999999964 L468.69956,31.910401999999976 L470.48682,31.00824 L472.27408,31.45932099999999 L474.06134000000003,31.910401999999976 L475.84860000000003,32.361482999999964 L477.63586000000004,31.910401999999976 L479.42312000000004,31.00824 "/>
                        </g>
                    </g>
                </g>
            </g>
            <g fill="none" stroke="black" stroke-width="1" fill-rule="evenodd" stroke-linecap="square" stroke-linejoin="bevel" id="LegendItem_1">
                <g fill="none" stroke="none" transform="matrix(1,0,0,1,56.3281,31)" font-family="Segoe UI" font-size="12" font-weight="400" font-style="normal">
                    <rect vector-effect="non-scaling-stroke" x="0" y="0" width="117.188" height="90"/>
                </g>
                <g fill="none" stroke="black" stroke-width="1" fill-rule="evenodd" stroke-linecap="square" stroke-linejoin="bevel" id="ItemSample_1">
                    <g fill="none" stroke="#ff0000" stroke-opacity="1" stroke-width="1" stroke-linecap="square" stroke-linejoin="bevel" font-family="Segoe UI" font-size="12" font-weight="400" font-style="normal">
                        <polyline fill="none" vector-effect="non-scaling-stroke" points="65.3281,51.0 85.3281,51.0"/>
                    </g>
                </g>
                <g fill="none" stroke="black" stroke-width="1" fill-rule="evenodd" stroke-linecap="square" stroke-linejoin="bevel" id="LabelItem_1">
                    <g fill="none" stroke="black" stroke-width="1" fill-rule="evenodd" stroke-linecap="square" stroke-linejoin="bevel" id="QGraphicsTextItem_1">
                        


                        


                        


                        <g fill="none" stroke="#969696" stroke-opacity="1" stroke-width="1" stroke-linecap="square" stroke-linejoin="bevel" transform="matrix(1,0,0,1,90.3281,40)" font-family="Segoe UI" font-size="12" font-weight="400" font-style="normal">
                            <text fill="#969696" fill-opacity="1" stroke="none" xml:space="preserve" x="4" y="16.9531" font-family="&quot;Segoe UI&quot;" font-size="12" font-weight="400" font-style="normal">acc_raw_0[0]</text>
                        </g>
                        


                        

                    </g>
                </g>
                <g fill="none" stroke="black" stroke-width="1" fill-rule="evenodd" stroke-linecap="square" stroke-linejoin="bevel" id="ItemSample_2">
                    <g fill="none" stroke="#00ff00" stroke-opacity="1" stroke-width="1" stroke-linecap="square" stroke-linejoin="bevel" font-family="Segoe UI" font-size="12" font-weight="400" font-style="normal">
                        <polyline fill="none" vector-effect="non-scaling-stroke" points="65.3281,75.0 85.3281,75.0"/>
                    </g>
                </g>
                <g fill="none" stroke="black" stroke-width="1" fill-rule="evenodd" stroke-linecap="square" stroke-linejoin="bevel" id="LabelItem_2">
                    <g fill="none" stroke="black" stroke-width="1" fill-rule="evenodd" stroke-linecap="square" stroke-linejoin="bevel" id="QGraphicsTextItem_2">
                        


                        


                        


                        <g fill="none" stroke="#969696" stroke-opacity="1" stroke-width="1" stroke-linecap="square" stroke-linejoin="bevel" transform="matrix(1,0,0,1,90.3281,64)" font-family="Segoe UI" font-size="12" font-weight="400" font-style="normal">
                            <text fill="#969696" fill-opacity="1" stroke="none" xml:space="preserve" x="4" y="16.9531" font-family="&quot;Segoe UI&quot;" font-size="12" font-weight="400" font-style="normal">acc_raw_0[1]</text>
                        </g>
                        


                        

                    </g>
                </g>
                <g fill="none" stroke="black" stroke-width="1" fill-rule="evenodd" stroke-linecap="square" stroke-linejoin="bevel" id="ItemSample_3">
                    <g fill="none" stroke="#0000ff" stroke-opacity="1" stroke-width="1" stroke-linecap="square" stroke-linejoin="bevel" font-family="Segoe UI" font-size="12" font-weight="400" font-style="normal">
                        <polyline fill="none" vector-effect="non-scaling-stroke" points="65.3281,99.0 85.3281,99.0"/>
                    </g>
                </g>
                <g fill="none" stroke="black" stroke-width="1" fill-rule="evenodd" stroke-linecap="square" stroke-linejoin="bevel" id="LabelItem_3">
                    <g fill="none" stroke="black" stroke-width="1" fill-rule="evenodd" stroke-linecap="square" stroke-linejoin="bevel" id="QGraphicsTextItem_3">
                        


                        


                        


                        <g fill="none" stroke="#969696" stroke-opacity="1" stroke-width="1" stroke-linecap="square" stroke-linejoin="bevel" transform="matrix(1,0,0,1,90.3281,88)" font-family="Segoe UI" font-size="12" font-weight="400" font-style="normal">
                            <text fill="#969696" fill-opacity="1" stroke="none" xml:space="preserve" x="4" y="16.9531" font-family="&quot;Segoe UI&quot;" font-size="12" font-weight="400" font-style="normal">acc_raw_0[2]</text>
                        </g>
                        


                        

                    </g>
                </g>
            </g>
            <g fill="none" stroke="black" stroke-width="1" fill-rule="evenodd" stroke-linecap="square" stroke-linejoin="bevel" id="QGraphicsRectItem_1">
                <g fill="none" stroke="none" transform="matrix(1,0,0,1,26.3281,1)" font-family="Segoe UI" font-size="12" font-weight="400" font-style="normal">
                    <rect vector-effect="non-scaling-stroke" x="0" y="0" width="473.672" height="512"/>
                </g>
            </g>
        </g>
    </g>
    <g fill="none" stroke="black" stroke-width="1" fill-rule="evenodd" stroke-linecap="square" stroke-linejoin="bevel" id="AxisItem_1">
        <g fill="none" stroke="#969696" stroke-opacity="1" stroke-width="1" stroke-linecap="square" stroke-linejoin="bevel" font-family="Segoe UI" font-size="12" font-weight="400" font-style="normal">
            <polyline fill="none" vector-effect="non-scaling-stroke" points="26.3281,513.0 500.00010000000003,513.0"/>
            <polyline fill="none" vector-effect="non-scaling-stroke" points="46.9062,513.0 46.9062,508.0"/>
            <polyline fill="none" vector-effect="non-scaling-stroke" points="404.3571,513.0 404.3571,508.0"/>
        </g>
        <g fill="none" stroke="#969696" stroke-opacity="0.498039" stroke-width="1" stroke-linecap="square" stroke-linejoin="bevel" font-family="Segoe UI" font-size="12" font-weight="400" font-style="normal">
            <polyline fill="none" vector-effect="non-scaling-stroke" points="225.6321,513.0 225.6321,509.66667"/>
        </g>
        <g fill="none" stroke="#969696" stroke-opacity="0.333333" stroke-width="1" stroke-linecap="square" stroke-linejoin="bevel" font-family="Segoe UI" font-size="12" font-weight="400" font-style="normal">
            <polyline fill="none" vector-effect="non-scaling-stroke" points="82.65129999999999,513.0 82.65129999999999,510.5"/>
            <polyline fill="none" vector-effect="non-scaling-stroke" points="118.3964,513.0 118.3964,510.5"/>
            <polyline fill="none" vector-effect="non-scaling-stroke" points="154.1411,513.0 154.1411,510.5"/>
            <polyline fill="none" vector-effect="non-scaling-stroke" points="189.8861,513.0 189.8861,510.5"/>
            <polyline fill="none" vector-effect="non-scaling-stroke" points="261.3771,513.0 261.3771,510.5"/>
            <polyline fill="none" vector-effect="non-scaling-stroke" points="297.1221,513.0 297.1221,510.5"/>
            <polyline fill="none" vector-effect="non-scaling-stroke" points="332.8671,513.0 332.8671,510.5"/>
            <polyline fill="none" vector-effect="non-scaling-stroke" points="368.6121,513.0 368.6121,510.5"/>
            <polyline fill="none" vector-effect="non-scaling-stroke" points="440.1021,513.0 440.1021,510.5"/>
            <polyline fill="none" vector-effect="non-scaling-stroke" points="475.8471,513.0 475.8471,510.5"/>
        </g>
        <g fill="none" stroke="#969696" stroke-opacity="1" stroke-width="1" stroke-linecap="square" stroke-linejoin="bevel" transform="matrix(1,0,0,1,26.3281,513)" font-family="Segoe UI" font-size="12" font-weight="400" font-style="normal">
            <text fill="#969696" fill-opacity="1" stroke="none" xml:space="preserve" x="17.3281" y="14.9063" font-family="&quot;Segoe UI&quot;" font-size="12" font-weight="400" font-style="normal">0</text>
            <text fill="#969696" fill-opacity="1" stroke="none" xml:space="preserve" x="368.313" y="14.9063" font-family="&quot;Segoe UI&quot;" font-size="12" font-weight="400" font-style="normal">200</text>
            <text fill="#969696" fill-opacity="1" stroke="none" xml:space="preserve" x="189.594" y="14.9063" font-family="&quot;Segoe UI&quot;" font-size="12" font-weight="400" font-style="normal">100</text>
            <text fill="#969696" fill-opacity="1" stroke="none" xml:space="preserve" x="49.8438" y="14.9063" font-family="&quot;Segoe UI&quot;" font-size="12" font-weight="400" font-style="normal">20</text>
            <text fill="#969696" fill-opacity="1" stroke="none" xml:space="preserve" x="85.5938" y="14.9063" font-family="&quot;Segoe UI&quot;" font-size="12" font-weight="400" font-style="normal">40</text>
            <text fill="#969696" fill-opacity="1" stroke="none" xml:space="preserve" x="121.344" y="14.9063" font-family="&quot;Segoe UI&quot;" font-size="12" font-weight="400" font-style="normal">60</text>
            <text fill="#969696" fill-opacity="1" stroke="none" xml:space="preserve" x="157.078" y="14.9063" font-family="&quot;Segoe UI&quot;" font-size="12" font-weight="400" font-style="normal">80</text>
            <text fill="#969696" fill-opacity="1" stroke="none" xml:space="preserve" x="225.344" y="14.9063" font-family="&quot;Segoe UI&quot;" font-size="12" font-weight="400" font-style="normal">120</text>
            <text fill="#969696" fill-opacity="1" stroke="none" xml:space="preserve" x="261.078" y="14.9063" font-family="&quot;Segoe UI&quot;" font-size="12" font-weight="400" font-style="normal">140</text>
            <text fill="#969696" fill-opacity="1" stroke="none" xml:space="preserve" x="296.828" y="14.9063" font-family="&quot;Segoe UI&quot;" font-size="12" font-weight="400" font-style="normal">160</text>
            <text fill="#969696" fill-opacity="1" stroke="none" xml:space="preserve" x="332.578" y="14.9063" font-family="&quot;Segoe UI&quot;" font-size="12" font-weight="400" font-style="normal">180</text>
            <text fill="#969696" fill-opacity="1" stroke="none" xml:space="preserve" x="404.063" y="14.9063" font-family="&quot;Segoe UI&quot;" font-size="12" font-weight="400" font-style="normal">220</text>
            <text fill="#969696" fill-opacity="1" stroke="none" xml:space="preserve" x="439.813" y="14.9063" font-family="&quot;Segoe UI&quot;" font-size="12" font-weight="400" font-style="normal">240</text>
        </g>
    </g>
    <g fill="none" stroke="black" stroke-width="1" fill-rule="evenodd" stroke-linecap="square" stroke-linejoin="bevel" id="AxisItem_2">
        <g fill="none" stroke="#969696" stroke-opacity="1" stroke-width="1" stroke-linecap="square" stroke-linejoin="bevel" font-family="Segoe UI" font-size="12" font-weight="400" font-style="normal">
            <polyline fill="none" vector-effect="non-scaling-stroke" points="26.3281,1.0 26.3281,513.0"/>
            <polyline fill="none" vector-effect="non-scaling-stroke" points="26.3281,464.046 31.3281,464.046"/>
            <polyline fill="none" vector-effect="non-scaling-stroke" points="26.3281,12.9651 31.3281,12.9651"/>
        </g>
        <g fill="none" stroke="#969696" stroke-opacity="0.498039" stroke-width="1" stroke-linecap="square" stroke-linejoin="bevel" font-family="Segoe UI" font-size="12" font-weight="400" font-style="normal">
            <polyline fill="none" vector-effect="non-scaling-stroke" points="26.3281,373.83 29.6615,373.83"/>
            <polyline fill="none" vector-effect="non-scaling-stroke" points="26.3281,283.614 29.6615,283.614"/>
            <polyline fill="none" vector-effect="non-scaling-stroke" points="26.3281,193.398 29.6615,193.398"/>
            <polyline fill="none" vector-effect="non-scaling-stroke" points="26.3281,103.181 29.6615,103.181"/>
        </g>
        <g fill="none" stroke="#969696" stroke-opacity="0.333333" stroke-width="1" stroke-linecap="square" stroke-linejoin="bevel" font-family="Segoe UI" font-size="12" font-weight="400" font-style="normal">
            <polyline fill="none" vector-effect="non-scaling-stroke" points="26.3281,509.154 28.8281,509.154"/>
            <polyline fill="none" vector-effect="non-scaling-stroke" points="26.3281,418.938 28.8281,418.938"/>
            <polyline fill="none" vector-effect="non-scaling-stroke" points="26.3281,328.722 28.8281,328.722"/>
            <polyline fill="none" vector-effect="non-scaling-stroke" points="26.3281,238.506 28.8281,238.506"/>
            <polyline fill="none" vector-effect="non-scaling-stroke" points="26.3281,148.289 28.8281,148.289"/>
            <polyline fill="none" vector-effect="non-scaling-stroke" points="26.3281,58.0732 28.8281,58.0732"/>
        </g>
        <g fill="none" stroke="#969696" stroke-opacity="1" stroke-width="1" stroke-linecap="square" stroke-linejoin="bevel" transform="matrix(1,0,0,1,1,1)" font-family="Segoe UI" font-size="12" font-weight="400" font-style="normal">
            <text fill="#969696" fill-opacity="1" stroke="none" xml:space="preserve" x="13.8594" y="467.953" font-family="&quot;Segoe UI&quot;" font-size="12" font-weight="400" font-style="normal">0</text>
            <text fill="#969696" fill-opacity="1" stroke="none" xml:space="preserve" x="7.39063" y="16.875" font-family="&quot;Segoe UI&quot;" font-size="12" font-weight="400" font-style="normal">10</text>
            <text fill="#969696" fill-opacity="1" stroke="none" xml:space="preserve" x="13.8594" y="377.75" font-family="&quot;Segoe UI&quot;" font-size="12" font-weight="400" font-style="normal">2</text>
            <text fill="#969696" fill-opacity="1" stroke="none" xml:space="preserve" x="13.8594" y="287.531" font-family="&quot;Segoe UI&quot;" font-size="12" font-weight="400" font-style="normal">4</text>
            <text fill="#969696" fill-opacity="1" stroke="none" xml:space="preserve" x="13.8594" y="197.313" font-family="&quot;Segoe UI&quot;" font-size="12" font-weight="400" font-style="normal">6</text>
            <text fill="#969696" fill-opacity="1" stroke="none" xml:space="preserve" x="13.8594" y="107.094" font-family="&quot;Segoe UI&quot;" font-size="12" font-weight="400" font-style="normal">8</text>
        </g>
    </g>
</g>

</svg>
