<?xml version="1.0" encoding="UTF-8" standalone="no"?>
<svg xmlns="http://www.w3.org/2000/svg" xmlns:xlink="http://www.w3.org/1999/xlink"  version="1.2" baseProfile="tiny" viewBox ="0 0 254.000000 333.000000">
<title>pyqtgraph SVG export</title>
<desc>Generated with Qt and pyqtgraph</desc>
<style>
    image {
        image-rendering: crisp-edges;
        image-rendering: -moz-crisp-edges;
        image-rendering: pixelated;
    }
</style>
<rect width="100%" height="100%" style="fill:rgba(255, 255, 255, 1.000000)" />
<defs>
</defs>
<g fill="none" stroke="black" stroke-width="1" fill-rule="evenodd" stroke-linecap="square" stroke-linejoin="bevel" id="PlotItem_1">
    <g fill="none" stroke="black" stroke-width="1" fill-rule="evenodd" stroke-linecap="square" stroke-linejoin="bevel" id="ViewBox_1">
        <g fill="none" stroke="none" font-family="Segoe UI" font-size="12" font-weight="400" font-style="normal">
            <path vector-effect="non-scaling-stroke" fill-rule="evenodd" d="M26.3281,1.0 L253.0001,1.0 L253.0001,312.0 L26.3281,312.0 L26.3281,1.0 "/>
        </g>
        <clipPath id="ViewBox_1_clip">
            <path vector-effect="none" fill-rule="evenodd" d="M26.3281,1.0 L253.0,1.0 L253.0,312.0 L26.3281,312.0 L26.3281,1.0 " stroke-width="1.0"/>
        </clipPath>
        <g clip-path="url(#ViewBox_1_clip)">
            <g fill="none" stroke="black" stroke-width="1" fill-rule="evenodd" stroke-linecap="square" stroke-linejoin="bevel" id="ChildGroup_1">
                <g id="PlotDataItem_1">
                    <g fill="none" stroke="black" stroke-width="1" fill-rule="evenodd" stroke-linecap="square" stroke-linejoin="bevel" id="PlotCurveItem_1">
                        <g fill="none" stroke="#ff0000" stroke-opacity="1" stroke-width="1" stroke-linecap="square" stroke-linejoin="bevel" font-family="Segoe UI" font-size="12" font-weight="400" font-style="normal">
                            <path vector-effect="non-scaling-stroke" fill-rule="evenodd" d="M40.2387,187.429 L40.739584,187.429 L41.240468,187.489095527794 L41.741352,187.65357265336002 L42.242236,187.13137005598 L42.743120000000005,187.356656066764 L43.244004000000004,188.04798486958 L43.744888,188.8019881492 L44.245772,188.03678299906 L44.746656,187.96985289094 L45.24754,187.08702810034 L45.748424,186.60542525572 L46.249308,186.0979879426 L46.750192,185.7085986892 L47.251076,186.4123307356 L47.751960000000004,186.78655889482 L48.252844,187.387992742936 L48.753728,186.88881841168 L49.254612,187.14686961262 L49.755496,187.23821174734 L50.25638,187.80883809016 L50.757264,187.5883078705 L51.258148000000006,187.5261927001 L51.759032000000005,186.98207437732 L52.259916000000004,187.23203846194 L52.7608,186.56298813532 L53.261684,185.9574529318 L53.762568,185.810845837 L54.263452,186.48787645624 L54.764336,186.61268926732 L55.26522,186.73116462184 L55.766104,187.1272118029 L56.266988,187.21136751376 L56.767872,187.343599287028 L57.268755999999996,187.322720313748 L57.76964,186.77817267214002 L58.270524,186.64567755034 L58.771408,187.72958614936 L59.272292,187.85857070704 L59.77317600000001,188.21211217564002 L60.274060000000006,187.7354041054 L60.774944000000005,186.013361083 L61.275828000000004,185.5714370584 L61.776712,187.30864792174 L62.277596,186.88723404754 L62.77848,186.64864500028 L63.279364,186.40662747448 L63.780248,186.51568772542 L64.281132,186.33831090718002 L64.782016,187.76942914054 L65.2829,187.339826611282 L65.783784,187.15800738892 L66.284668,187.68529591888 L66.785552,187.20999904594 L67.28643600000001,187.47387213853 L67.78732,186.97574366752 L68.28820400000001,186.33837837478 L68.78908799999999,185.7764486056 L69.289972,186.34519260238 L69.790856,186.58071187384002 L70.29174,187.00022203726 L70.792624,187.14115060906 L71.293508,187.14115060906 L71.794392,187.339847076454 L72.295276,187.28037337504 L72.79616,188.9670138988 L73.297044,189.14075421340002 L73.797928,188.6972109664 L74.298812,188.6503097398 L74.79969600000001,189.7882407706 L75.30058,189.7381460776 L75.80146400000001,189.156901459 L76.302348,189.3304843492 L76.80323200000001,188.7693450754 L77.304116,189.357786238 L77.805,189.9019349212 L78.30588399999999,189.9693912766 L78.806768,191.1635790412 L79.307652,191.2604400256 L79.808536,190.4979774334 L80.30942,189.2921402632 L80.810304,188.08168381132 L81.311188,188.16887556418 L81.812072,187.1854588309 L82.312956,186.51378289018 L82.81384,186.81829228048 L83.314724,187.97059840792 L83.815608,187.79703463354 L84.31649200000001,188.6734623712 L84.817376,189.093987922 L85.31826000000001,190.5108187666 L85.819144,190.326958312 L86.32002800000001,190.6149662518 L86.82091199999999,190.8956876908 L87.321796,192.0568950436 L87.82267999999999,191.5415550256 L88.323564,190.7393765062 L88.824448,190.4158918534 L89.325332,191.89119461800001 L89.826216,192.7471560592 L90.3271,192.1388681776 L90.827984,191.8264707004 L91.328868,192.4397736736 L91.829752,193.490120515 L92.330636,192.5614964686 L92.83152,191.4154468366 L93.332404,191.320137607 L93.83328800000001,191.6797174258 L94.334172,191.37529237 L94.83505600000001,190.4075371156 L95.33594,189.87147329980002 L95.83682400000001,189.7317479002 L96.33770799999999,189.6626385886 L96.838592,189.6163783042 L97.33947599999999,189.468601771 L97.84036,188.8720869856 L98.341244,188.5733741866 L98.842128,188.7867966946 L99.343012,187.90497717124 L99.843896,186.82851699526 L100.34478,186.34668813418 L100.845664,186.2928343714 L101.346548,186.2844908782 L101.847432,185.2652353558 L102.34831600000001,185.984350015 L102.8492,187.408032644164 L103.35008400000001,186.89172514078 L103.850968,186.73755380356 L104.35185200000001,183.487430362 L104.852736,183.4493224126 L105.35362,184.1073226708 L105.85450399999999,184.1191295008 L106.355388,183.1926419284 L106.85627199999999,181.5229312744 L107.357156,180.42458123560002 L107.85803999999999,181.9712534764 L108.358924,182.6615032474 L108.85980799999999,182.591854195 L109.360692,181.4459394982 L109.86157600000001,181.00205891320002 L110.36246,180.2172533008 L110.86334400000001,179.190362695 L111.364228,178.9399679422 L111.86511200000001,180.7677776722 L112.365996,179.98541213800002 L112.86688000000001,179.4471443806 L113.367764,179.8773740212 L113.86864800000001,180.4231531714 L114.36953199999999,178.5507473578 L114.870416,181.1157305746 L115.37129999999999,180.8401816516 L115.872184,185.05245379000002 L116.37306799999999,187.73598207784 L116.873952,186.94556316112 L117.37483599999999,188.32308175966 L117.87572,191.1457675948 L118.37660400000001,193.789845328 L118.877488,195.1046651614 L119.37837200000001,194.9298453652 L119.879256,195.3273981982 L120.38014000000001,197.0663868328 L120.881024,198.1155080128 L121.38190800000001,198.1135851862 L121.882792,197.35024551520002 L122.38367600000001,197.198645818 L122.88456,198.0012403876 L123.385444,199.594645186 L123.88632799999999,200.338700368 L124.387212,199.973813098 L124.88809599999999,200.772292144 L125.38898,201.2092573 L125.88986399999999,201.551767816 L126.390748,200.580459268 L126.89163199999999,199.402362526 L127.392516,200.576860996 L127.89340000000001,210.200551906 L128.394284,218.304085342 L128.895168,194.4586966252 L129.396052,189.254279695 L129.896936,201.560988388 L130.39782,196.6400590684 L130.898704,187.343900754754 L131.399588,193.6187924728 L131.900472,195.4210319824 L132.401356,188.80521534940002 L132.90224,193.5525055558 L133.403124,201.512636608 L133.904008,196.5975994588 L134.404892,195.5505922636 L134.905776,196.4556138946 L135.40666,198.88983365800001 L135.907544,196.1625233956 L136.408428,199.1346286 L136.909312,201.120087622 L137.410196,202.797669496 L137.91108,212.422822204 L138.411964,201.201723418 L138.912848,206.03431516 L139.413732,206.311831888 L139.914616,203.591200918 L140.4155,205.777713388 L140.916384,204.12329539 L141.417268,203.781122212 L141.918152,206.626793134 L142.419036,205.908488086 L142.91992,206.568096322 L143.420804,206.782305952 L143.921688,205.335688162 L144.422572,205.903540462 L144.923456,208.040801584 L145.42434,208.673310334 L145.92522400000001,207.528385162 L146.426108,206.391106318 L146.926992,206.213329192 L147.427876,207.389739244 L147.92876,208.214980438 L148.429644,207.80758858000002 L148.930528,207.36230242 L149.431412,207.27740569 L149.932296,208.018537276 L150.43318,208.887182626 L150.934064,209.089135642 L151.434948,208.694675074 L151.935832,208.8724522 L152.436716,208.635865816 L152.9376,208.235782948 L153.438484,208.305836806 L153.939368,208.883359462 L154.440252,209.58198646 L154.941136,210.767504638 L155.44202,211.916590312 L155.942904,211.935368794 L156.443788,209.908866982 L156.944672,209.128154404 L157.445556,209.068220686 L157.94644,209.426473642 L158.447324,209.697918286 L158.948208,208.79598892 L159.449092,207.374334142 L159.949976,206.123597284 L160.45086,205.643340418 L160.951744,206.677056496 L161.452628,206.832569314 L161.953512,205.37987944 L162.454396,204.092597632 L162.95528,203.618637742 L163.456164,202.987253452 L163.95704800000001,202.101853648 L164.457932,198.1381658818 L164.958816,200.297095348 L165.4597,199.341754132 L165.960584,201.138753658 L166.461468,203.11409254 L166.962352,204.08618821 L167.463236,205.02904792 L167.96412,205.21064821 L168.465004,205.023313174 L168.965888,204.892763368 L169.466772,202.811500354 L169.967656,202.38488023 L170.46854,203.266231978 L170.969424,205.07222718399998 L171.470308,206.708316484 L171.971192,208.189792534 L172.472076,208.39399447 L172.97296,208.373529298 L173.47384399999999,206.380423948 L173.974728,205.017465982 L174.47561199999998,205.59262727200002 L174.976496,206.741937838 L175.47737999999998,208.346879596 L175.978264,209.420851342 L176.47914799999998,210.678784744 L176.980032,209.141085694 L177.48091599999998,207.59675233000002 L177.9818,206.045672206 L178.482684,207.279991948 L178.983568,207.334303366 L179.484452,206.106730384 L179.985336,202.905280318 L180.48622,195.5971561522 L180.987104,213.152034514 L181.487988,232.66670047600002 L181.988872,218.76882466 L182.489756,207.619129084 L182.99063999999998,202.693881838 L183.491524,206.754644236 L183.99240799999998,197.5239071176 L184.493292,210.561278674 L184.99417599999998,190.7732452414 L185.49506,199.283507104 L185.99594399999998,197.6226571948 L186.496828,187.10157074152 L186.997712,192.306626365 L187.498596,194.8717557616 L187.99948,184.8566178364 L188.500364,182.8942664674 L189.001248,187.2133679281 L189.502132,187.2924287107 L190.003016,181.8570083404 L190.5039,178.5904520404 L191.004784,181.5309036958 L191.505668,184.3416376456 L192.006552,179.9392642996 L192.50743599999998,175.517257882 L193.00832,176.3195713366 L193.50920399999998,177.3697719982 L194.010088,175.00596592 L194.51097199999998,171.157164232 L195.011856,170.378700574 L195.51273999999998,170.803184224 L196.013624,169.136959396 L196.514508,188.27172767146 L197.015392,166.029626632 L197.516276,167.12012794 L198.01716,165.67294792 L198.518044,152.774379706 L199.018928,165.99566794 L199.519812,157.749890314 L200.020696,145.218345844 L200.52158,152.973409126 L201.02246399999999,147.859365046 L201.523348,150.648700522 L202.02423199999998,148.181635282 L202.525116,147.301970224 L203.02599999999998,144.55592645800002 L203.526884,144.849185626 L204.02776799999998,145.283227186 L204.528652,143.770041364 L205.02953599999998,147.906817258 L205.53042,146.815866166 L206.031304,145.037082892 L206.532188,144.603041332 L207.033072,144.174284734 L207.533956,143.662880326 L208.03484,141.30814864 L208.535724,140.128140316 L209.036608,140.990038906 L209.537492,139.764939736 L210.038376,137.5254652 L210.53925999999998,137.120322262 L211.040144,136.63129460800002 L211.54102799999998,135.535845676 L212.041912,135.154316398 L212.54279599999998,132.81555204400001 L213.04368,131.175189796 L213.54456399999998,127.92988579 L214.045448,127.311657682 L214.546332,124.553469748 L215.047216,125.26232933200001 L215.5481,119.211834964 L216.048984,121.22416858 L216.549868,123.72890323000001 L217.050752,116.76849583 L217.551636,114.91426129 L218.05252,124.2174811 L218.553404,108.519907054 L219.05428799999999,111.17711848 L219.555172,118.990653682 L220.05605599999998,115.88961789400001 L220.55694,107.912473762 L221.05782399999998,110.917480666 L221.558708,107.10376213 L222.05959199999998,104.529760744 L222.560476,100.101974602 L223.06135999999998,103.395630388 L223.562244,107.53499254 L224.063128,86.819403298 L224.564012,105.28449829600001 L225.064896,99.05600191 L225.56578,96.49504426 L226.066664,98.40100396 L226.567548,106.648693168 L227.068432,94.683089416 L227.569316,96.899400076 L228.0702,109.615580878 L228.57108399999998,105.32036857 L229.071968,98.235595894 L229.57285199999998,93.85301304400001 L230.073736,97.37403464200001 L230.57461999999998,98.654457244 L231.075504,89.033465038 L231.57638799999998,89.13770248 L232.077272,91.301388412 L232.57815599999998,81.594037678 L233.07904,79.58080449399999 L233.579924,84.67235937400001 L234.080808,82.39397852200001 L234.581692,82.513621066 L235.082576,78.421261342 L235.58346,75.259954498 L236.084344,79.193990254 L236.585228,74.14302837999999 L237.08611199999999,75.942389272 L237.586996,73.68874654000001 L238.08787999999998,72.14036512000001 L238.588764,73.02306622 L239.08964799999998,69.72277612 "/>
                        </g>
                    </g>
                </g>
                <g id="PlotDataItem_2">
                    <g fill="none" stroke="black" stroke-width="1" fill-rule="evenodd" stroke-linecap="square" stroke-linejoin="bevel" id="PlotCurveItem_2">
                        <g fill="none" stroke="#00ff00" stroke-opacity="1" stroke-width="1" stroke-linecap="square" stroke-linejoin="bevel" font-family="Segoe UI" font-size="12" font-weight="400" font-style="normal">
                            <path vector-effect="non-scaling-stroke" fill-rule="evenodd" d="M40.2387,187.429 L40.739584,187.429 L41.240468,187.91329142848 L41.741352,188.12274909052 L42.242236,187.00407556168 L42.743120000000005,186.99290292712 L43.244004000000004,189.0668659468 L43.744888,187.350491552152 L44.245772,189.5718721774 L44.746656,187.93406582698 L45.24754,189.8051976274 L45.748424,189.602524957 L46.249308,190.5353432392 L46.750192,190.5554823178 L47.251076,189.2804683684 L47.751960000000004,189.5444353534 L48.252844,188.52099571534 L48.753728,190.6071287656 L49.254612,187.73853797542 L49.755496,188.6144394658 L50.25638,187.444713991162 L50.757264,187.64739711904 L51.258148000000006,187.404484747972 L51.759032000000005,188.7210270292 L52.259916000000004,188.30906199238 L52.7608,188.6076364828 L53.261684,188.714932456 L53.762568,188.7045424456 L54.263452,189.5400724486 L54.764336,189.4680620302 L55.26522,190.3565540992 L55.766104,189.345866962 L56.266988,189.1511329792 L56.767872,189.8739583564 L57.268755999999996,191.2566281062 L57.76964,191.8627570246 L58.270524,193.0866755116 L58.771408,193.1980757638 L59.272292,193.908869419 L59.77317600000001,194.2991807296 L60.274060000000006,194.8119007558 L60.774944000000005,194.4337448578 L61.275828000000004,194.6727825646 L61.776712,193.9384876954 L62.277596,194.647639639 L62.77848,194.1034234882 L63.279364,194.1188510794 L63.780248,194.3403584548 L64.281132,193.0609366222 L64.782016,193.6904093302 L65.2829,193.9880763814 L65.783784,195.006454825 L66.284668,195.100009897 L66.785552,194.3810414176 L67.28643600000001,193.4777851888 L67.78732,193.13386909780002 L68.28820400000001,192.91438575040002 L68.78908799999999,192.3604430206 L69.289972,192.1104530734 L69.790856,192.8029292752 L70.29174,192.753261877 L70.792624,193.2472483996 L71.293508,193.2472483996 L71.794392,193.3036625578 L72.295276,193.5077520478 L72.79616,193.4237548858 L73.297044,195.03104676520002 L73.797928,194.01572685280001 L74.298812,195.13502558140001 L74.79969600000001,193.8019670068 L75.30058,193.6534820638 L75.80146400000001,192.48821541040002 L76.302348,191.59903742080002 L76.80323200000001,190.929893764 L77.304116,193.0034429824 L77.805,193.3313242738 L78.30588399999999,193.669921669 L78.806768,192.2266885036 L79.307652,192.8492682718 L79.808536,193.0519971652 L80.30942,193.67589255160001 L80.810304,195.8184161464 L81.311188,194.8373023072 L81.812072,196.1960323036 L82.312956,194.9666152072 L82.81384,195.0798595738 L83.314724,194.1307928446 L83.815608,195.4444544842 L84.31649200000001,193.8482497804 L84.817376,194.4451468822 L85.31826000000001,193.8916876702 L85.819144,196.0658310802 L86.32002800000001,195.5680213936 L86.82091199999999,196.671217855 L87.321796,194.8365938974 L87.82267999999999,196.706750791 L88.323564,195.04341582520001 L88.824448,197.27838127660002 L89.325332,196.0309728202 L89.826216,197.345387848 L90.3271,195.0634761916 L90.827984,194.85212269000002 L91.328868,194.7186155542 L91.829752,194.9251788562 L92.330636,195.390289246 L92.83152,195.23548483780002 L93.332404,195.5768821384 L93.83328800000001,195.1243094776 L94.334172,195.7565708464 L94.83505600000001,195.6159233896 L95.33594,195.7580663782 L95.83682400000001,196.2696506998 L96.33770799999999,196.6580166946 L96.838592,196.5656535502 L97.33947599999999,197.4326684332 L97.84036,197.1548930794 L98.341244,197.2834076128 L98.842128,197.7533194468 L99.343012,197.411674765 L99.843896,197.8905935236 L100.34478,198.88106287 L100.845664,199.060864024 L101.346548,200.150240872 L101.847432,199.485122782 L102.34831600000001,200.216696458 L102.8492,199.951099006 L103.35008400000001,200.69031901 L103.850968,199.412820004 L104.35185200000001,201.279198712 L104.852736,198.4337639266 L105.35362,200.334202528 L105.85450399999999,199.721259382 L106.355388,200.749015822 L106.85627199999999,199.722271396 L107.357156,198.1844936338 L107.85803999999999,199.52144284 L108.358924,199.044446908 L108.85980799999999,198.3844226218 L109.360692,198.48386986420002 L109.86157600000001,199.861929328 L110.36246,199.527290032 L110.86334400000001,199.24988575 L111.364228,198.95134162 L111.86511200000001,198.4851629932 L112.365996,201.969279814 L112.86688000000001,200.39795941 L113.367764,202.22858029 L113.86864800000001,198.70564711 L114.36953199999999,199.926360886 L114.870416,196.8852250822 L115.37129999999999,198.3756855676 L115.872184,195.3983741134 L116.37306799999999,197.1944403376 L116.873952,193.995565285 L117.37483599999999,196.1338833994 L117.87572,194.545988455 L118.37660400000001,196.5001762444 L118.877488,194.3168572408 L119.37837200000001,195.7321025968 L119.879256,193.57727740960001 L120.38014000000001,194.77979742280002 L120.881024,193.1614183678 L121.38190800000001,194.9400667066 L121.882792,195.9984871708 L122.38367600000001,199.56529678 L122.88456,196.96258793020002 L123.385444,199.991804458 L123.88632799999999,197.9168159308 L124.387212,199.990792444 L124.88809599999999,199.927822684 L125.38898,201.76923838 L125.88986399999999,202.635747256 L126.390748,202.89763399 L126.89163199999999,203.718714682 L127.392516,208.822301284 L127.89340000000001,295.528737208 L128.394284,220.596746836 L128.895168,206.661876286 L129.396052,212.455094206 L129.896936,210.602658802 L130.39782,213.990656782 L130.898704,215.300315344 L131.399588,213.786679738 L131.900472,215.968806814 L132.401356,210.553857238 L132.90224,217.26204826 L133.403124,210.77110291 L133.904008,218.585987464 L134.404892,209.552413162 L134.905776,220.800836326 L135.40666,211.580601664 L135.907544,220.975352518 L136.408428,211.82269790200002 L136.909312,223.121384428 L137.410196,222.251389726 L137.91108,241.484940688 L138.411964,219.948270754 L138.912848,227.339796118 L139.413732,221.40905674 L139.914616,229.782460576 L140.4155,222.90065293 L140.916384,228.423888004 L141.417268,224.63569471 L141.918152,229.12903687 L142.419036,227.62338493000001 L142.91992,228.11027611 L143.420804,228.92101177 L143.921688,230.065824496 L144.422572,229.498646872 L144.923456,231.648839284 L145.42434,230.82820837600002 L145.92522400000001,232.54908196 L146.426108,232.85718400000002 L146.926992,233.373648478 L147.427876,234.573784636 L147.92876,235.124432698 L148.429644,236.729037118 L148.930528,235.2579061 L149.431412,236.561267686 L149.932296,234.963747364 L150.43318,236.70058828 L150.934064,235.16007808 L151.434948,235.13758888 L151.935832,234.683981716 L152.436716,233.708850004 L152.9376,234.358113208 L153.438484,232.393006912 L153.939368,233.967475804 L154.440252,233.224095298 L154.941136,234.504293008 L155.44202,234.588065278 L155.942904,235.689473848 L156.443788,236.005447108 L156.944672,234.767529094 L157.445556,235.292427022 L157.94644,234.30099064 L158.447324,235.145347654 L158.948208,234.438062314 L159.449092,235.100594146 L159.949976,234.74121673 L160.45086,234.28311172600002 L160.951744,234.395107942 L161.452628,234.668801506 L161.953512,234.81453152199998 L162.454396,234.324716746 L162.95528,235.28995321 L163.456164,234.640802452 L163.95704800000001,234.907749256 L164.457932,235.58231281 L164.958816,234.14480314600002 L165.4597,234.94609334199998 L165.960584,234.020775208 L166.461468,235.613347906 L166.962352,235.874897302 L167.463236,234.87165409 L167.96412,234.626634256 L168.465004,232.976826544 L168.965888,231.561468742 L169.466772,229.884336652 L169.967656,231.047140738 L170.46854,230.767599982 L170.969424,232.616324668 L171.470308,232.248738694 L171.971192,233.61765629799999 L172.472076,234.326740774 L172.97296,233.3744356 L173.47384399999999,232.89339161200002 L173.974728,231.93771305799999 L174.47561199999998,232.576293892 L174.976496,232.711678876 L175.47737999999998,233.10006736 L175.978264,233.209927102 L176.47914799999998,233.74831855 L176.980032,233.068357588 L177.48091599999998,232.703920102 L177.9818,232.396042954 L178.482684,232.979075464 L178.983568,233.911702588 L179.484452,233.767097032 L179.985336,233.106139444 L180.48622,237.753982408 L180.987104,231.343773286 L181.487988,269.16127466800003 L181.988872,262.947283816 L182.489756,239.685917134 L182.99063999999998,228.260054182 L183.491524,238.781851294 L183.99240799999998,224.885662168 L184.493292,249.910069684 L184.99417599999998,221.116584694 L185.49506,238.97402150800002 L185.99594399999998,222.281862592 L186.496828,239.386136098 L186.997712,224.58790516 L187.498596,238.98065582200002 L187.99948,224.537079568 L188.500364,234.93833456800002 L189.001248,223.23967762 L189.502132,236.167819132 L190.003016,221.108038798 L190.5039,232.374903106 L191.004784,217.99350949 L191.505668,228.383407444 L192.006552,219.077376484 L192.50743599999998,227.637553126 L193.00832,220.01472634 L193.50920399999998,226.669393066 L194.010088,218.81211637 L194.51097199999998,223.533611464 L195.011856,220.353413692 L195.51273999999998,223.499877664 L196.013624,219.657035614 L196.514508,233.91125280400001 L197.015392,235.94888677 L197.516276,202.778778568 L198.01716,236.23506184000001 L198.518044,204.669670504 L199.018928,234.629670298 L199.519812,211.364930236 L200.020696,227.298865774 L200.52158,225.302049706 L201.02246399999999,220.972428922 L201.523348,232.76880144400002 L202.02423199999998,217.496835508 L202.525116,233.60405033199999 L203.02599999999998,216.263640226 L203.526884,233.461243912 L204.02776799999998,221.852318872 L204.528652,228.599753548 L205.02953599999998,221.11444821999999 L205.53042,222.808222318 L206.031304,221.008861426 L206.532188,221.680388938 L207.033072,220.114353496 L207.533956,220.734155848 L208.03484,219.136185742 L208.535724,218.518182526 L209.036608,216.432871456 L209.537492,215.650584634 L210.038376,217.11699292 L210.53925999999998,214.409630578 L211.040144,215.859059518 L211.54102799999998,212.474322472 L212.041912,215.091503122 L212.54279599999998,213.018223774 L213.04368,216.723881704 L213.54456399999998,214.667469256 L214.045448,216.936404644 L214.546332,216.48898201 L215.047216,213.552342274 L215.5481,210.752324428 L216.048984,214.816685098 L216.549868,213.914081056 L217.050752,210.164681632 L217.551636,219.15114106000001 L218.05252,218.32128957999998 L218.553404,206.669410168 L219.05428799999999,218.111352898 L219.555172,197.4321286924 L220.05605599999998,209.458408306 L220.55694,196.2447776446 L221.05782399999998,206.44957823800002 L221.558708,197.1672284056 L222.05959199999998,202.163698948 L222.560476,203.947654738 L223.06135999999998,196.2049717606 L223.562244,211.019383678 L224.063128,197.4211652074 L224.564012,214.834676458 L225.064896,195.155220883 L225.56578,215.90313835 L226.066664,194.971259227 L226.567548,211.966291444 L227.068432,202.37026225 L227.569316,203.339884108 L228.0702,215.58727753600002 L228.57108399999998,221.5170049 L229.071968,210.745577668 L229.57285199999998,192.658919683 L230.073736,210.6996997 L230.57461999999998,217.155449452 L231.075504,201.830184112 L231.57638799999998,196.0482782596 L232.077272,203.114429878 L232.57815599999998,196.092514516 L233.07904,198.42621880000002 L233.579924,199.492544218 L234.080808,191.9603601526 L234.581692,197.424830947 L235.082576,196.413154285 L235.58346,191.7728676922 L236.084344,197.6815001866 L236.585228,188.6207926648 L237.08611199999999,193.5548106988 L237.586996,190.9484136202 L238.08787999999998,187.64422389292 L238.588764,190.2729729874 L239.08964799999998,184.9790490412 "/>
                        </g>
                    </g>
                </g>
                <g id="PlotDataItem_3">
                    <g fill="none" stroke="black" stroke-width="1" fill-rule="evenodd" stroke-linecap="square" stroke-linejoin="bevel" id="PlotCurveItem_3">
                        <g fill="none" stroke="#0000ff" stroke-opacity="1" stroke-width="1" stroke-linecap="square" stroke-linejoin="bevel" font-family="Segoe UI" font-size="12" font-weight="400" font-style="normal">
                            <path vector-effect="non-scaling-stroke" fill-rule="evenodd" d="M40.2387,187.429 L40.739584,187.429 L41.240468,187.480211619118 L41.741352,188.05253218582 L42.242236,189.1087970602 L42.743120000000005,189.3281229832 L43.244004000000004,189.3591018562 L43.744888,189.6025137124 L44.245772,189.588862768 L44.746656,189.3006524254 L45.24754,189.6372370372 L45.748424,189.8453408494 L46.249308,189.844115188 L46.750192,189.3258853078 L47.251076,189.9405826114 L47.751960000000004,189.6628747252 L48.252844,190.0649928658 L48.753728,189.8616342748 L49.254612,190.4417319442 L49.755496,190.4499517468 L50.25638,190.3204251994 L50.757264,190.765329043 L51.258148000000006,190.6354764022 L51.759032000000005,191.10161005060002 L52.259916000000004,191.478461575 L52.7608,191.900640082 L53.261684,191.81551846 L53.762568,192.7541951788 L54.263452,192.3004530796 L54.764336,191.9383882042 L55.26522,191.6339631484 L55.766104,191.542724464 L56.266988,191.6293753516 L56.767872,190.8776963308 L57.268755999999996,191.428310659 L57.76964,190.9156581004 L58.270524,190.608354427 L58.771408,190.1747963848 L59.272292,190.6387935592 L59.77317600000001,190.92478871560002 L60.274060000000006,191.92817810740002 L60.774944000000005,192.3840004576 L61.275828000000004,192.6118835212 L61.776712,192.0577046548 L62.277596,191.4375087418 L62.77848,191.15868764020001 L63.279364,190.292100052 L63.780248,189.59035829980002 L64.281132,190.1557255432 L64.782016,190.69780522 L65.2829,190.4710241272 L65.783784,190.7361830398 L66.284668,191.2763286454 L66.785552,191.1104370616 L67.28643600000001,191.5058646652 L67.78732,191.3102648482 L68.28820400000001,191.6165677522 L68.78908799999999,191.96080993660001 L69.289972,192.3168252172 L69.790856,191.9065322524 L70.29174,192.0031233664 L70.792624,192.4568429764 L71.293508,192.4568429764 L71.794392,192.72395844940002 L72.295276,192.9272945512 L72.79616,193.0580804938 L73.297044,193.02752891560002 L73.797928,193.2085219972 L74.298812,192.909730486 L74.79969600000001,192.4362316246 L75.30058,192.8038850662 L75.80146400000001,193.31452484140002 L76.302348,193.8607312864 L76.80323200000001,194.520294544 L77.304116,194.09603578600002 L77.805,193.3787539966 L78.30588399999999,193.0810082332 L78.806768,193.4513941126 L79.307652,192.8186942044 L79.808536,193.408091158 L80.30942,193.261236682 L80.810304,192.8363144926 L81.311188,192.6834666448 L81.812072,192.7986675718 L82.312956,192.8037163972 L82.81384,192.7958564218 L83.314724,192.1549029772 L83.815608,191.7957729424 L84.31649200000001,191.2828280242 L84.817376,191.3606856346 L85.31826000000001,191.5953829258 L85.819144,191.66312039620001 L86.32002800000001,191.690478508 L86.82091199999999,191.5975531336 L87.321796,191.7292386442 L87.82267999999999,192.2354592916 L88.323564,192.18003465820001 L88.824448,192.1590859684 L89.325332,191.579044522 L89.826216,192.4040495794 L90.3271,193.4599175194 L90.827984,193.721871721 L91.328868,193.672789042 L91.829752,194.0253859642 L92.330636,193.5838892344 L92.83152,193.8285042628 L93.332404,194.68514038 L93.83328800000001,194.5287954616 L94.334172,194.430337744 L94.83505600000001,195.1524884452 L95.33594,195.0614521636 L95.83682400000001,194.8793233774 L96.33770799999999,194.9843142076 L96.838592,195.03052951360002 L97.33947599999999,194.852516251 L97.84036,194.9496808396 L98.341244,194.8513243234 L98.842128,195.08126514880001 L99.343012,195.2475615382 L99.843896,195.080106955 L100.34478,195.3679462258 L100.845664,195.9378787768 L101.346548,196.4830282294 L101.847432,196.9842450298 L102.34831600000001,197.0329116586 L102.8492,197.71365974260002 L103.35008400000001,197.4778155022 L103.850968,197.6310344218 L104.35185200000001,197.3057393884 L104.852736,197.5758909034 L105.35362,197.8002094288 L105.85450399999999,197.8588050394 L106.355388,196.8051185518 L106.85627199999999,196.16144391400002 L107.357156,196.1967069796 L107.85803999999999,196.5000637984 L108.358924,196.0987440244 L108.85980799999999,195.9779207974 L109.360692,196.370818366 L109.86157600000001,195.8452345174 L110.36246,195.6286410322 L110.86334400000001,195.434199409 L111.364228,195.2101282648 L111.86511200000001,194.9189381032 L112.365996,194.6603347924 L112.86688000000001,194.22589967140001 L113.367764,193.995396616 L113.86864800000001,193.4880739978 L114.36953199999999,192.4881929212 L114.870416,192.5835133954 L115.37129999999999,191.7341862682 L115.872184,192.1252172332 L116.37306799999999,192.0091392274 L116.873952,191.3576158588 L117.37483599999999,190.4862043372 L117.87572,190.14460463380001 L118.37660400000001,189.860026297 L118.877488,189.6069328402 L119.37837200000001,189.1446223558 L119.879256,188.8225657672 L120.38014000000001,187.929103585 L120.881024,188.1046992586 L121.38190800000001,188.01896593036 L121.882792,188.02401700468 L122.38367600000001,188.18088479698 L122.88456,188.1124861441 L123.385444,188.06262646324 L123.88632799999999,188.273300791 L124.387212,188.4081572788 L124.88809599999999,187.97480388832 L125.38898,187.7855493991 L125.88986399999999,187.70558679958 L126.390748,188.1324228199 L126.89163199999999,188.45408922088 L127.392516,191.5587705082 L127.89340000000001,115.587587938 L128.394284,75.200920348 L128.895168,64.36697314 L129.396052,56.634061720000005 L129.896936,57.27163053999999 L130.39782,57.703423180000016 L130.898704,57.30873771999998 L131.399588,57.39419667999999 L131.900472,57.63370666 L132.401356,58.16557624000001 L132.90224,58.88523064 L133.403124,59.526172840000015 L133.904008,59.45533186 L134.404892,59.63412099999999 L134.905776,60.07490932000002 L135.40666,60.489835060000004 L135.907544,60.80243494000001 L136.408428,61.000339900000014 L136.909312,61.3433002 L137.410196,61.81782231999999 L137.91108,57.7900066 L138.411964,57.60784408000001 L138.912848,57.82149148000002 L139.413732,58.174571920000005 L139.914616,58.90434646 L140.4155,59.85451515999999 L140.916384,60.44260774 L141.417268,60.71022922 L141.918152,61.238725419999994 L142.419036,61.80770218000001 L142.91992,61.78858636000001 L143.420804,62.32607824 L143.921688,62.46551128 L144.422572,62.75787088000001 L144.923456,62.48800048 L145.42434,62.811844960000016 L145.92522400000001,62.77361332000001 L146.426108,62.467760200000015 L146.926992,62.50599184000001 L147.427876,62.86132120000002 L147.92876,63.259380039999996 L148.429644,63.142436200000006 L148.930528,63.65294104 L149.431412,63.008625460000005 L149.932296,63.22677070000002 L150.43318,63.311105200000014 L150.934064,63.29198938000002 L151.434948,63.4460404 L151.935832,63.95879416000001 L152.436716,64.22079334000001 L152.9376,64.2387847 L153.438484,64.07911138 L153.939368,64.17019264 L154.440252,64.49965942000001 L154.941136,65.17208649999999 L155.44202,65.68933810000001 L155.942904,65.97832432000001 L156.443788,66.02330272 L156.944672,66.93299086 L157.445556,67.64364958000002 L157.94644,68.22274648000001 L158.447324,68.31270328 L158.948208,68.38804209999999 L159.449092,67.92476458 L159.949976,67.10728216 L160.45086,66.3527695 L160.951744,65.87037616 L161.452628,66.17060698 L161.953512,66.36513856 L162.454396,66.70360102 L162.95528,67.39739284 L163.456164,67.77746032000002 L163.95704800000001,68.27447164 L164.457932,68.17214578000001 L164.958816,68.16652348000001 L165.4597,68.23736446000001 L165.960584,68.83557718 L166.461468,68.93228074000001 L166.962352,68.5454665 L167.463236,69.03573105999999 L167.96412,68.73325132000001 L168.465004,69.44728341999999 L168.965888,69.95441487999999 L169.466772,69.92517892000001 L169.967656,69.66205528 L170.46854,69.48326614 L170.969424,69.48776398000001 L171.470308,69.91843216000001 L171.971192,70.10171914000001 L172.472076,69.56760064000001 L172.97296,69.38318919999999 L173.47384399999999,68.43526942 L173.974728,67.85504806 L174.47561199999998,67.54807048 L174.976496,67.79207830000001 L175.47737999999998,68.35543276 L175.978264,68.98962820000001 L176.47914799999998,69.1133188 L176.980032,69.25050292 L177.48091599999998,69.24937845999999 L177.9818,69.40342948 L178.482684,69.91168540000001 L178.983568,70.83711598000001 L179.484452,70.79101312 L179.985336,69.89931634000001 L180.48622,68.26322704 L180.987104,69.00537064 L181.487988,69.14817706000001 L181.988872,67.93151134 L182.489756,68.81421244000002 L182.99063999999998,68.23624 L183.491524,69.24712954 L183.99240799999998,68.34081478 L184.493292,68.63092546000001 L184.99417599999998,67.53682588000001 L185.49506,67.30406266000001 L185.99594399999998,67.20623463999999 L186.496828,66.48433132000001 L186.997712,66.76544632 L187.498596,66.6563737 L187.99948,65.4307123 L188.500364,64.82237944 L189.001248,64.72904926 L189.502132,63.44266702 L190.003016,63.142436200000006 L190.5039,63.53824612000001 L191.004784,62.68028314 L191.505668,62.87931256 L192.006552,62.512738600000006 L192.50743599999998,61.54232962000002 L193.00832,60.541560219999994 L193.50920399999998,60.41449624000002 L194.010088,58.929084579999994 L194.51097199999998,57.60559516000001 L195.011856,56.90055874000001 L195.51273999999998,57.290746360000014 L196.013624,56.10781444000003 L196.514508,55.9515145 L197.015392,54.854041540000026 L197.516276,54.451484859999994 L198.01716,53.23594360000001 L198.518044,51.319863760000004 L199.018928,50.238133240000025 L199.519812,49.17889192000001 L200.020696,46.94234097999998 L200.52158,47.45621920000002 L201.02246399999999,46.653354759999985 L201.523348,46.86137986 L202.02423199999998,45.670576720000014 L202.525116,45.12521362000001 L203.02599999999998,44.67093177999999 L203.526884,43.79272852 L204.02776799999998,43.46326174000001 L204.528652,43.45539052000001 L205.02953599999998,43.897303300000004 L205.53042,43.988384559999986 L206.031304,42.98536624000002 L206.532188,42.69525556000002 L207.033072,42.37590892000003 L207.533956,42.311814699999985 L208.03484,41.467345240000014 L208.535724,41.26831582 L209.036608,41.53256392 L209.537492,41.20084822000001 L210.038376,40.97708068000003 L210.53925999999998,40.68584554 L211.040144,40.169718399999994 L211.54102799999998,39.509660380000014 L212.041912,39.33986691999999 L212.54279599999998,39.373600719999985 L213.04368,38.84510452000001 L213.54456399999998,38.11645444000001 L214.045448,37.30571878000001 L214.546332,36.3634213 L215.047216,35.87315674000001 L215.5481,31.559728180000008 L216.048984,31.328089419999998 L216.549868,31.21227004000002 L217.050752,29.106156459999994 L217.551636,27.870374920000017 L218.05252,29.144388099999986 L218.553404,26.673949480000005 L219.05428799999999,26.718927880000024 L219.555172,26.777399799999984 L220.05605599999998,26.46367546000002 L220.55694,25.132314820000005 L221.05782399999998,25.10757669999998 L221.558708,23.631160719999997 L222.05959199999998,23.20274146 L222.560476,22.472966920000005 L223.06135999999998,21.88937218000001 L223.562244,21.728574400000014 L224.063128,19.479654399999987 L224.564012,19.106333680000006 L225.064896,19.27950052 L225.56578,18.746506480000022 L226.066664,18.043718979999994 L226.567548,18.30234478 L227.068432,17.622046480000023 L227.569316,17.59505944 L228.0702,17.514098320000016 L228.57108399999998,17.472493299999996 L229.071968,26.636842300000012 L229.57285199999998,25.922810200000015 L230.073736,26.296130920000024 L230.57461999999998,26.153324499999997 L231.075504,26.067865540000014 L231.57638799999998,25.175044299999996 L232.077272,24.429527320000005 L232.57815599999998,24.08656701999999 L233.07904,23.457993880000004 L233.579924,23.56144420000001 L234.080808,23.260088919999987 L234.581692,23.175754420000004 L235.082576,22.55167911999999 L235.58346,21.848891620000018 L236.084344,21.622875160000007 L236.585228,21.403605459999994 L237.08611199999999,20.71880931999999 L237.586996,20.294887899999992 L238.08787999999998,20.07224482000001 L238.588764,19.759644940000015 L239.08964799999998,19.151312079999997 "/>
                        </g>
                    </g>
                </g>
            </g>
            <g fill="none" stroke="black" stroke-width="1" fill-rule="evenodd" stroke-linecap="square" stroke-linejoin="bevel" id="LegendItem_1">
                <g fill="none" stroke="none" transform="matrix(1,0,0,1,56.3281,31)" font-family="Segoe UI" font-size="12" font-weight="400" font-style="normal">
                    <rect vector-effect="non-scaling-stroke" x="0" y="0" width="88.1563" height="90"/>
                </g>
                <g fill="none" stroke="black" stroke-width="1" fill-rule="evenodd" stroke-linecap="square" stroke-linejoin="bevel" id="ItemSample_1">
                    <g fill="none" stroke="#ff0000" stroke-opacity="1" stroke-width="1" stroke-linecap="square" stroke-linejoin="bevel" font-family="Segoe UI" font-size="12" font-weight="400" font-style="normal">
                        <polyline fill="none" vector-effect="non-scaling-stroke" points="65.3281,51.0 85.3281,51.0"/>
                    </g>
                </g>
                <g fill="none" stroke="black" stroke-width="1" fill-rule="evenodd" stroke-linecap="square" stroke-linejoin="bevel" id="LabelItem_1">
                    <g fill="none" stroke="black" stroke-width="1" fill-rule="evenodd" stroke-linecap="square" stroke-linejoin="bevel" id="QGraphicsTextItem_1">
                        


                        


                        


                        <g fill="none" stroke="#969696" stroke-opacity="1" stroke-width="1" stroke-linecap="square" stroke-linejoin="bevel" transform="matrix(1,0,0,1,90.3281,40)" font-family="Segoe UI" font-size="12" font-weight="400" font-style="normal">
                            <text fill="#969696" fill-opacity="1" stroke="none" xml:space="preserve" x="4" y="16.9531" font-family="&quot;Segoe UI&quot;" font-size="12" font-weight="400" font-style="normal">euler_x</text>
                        </g>
                        


                        

                    </g>
                </g>
                <g fill="none" stroke="black" stroke-width="1" fill-rule="evenodd" stroke-linecap="square" stroke-linejoin="bevel" id="ItemSample_2">
                    <g fill="none" stroke="#00ff00" stroke-opacity="1" stroke-width="1" stroke-linecap="square" stroke-linejoin="bevel" font-family="Segoe UI" font-size="12" font-weight="400" font-style="normal">
                        <polyline fill="none" vector-effect="non-scaling-stroke" points="65.3281,75.0 85.3281,75.0"/>
                    </g>
                </g>
                <g fill="none" stroke="black" stroke-width="1" fill-rule="evenodd" stroke-linecap="square" stroke-linejoin="bevel" id="LabelItem_2">
                    <g fill="none" stroke="black" stroke-width="1" fill-rule="evenodd" stroke-linecap="square" stroke-linejoin="bevel" id="QGraphicsTextItem_2">
                        


                        


                        


                        <g fill="none" stroke="#969696" stroke-opacity="1" stroke-width="1" stroke-linecap="square" stroke-linejoin="bevel" transform="matrix(1,0,0,1,90.3281,64)" font-family="Segoe UI" font-size="12" font-weight="400" font-style="normal">
                            <text fill="#969696" fill-opacity="1" stroke="none" xml:space="preserve" x="4" y="16.9531" font-family="&quot;Segoe UI&quot;" font-size="12" font-weight="400" font-style="normal">euler_y</text>
                        </g>
                        


                        

                    </g>
                </g>
                <g fill="none" stroke="black" stroke-width="1" fill-rule="evenodd" stroke-linecap="square" stroke-linejoin="bevel" id="ItemSample_3">
                    <g fill="none" stroke="#0000ff" stroke-opacity="1" stroke-width="1" stroke-linecap="square" stroke-linejoin="bevel" font-family="Segoe UI" font-size="12" font-weight="400" font-style="normal">
                        <polyline fill="none" vector-effect="non-scaling-stroke" points="65.3281,99.0 85.3281,99.0"/>
                    </g>
                </g>
                <g fill="none" stroke="black" stroke-width="1" fill-rule="evenodd" stroke-linecap="square" stroke-linejoin="bevel" id="LabelItem_3">
                    <g fill="none" stroke="black" stroke-width="1" fill-rule="evenodd" stroke-linecap="square" stroke-linejoin="bevel" id="QGraphicsTextItem_3">
                        


                        


                        


                        <g fill="none" stroke="#969696" stroke-opacity="1" stroke-width="1" stroke-linecap="square" stroke-linejoin="bevel" transform="matrix(1,0,0,1,90.3281,88)" font-family="Segoe UI" font-size="12" font-weight="400" font-style="normal">
                            <text fill="#969696" fill-opacity="1" stroke="none" xml:space="preserve" x="4" y="16.9531" font-family="&quot;Segoe UI&quot;" font-size="12" font-weight="400" font-style="normal">euler_z</text>
                        </g>
                        


                        

                    </g>
                </g>
            </g>
            <g fill="none" stroke="black" stroke-width="1" fill-rule="evenodd" stroke-linecap="square" stroke-linejoin="bevel" id="QGraphicsRectItem_1">
                <g fill="none" stroke="none" transform="matrix(1,0,0,1,26.3281,1)" font-family="Segoe UI" font-size="12" font-weight="400" font-style="normal">
                    <rect vector-effect="non-scaling-stroke" x="0" y="0" width="226.672" height="311"/>
                </g>
            </g>
        </g>
    </g>
    <g fill="none" stroke="black" stroke-width="1" fill-rule="evenodd" stroke-linecap="square" stroke-linejoin="bevel" id="AxisItem_1">
        <g fill="none" stroke="#969696" stroke-opacity="1" stroke-width="1" stroke-linecap="square" stroke-linejoin="bevel" font-family="Segoe UI" font-size="12" font-weight="400" font-style="normal">
            <polyline fill="none" vector-effect="non-scaling-stroke" points="26.3281,312.0 253.0001,312.0"/>
            <polyline fill="none" vector-effect="non-scaling-stroke" points="40.2387,312.0 40.2387,307.0"/>
            <polyline fill="none" vector-effect="non-scaling-stroke" points="140.4151,312.0 140.4151,307.0"/>
            <polyline fill="none" vector-effect="non-scaling-stroke" points="240.59210000000002,312.0 240.59210000000002,307.0"/>
        </g>
        <g fill="none" stroke="#969696" stroke-opacity="0.498039" stroke-width="1" stroke-linecap="square" stroke-linejoin="bevel" font-family="Segoe UI" font-size="12" font-weight="400" font-style="normal">
            <polyline fill="none" vector-effect="non-scaling-stroke" points="90.327,312.0 90.327,308.66667"/>
            <polyline fill="none" vector-effect="non-scaling-stroke" points="190.5041,312.0 190.5041,308.66667"/>
        </g>
        <g fill="none" stroke="#969696" stroke-opacity="1" stroke-width="1" stroke-linecap="square" stroke-linejoin="bevel" transform="matrix(1,0,0,1,26.3281,312)" font-family="Segoe UI" font-size="12" font-weight="400" font-style="normal">
            <text fill="#969696" fill-opacity="1" stroke="none" xml:space="preserve" x="10.6719" y="14.9063" font-family="&quot;Segoe UI&quot;" font-size="12" font-weight="400" font-style="normal">0</text>
            <text fill="#969696" fill-opacity="1" stroke="none" xml:space="preserve" x="104.375" y="14.9063" font-family="&quot;Segoe UI&quot;" font-size="12" font-weight="400" font-style="normal">200</text>
            <text fill="#969696" fill-opacity="1" stroke="none" xml:space="preserve" x="204.547" y="14.9063" font-family="&quot;Segoe UI&quot;" font-size="12" font-weight="400" font-style="normal">400</text>
            <text fill="#969696" fill-opacity="1" stroke="none" xml:space="preserve" x="54.2813" y="14.9063" font-family="&quot;Segoe UI&quot;" font-size="12" font-weight="400" font-style="normal">100</text>
            <text fill="#969696" fill-opacity="1" stroke="none" xml:space="preserve" x="154.469" y="14.9063" font-family="&quot;Segoe UI&quot;" font-size="12" font-weight="400" font-style="normal">300</text>
        </g>
    </g>
    <g fill="none" stroke="black" stroke-width="1" fill-rule="evenodd" stroke-linecap="square" stroke-linejoin="bevel" id="AxisItem_2">
        <g fill="none" stroke="#969696" stroke-opacity="1" stroke-width="1" stroke-linecap="square" stroke-linejoin="bevel" font-family="Segoe UI" font-size="12" font-weight="400" font-style="normal">
            <polyline fill="none" vector-effect="non-scaling-stroke" points="26.3281,1.0 26.3281,312.0"/>
            <polyline fill="none" vector-effect="non-scaling-stroke" points="26.3281,187.429 31.3281,187.429"/>
        </g>
        <g fill="none" stroke="#969696" stroke-opacity="0.498039" stroke-width="1" stroke-linecap="square" stroke-linejoin="bevel" font-family="Segoe UI" font-size="12" font-weight="400" font-style="normal">
            <polyline fill="none" vector-effect="non-scaling-stroke" points="26.3281,299.875 29.6615,299.875"/>
            <polyline fill="none" vector-effect="non-scaling-stroke" points="26.3281,74.9822 29.6615,74.9822"/>
        </g>
        <g fill="none" stroke="#969696" stroke-opacity="0.333333" stroke-width="1" stroke-linecap="square" stroke-linejoin="bevel" font-family="Segoe UI" font-size="12" font-weight="400" font-style="normal">
            <polyline fill="none" vector-effect="non-scaling-stroke" points="26.3281,277.386 28.8281,277.386"/>
            <polyline fill="none" vector-effect="non-scaling-stroke" points="26.3281,254.896 28.8281,254.896"/>
            <polyline fill="none" vector-effect="non-scaling-stroke" points="26.3281,232.407 28.8281,232.407"/>
            <polyline fill="none" vector-effect="non-scaling-stroke" points="26.3281,209.918 28.8281,209.918"/>
            <polyline fill="none" vector-effect="non-scaling-stroke" points="26.3281,164.939 28.8281,164.939"/>
            <polyline fill="none" vector-effect="non-scaling-stroke" points="26.3281,142.45 28.8281,142.45"/>
            <polyline fill="none" vector-effect="non-scaling-stroke" points="26.3281,119.961 28.8281,119.961"/>
            <polyline fill="none" vector-effect="non-scaling-stroke" points="26.3281,97.4715 28.8281,97.4715"/>
            <polyline fill="none" vector-effect="non-scaling-stroke" points="26.3281,52.493 28.8281,52.493"/>
            <polyline fill="none" vector-effect="non-scaling-stroke" points="26.3281,30.0037 28.8281,30.0037"/>
            <polyline fill="none" vector-effect="non-scaling-stroke" points="26.3281,7.51441 28.8281,7.51441"/>
        </g>
        <g fill="none" stroke="#969696" stroke-opacity="1" stroke-width="1" stroke-linecap="square" stroke-linejoin="bevel" transform="matrix(1,0,0,1,1,1)" font-family="Segoe UI" font-size="12" font-weight="400" font-style="normal">
            <text fill="#969696" fill-opacity="1" stroke="none" xml:space="preserve" x="13.8594" y="191.344" font-family="&quot;Segoe UI&quot;" font-size="12" font-weight="400" font-style="normal">0</text>
            <text fill="#969696" fill-opacity="1" stroke="none" xml:space="preserve" x="9.0625" y="303.797" font-family="&quot;Segoe UI&quot;" font-size="12" font-weight="400" font-style="normal">-1</text>
            <text fill="#969696" fill-opacity="1" stroke="none" xml:space="preserve" x="13.8594" y="78.8906" font-family="&quot;Segoe UI&quot;" font-size="12" font-weight="400" font-style="normal">1</text>
            <text fill="#969696" fill-opacity="1" stroke="none" xml:space="preserve" x="0" y="281.297" font-family="&quot;Segoe UI&quot;" font-size="12" font-weight="400" font-style="normal">-0.8</text>
            <text fill="#969696" fill-opacity="1" stroke="none" xml:space="preserve" x="0" y="258.813" font-family="&quot;Segoe UI&quot;" font-size="12" font-weight="400" font-style="normal">-0.6</text>
            <text fill="#969696" fill-opacity="1" stroke="none" xml:space="preserve" x="0" y="236.328" font-family="&quot;Segoe UI&quot;" font-size="12" font-weight="400" font-style="normal">-0.4</text>
            <text fill="#969696" fill-opacity="1" stroke="none" xml:space="preserve" x="0" y="213.828" font-family="&quot;Segoe UI&quot;" font-size="12" font-weight="400" font-style="normal">-0.2</text>
            <text fill="#969696" fill-opacity="1" stroke="none" xml:space="preserve" x="4.79688" y="168.859" font-family="&quot;Segoe UI&quot;" font-size="12" font-weight="400" font-style="normal">0.2</text>
            <text fill="#969696" fill-opacity="1" stroke="none" xml:space="preserve" x="4.79688" y="146.359" font-family="&quot;Segoe UI&quot;" font-size="12" font-weight="400" font-style="normal">0.4</text>
            <text fill="#969696" fill-opacity="1" stroke="none" xml:space="preserve" x="4.79688" y="123.875" font-family="&quot;Segoe UI&quot;" font-size="12" font-weight="400" font-style="normal">0.6</text>
            <text fill="#969696" fill-opacity="1" stroke="none" xml:space="preserve" x="4.79688" y="101.391" font-family="&quot;Segoe UI&quot;" font-size="12" font-weight="400" font-style="normal">0.8</text>
            <text fill="#969696" fill-opacity="1" stroke="none" xml:space="preserve" x="4.79688" y="56.4063" font-family="&quot;Segoe UI&quot;" font-size="12" font-weight="400" font-style="normal">1.2</text>
            <text fill="#969696" fill-opacity="1" stroke="none" xml:space="preserve" x="4.79688" y="33.9219" font-family="&quot;Segoe UI&quot;" font-size="12" font-weight="400" font-style="normal">1.4</text>
            <text fill="#969696" fill-opacity="1" stroke="none" xml:space="preserve" x="4.79688" y="11.4375" font-family="&quot;Segoe UI&quot;" font-size="12" font-weight="400" font-style="normal">1.6</text>
        </g>
    </g>
</g>

</svg>
