<?xml version="1.0" encoding="UTF-8" standalone="no"?>
<svg xmlns="http://www.w3.org/2000/svg" xmlns:xlink="http://www.w3.org/1999/xlink"  version="1.2" baseProfile="tiny" viewBox ="0 0 258.000000 333.000000">
<title>pyqtgraph SVG export</title>
<desc>Generated with Qt and pyqtgraph</desc>
<style>
    image {
        image-rendering: crisp-edges;
        image-rendering: -moz-crisp-edges;
        image-rendering: pixelated;
    }
</style>
<rect width="100%" height="100%" style="fill:rgba(255, 255, 255, 1.000000)" />
<defs>
</defs>
<g fill="none" stroke="black" stroke-width="1" fill-rule="evenodd" stroke-linecap="square" stroke-linejoin="bevel" id="PlotItem_1">
    <g fill="none" stroke="black" stroke-width="1" fill-rule="evenodd" stroke-linecap="square" stroke-linejoin="bevel" id="ViewBox_1">
        <g fill="none" stroke="none" font-family="Segoe UI" font-size="12" font-weight="400" font-style="normal">
            <path vector-effect="non-scaling-stroke" fill-rule="evenodd" d="M26.3281,1.0 L257.0001,1.0 L257.0001,312.0 L26.3281,312.0 L26.3281,1.0 "/>
        </g>
        <clipPath id="ViewBox_1_clip">
            <path vector-effect="none" fill-rule="evenodd" d="M26.3281,1.0 L257.0,1.0 L257.0,312.0 L26.3281,312.0 L26.3281,1.0 " stroke-width="1.0"/>
        </clipPath>
        <g clip-path="url(#ViewBox_1_clip)">
            <g fill="none" stroke="black" stroke-width="1" fill-rule="evenodd" stroke-linecap="square" stroke-linejoin="bevel" id="ChildGroup_1">
                <g id="PlotDataItem_1">
                    <g fill="none" stroke="black" stroke-width="1" fill-rule="evenodd" stroke-linecap="square" stroke-linejoin="bevel" id="PlotCurveItem_1">
                        <g fill="none" stroke="#ff0000" stroke-opacity="1" stroke-width="1" stroke-linecap="square" stroke-linejoin="bevel" font-family="Segoe UI" font-size="12" font-weight="400" font-style="normal">
                            <path vector-effect="non-scaling-stroke" fill-rule="evenodd" d="M40.3698,17.4712 L40.880098,17.4712 L41.390395999999996,17.4712 L41.900694,17.4712 L42.410992,17.4712 L42.92129,17.4712 L43.431588,17.4712 L43.941886,17.4712 L44.452183999999995,17.4712 L44.962481999999994,17.4712 L45.47278,17.4712 L45.983078,17.4712 L46.493376,17.4712 L47.003674,17.4712 L47.513971999999995,17.4712 L48.02427,17.4712 L48.534568,17.4712 L49.044866,17.4712 L49.555164,17.4712 L50.065462,17.4712 L50.57576,17.4712 L51.086057999999994,17.4712 L51.596356,17.4712 L52.106654,17.4712 L52.616952,17.4712 L53.12725,17.4712 L53.637547999999995,17.4712 L54.147846,17.4712 L54.658144,17.4712 L55.168442,17.4712 L55.67874,17.4712 L56.189038,17.4712 L56.699336,17.4712 L57.209633999999994,17.4712 L57.719932,17.4712 L58.23023,17.4712 L58.740528,17.4712 L59.250826,17.4712 L59.761123999999995,17.4712 L60.271422,17.4712 L60.78172,17.4712 L61.292018,17.4712 L61.802316,17.4712 L62.312613999999996,17.4712 L62.822912,17.4712 L63.333209999999994,17.4712 L63.843508,17.4712 L64.35380599999999,17.4712 L64.864104,17.4712 L65.374402,17.4712 L65.8847,17.4712 L66.394998,17.4712 L66.90529599999999,17.4712 L67.415594,17.4712 L67.925892,17.4712 L68.43619,17.4712 L68.946488,17.4712 L69.456786,17.4712 L69.967084,17.4712 L70.477382,17.4712 L70.98768,17.4712 L71.497978,17.4712 L72.008276,17.4712 L72.518574,17.4712 L73.028872,17.4712 L73.53917,17.4712 L74.04946799999999,17.4712 L74.559766,17.4712 L75.070064,17.4712 L75.58036200000001,17.4712 L76.09066,17.4712 L76.60095799999999,17.4712 L77.111256,17.4712 L77.621554,17.4712 L78.13185200000001,17.4712 L78.64215,17.4712 L79.15244799999999,17.4712 L79.662746,17.4712 L80.173044,17.4712 L80.68334200000001,17.4712 L81.19364,17.4712 L81.703938,17.4712 L82.214236,17.4712 L82.724534,17.4712 L83.234832,17.4712 L83.74513,17.4712 L84.255428,17.4712 L84.765726,17.4712 L85.276024,17.4712 L85.786322,17.4712 L86.29661999999999,17.4712 L86.806918,17.4712 L87.317216,17.4712 L87.82751400000001,17.4712 L88.337812,17.4712 L88.84810999999999,17.4712 L89.358408,17.4712 L89.868706,17.4712 L90.37900400000001,17.4712 L90.889302,17.4712 L91.39959999999999,17.4712 L91.909898,17.4712 L92.420196,17.4712 L92.93049400000001,17.4712 L93.440792,17.4712 L93.95109,17.4712 L94.461388,17.4712 L94.971686,17.4712 L95.48198400000001,17.4712 L95.992282,17.4712 L96.50258,17.4712 L97.012878,17.4712 L97.523176,17.4712 L98.033474,17.4712 L98.543772,17.4712 L99.05407,17.4712 L99.564368,17.4712 L100.07466600000001,17.4712 L100.584964,17.4712 L101.09526199999999,17.4712 L101.60556,17.4712 L102.115858,17.4712 L102.62615600000001,17.4712 L103.136454,17.4712 L103.64675199999999,17.4712 L104.15705,17.4712 L104.667348,17.4712 L105.177646,17.4712 L105.687944,17.4712 L106.19824200000001,17.4712 L106.70854,17.4712 L107.218838,17.4712 L107.729136,17.4712 L108.239434,17.4712 L108.74973200000001,17.4712 L109.26003,17.4712 L109.770328,17.4712 L110.280626,17.4712 L110.790924,17.4712 L111.301222,17.4712 L111.81152,17.4712 L112.32181800000001,17.4712 L112.832116,17.4712 L113.342414,17.4712 L113.852712,17.4712 L114.36301,17.4712 L114.87330800000001,17.4712 L115.383606,17.4712 L115.893904,17.4712 L116.404202,17.4712 L116.9145,17.4712 L117.424798,17.4712 L117.935096,17.4712 L118.44539400000001,17.4712 L118.955692,17.4712 L119.46599,17.4712 L119.976288,17.4712 L120.486586,17.4712 L120.99688400000001,17.4712 L121.507182,17.4712 L122.01748,17.4712 L122.527778,17.4712 L123.038076,17.4712 L123.54837400000001,17.4712 L124.058672,17.4712 L124.56897000000001,17.4712 L125.079268,17.4712 L125.589566,17.4712 L126.099864,17.4712 L126.610162,17.4712 L127.12046000000001,17.4712 L127.630758,17.4712 L128.141056,17.4712 L128.651354,17.4712 L129.161652,17.4712 L129.67195,17.4712 L130.18224800000002,17.4712 L130.692546,17.4712 L131.202844,17.4712 L131.713142,17.4712 L132.22343999999998,17.4712 L132.73373800000002,17.4712 L133.244036,17.4712 L133.754334,17.4712 L134.264632,17.4712 L134.77492999999998,17.4712 L135.28522800000002,17.4712 L135.795526,17.4712 L136.305824,17.4712 L136.816122,17.4712 L137.32641999999998,17.4712 L137.83671800000002,17.4712 L138.347016,17.4712 L138.857314,17.4712 L139.367612,17.4712 L139.87790999999999,17.4712 L140.38820800000002,17.4712 L140.898506,17.4712 L141.408804,17.4712 L141.919102,17.4712 L142.4294,17.4712 L142.93969800000002,17.4712 L143.449996,17.4712 L143.960294,17.4712 L144.470592,17.4712 L144.98089,17.4712 L145.49118800000002,17.4712 L146.001486,17.4712 L146.511784,17.4712 L147.022082,17.4712 L147.53238,17.4712 L148.04267800000002,17.4712 L148.552976,17.4712 L149.063274,17.4712 L149.573572,17.4712 L150.08387,17.4712 L150.59416800000002,17.4712 L151.104466,17.4712 L151.614764,17.4712 L152.125062,17.4712 L152.63536,17.4712 L153.145658,17.4712 L153.655956,17.4712 L154.166254,17.4712 L154.67655200000002,17.4712 L155.18685,17.4712 L155.697148,17.4712 L156.207446,17.4712 L156.717744,17.4712 L157.22804200000002,17.4712 L157.73834,17.4712 L158.248638,17.4712 L158.758936,17.4712 L159.269234,17.4712 L159.77953200000002,17.4712 L160.28983,17.4712 L160.800128,17.4712 L161.310426,17.4712 L161.82072399999998,17.4712 L162.33102200000002,17.4712 L162.84132,17.4712 L163.351618,17.4712 L163.861916,17.4712 L164.37221399999999,17.4712 L164.88251200000002,17.4712 L165.39281,17.4712 L165.903108,17.4712 L166.413406,17.4712 L166.923704,17.4712 L167.43400200000002,17.4712 L167.9443,17.4712 L168.454598,17.4712 L168.964896,17.4712 L169.47519400000002,17.4712 L169.985492,17.4712 L170.49579,17.4712 L171.006088,17.4712 L171.516386,17.4712 L172.02668400000002,17.4712 L172.536982,17.4712 L173.04728,17.4712 L173.557578,17.4712 L174.067876,17.4712 L174.57817400000002,17.4712 L175.088472,17.4712 L175.59877,17.4712 L176.109068,17.4712 L176.619366,17.4712 L177.12966400000002,17.4712 L177.639962,17.4712 L178.15026,17.4712 L178.660558,17.4712 L179.17085600000001,17.4712 L179.681154,17.4712 L180.191452,17.4712 L180.70175,17.4712 L181.212048,17.4712 L181.72234600000002,17.4712 L182.232644,17.4712 L182.742942,17.4712 L183.25324,17.4712 L183.763538,17.4712 L184.27383600000002,17.4712 L184.784134,17.4712 L185.294432,17.4712 L185.80473,17.4712 L186.315028,17.4712 L186.82532600000002,17.4712 L187.335624,17.4712 L187.845922,17.4712 L188.35622,17.4712 L188.866518,17.4712 L189.37681600000002,17.4712 L189.887114,17.4712 L190.397412,17.4712 L190.90771,17.4712 L191.41800800000001,17.4712 L191.92830600000002,17.4712 L192.438604,17.4712 L192.948902,17.4712 L193.4592,17.4712 L193.96949800000002,17.4712 L194.479796,17.4712 L194.990094,17.4712 L195.500392,17.4712 L196.01069,17.4712 L196.52098800000002,17.4712 L197.031286,17.4712 L197.541584,17.4712 L198.051882,17.4712 L198.56218,17.4712 L199.07247800000002,17.4712 L199.582776,17.4712 L200.093074,17.4712 L200.603372,17.4712 L201.11367,17.4712 L201.62396800000002,17.4712 L202.134266,17.4712 L202.644564,17.4712 L203.154862,17.4712 L203.66516000000001,17.4712 L204.17545800000002,17.4712 L204.685756,17.4712 L205.196054,17.4712 L205.706352,17.4712 L206.21665000000002,17.4712 L206.72694800000002,17.4712 L207.237246,17.4712 L207.747544,17.4712 L208.257842,17.4712 L208.76814000000002,17.4712 L209.278438,17.4712 L209.788736,17.4712 L210.299034,17.4712 L210.809332,17.4712 L211.31963000000002,17.4712 L211.829928,17.4712 L212.340226,17.4712 L212.850524,17.4712 L213.360822,17.4712 L213.87112000000002,17.4712 L214.381418,17.4712 L214.891716,17.4712 L215.402014,17.4712 L215.91231200000001,17.4712 L216.42261000000002,17.4712 L216.932908,17.4712 L217.443206,17.4712 L217.953504,17.4712 L218.46380200000002,17.4712 L218.97410000000002,17.4712 L219.484398,17.4712 L219.994696,17.4712 L220.504994,17.4712 L221.01529200000002,17.4712 L221.52559000000002,17.4712 L222.035888,17.4712 L222.546186,17.4712 L223.056484,17.4712 L223.56678200000002,17.4712 L224.07708,17.4712 L224.587378,17.4712 L225.097676,17.4712 L225.607974,17.4712 L226.11827200000002,17.4712 L226.62857,17.4712 L227.138868,17.4712 L227.649166,17.4712 L228.159464,17.4712 L228.66976200000002,17.4712 L229.18006,17.4712 L229.690358,17.4712 L230.200656,17.4712 L230.71095400000002,17.4712 L231.22125200000002,17.4712 L231.73155,17.4712 L232.241848,17.4712 L232.752146,17.4712 L233.26244400000002,17.4712 L233.77274200000002,17.4712 L234.28304,17.4712 L234.793338,17.4712 L235.303636,17.4712 L235.81393400000002,17.4712 L236.324232,17.4712 L236.83453,17.4712 L237.344828,17.4712 L237.855126,17.4712 L238.36542400000002,17.4712 L238.875722,17.4712 L239.38602,17.4712 L239.896318,17.4712 L240.406616,17.4712 L240.91691400000002,17.4712 L241.427212,17.4712 L241.93751,17.4712 L242.447808,17.4712 L242.95810600000002,17.4712 "/>
                        </g>
                    </g>
                </g>
                <g id="PlotDataItem_2">
                    <g fill="none" stroke="black" stroke-width="1" fill-rule="evenodd" stroke-linecap="square" stroke-linejoin="bevel" id="PlotCurveItem_2">
                        <g fill="none" stroke="#00ff00" stroke-opacity="1" stroke-width="1" stroke-linecap="square" stroke-linejoin="bevel" font-family="Segoe UI" font-size="12" font-weight="400" font-style="normal">
                            <path vector-effect="non-scaling-stroke" fill-rule="evenodd" d="M40.3698,17.4712 L40.880098,17.4712 L41.390395999999996,17.4712 L41.900694,17.4712 L42.410992,17.4712 L42.92129,17.4712 L43.431588,17.4712 L43.941886,17.4712 L44.452183999999995,17.4712 L44.962481999999994,17.4712 L45.47278,17.4712 L45.983078,17.4712 L46.493376,17.4712 L47.003674,17.4712 L47.513971999999995,17.4712 L48.02427,17.4712 L48.534568,17.4712 L49.044866,17.4712 L49.555164,17.4712 L50.065462,17.4712 L50.57576,17.4712 L51.086057999999994,17.4712 L51.596356,17.4712 L52.106654,17.4712 L52.616952,17.4712 L53.12725,17.4712 L53.637547999999995,17.4712 L54.147846,17.4712 L54.658144,17.4712 L55.168442,17.4712 L55.67874,17.4712 L56.189038,17.4712 L56.699336,17.4712 L57.209633999999994,17.4712 L57.719932,17.4712 L58.23023,17.4712 L58.740528,17.4712 L59.250826,17.4712 L59.761123999999995,17.4712 L60.271422,17.4712 L60.78172,17.4712 L61.292018,17.4712 L61.802316,17.4712 L62.312613999999996,17.4712 L62.822912,17.4712 L63.333209999999994,17.4712 L63.843508,17.4712 L64.35380599999999,17.4712 L64.864104,17.4712 L65.374402,17.4712 L65.8847,17.4712 L66.394998,17.4712 L66.90529599999999,17.4712 L67.415594,17.4712 L67.925892,17.4712 L68.43619,17.4712 L68.946488,17.4712 L69.456786,17.4712 L69.967084,17.4712 L70.477382,17.4712 L70.98768,17.4712 L71.497978,17.4712 L72.008276,17.4712 L72.518574,17.4712 L73.028872,17.4712 L73.53917,17.4712 L74.04946799999999,17.4712 L74.559766,17.4712 L75.070064,17.4712 L75.58036200000001,17.4712 L76.09066,17.4712 L76.60095799999999,17.4712 L77.111256,17.4712 L77.621554,17.4712 L78.13185200000001,17.4712 L78.64215,17.4712 L79.15244799999999,17.4712 L79.662746,17.4712 L80.173044,17.4712 L80.68334200000001,17.4712 L81.19364,17.4712 L81.703938,17.4712 L82.214236,17.4712 L82.724534,17.4712 L83.234832,17.4712 L83.74513,17.4712 L84.255428,17.4712 L84.765726,17.4712 L85.276024,17.4712 L85.786322,17.4712 L86.29661999999999,17.4712 L86.806918,17.4712 L87.317216,17.4712 L87.82751400000001,17.4712 L88.337812,17.4712 L88.84810999999999,17.4712 L89.358408,17.4712 L89.868706,17.4712 L90.37900400000001,17.4712 L90.889302,17.4712 L91.39959999999999,17.4712 L91.909898,17.4712 L92.420196,17.4712 L92.93049400000001,17.4712 L93.440792,17.4712 L93.95109,17.4712 L94.461388,17.4712 L94.971686,17.4712 L95.48198400000001,17.4712 L95.992282,17.4712 L96.50258,17.4712 L97.012878,17.4712 L97.523176,17.4712 L98.033474,17.4712 L98.543772,17.4712 L99.05407,17.4712 L99.564368,17.4712 L100.07466600000001,17.4712 L100.584964,17.4712 L101.09526199999999,17.4712 L101.60556,17.4712 L102.115858,17.4712 L102.62615600000001,17.4712 L103.136454,17.4712 L103.64675199999999,17.4712 L104.15705,17.4712 L104.667348,17.4712 L105.177646,17.4712 L105.687944,17.4712 L106.19824200000001,17.4712 L106.70854,17.4712 L107.218838,17.4712 L107.729136,17.4712 L108.239434,17.4712 L108.74973200000001,17.4712 L109.26003,17.4712 L109.770328,17.4712 L110.280626,17.4712 L110.790924,17.4712 L111.301222,17.4712 L111.81152,17.4712 L112.32181800000001,17.4712 L112.832116,17.4712 L113.342414,17.4712 L113.852712,17.4712 L114.36301,17.4712 L114.87330800000001,17.4712 L115.383606,17.4712 L115.893904,17.4712 L116.404202,17.4712 L116.9145,17.4712 L117.424798,17.4712 L117.935096,17.4712 L118.44539400000001,17.4712 L118.955692,17.4712 L119.46599,17.4712 L119.976288,17.4712 L120.486586,17.4712 L120.99688400000001,17.4712 L121.507182,17.4712 L122.01748,17.4712 L122.527778,17.4712 L123.038076,17.4712 L123.54837400000001,17.4712 L124.058672,17.4712 L124.56897000000001,17.4712 L125.079268,17.4712 L125.589566,17.4712 L126.099864,17.4712 L126.610162,17.4712 L127.12046000000001,17.4712 L127.630758,17.4712 L128.141056,17.4712 L128.651354,17.4712 L129.161652,17.4712 L129.67195,17.4712 L130.18224800000002,17.4712 L130.692546,17.4712 L131.202844,17.4712 L131.713142,17.4712 L132.22343999999998,17.4712 L132.73373800000002,17.4712 L133.244036,17.4712 L133.754334,17.4712 L134.264632,17.4712 L134.77492999999998,17.4712 L135.28522800000002,17.4712 L135.795526,17.4712 L136.305824,17.4712 L136.816122,17.4712 L137.32641999999998,17.4712 L137.83671800000002,17.4712 L138.347016,17.4712 L138.857314,17.4712 L139.367612,17.4712 L139.87790999999999,17.4712 L140.38820800000002,17.4712 L140.898506,17.4712 L141.408804,17.4712 L141.919102,17.4712 L142.4294,17.4712 L142.93969800000002,17.4712 L143.449996,17.4712 L143.960294,17.4712 L144.470592,17.4712 L144.98089,17.4712 L145.49118800000002,17.4712 L146.001486,17.4712 L146.511784,17.4712 L147.022082,17.4712 L147.53238,17.4712 L148.04267800000002,17.4712 L148.552976,17.4712 L149.063274,17.4712 L149.573572,17.4712 L150.08387,17.4712 L150.59416800000002,17.4712 L151.104466,17.4712 L151.614764,17.4712 L152.125062,17.4712 L152.63536,17.4712 L153.145658,17.4712 L153.655956,17.4712 L154.166254,17.4712 L154.67655200000002,17.4712 L155.18685,17.4712 L155.697148,17.4712 L156.207446,17.4712 L156.717744,17.4712 L157.22804200000002,17.4712 L157.73834,17.4712 L158.248638,17.4712 L158.758936,17.4712 L159.269234,17.4712 L159.77953200000002,17.4712 L160.28983,17.4712 L160.800128,17.4712 L161.310426,17.4712 L161.82072399999998,17.4712 L162.33102200000002,17.4712 L162.84132,17.4712 L163.351618,17.4712 L163.861916,17.4712 L164.37221399999999,17.4712 L164.88251200000002,17.4712 L165.39281,17.4712 L165.903108,17.4712 L166.413406,17.4712 L166.923704,17.4712 L167.43400200000002,17.4712 L167.9443,17.4712 L168.454598,17.4712 L168.964896,17.4712 L169.47519400000002,17.4712 L169.985492,17.4712 L170.49579,17.4712 L171.006088,17.4712 L171.516386,17.4712 L172.02668400000002,17.4712 L172.536982,17.4712 L173.04728,17.4712 L173.557578,17.4712 L174.067876,17.4712 L174.57817400000002,17.4712 L175.088472,17.4712 L175.59877,17.4712 L176.109068,17.4712 L176.619366,17.4712 L177.12966400000002,17.4712 L177.639962,17.4712 L178.15026,17.4712 L178.660558,17.4712 L179.17085600000001,17.4712 L179.681154,17.4712 L180.191452,17.4712 L180.70175,17.4712 L181.212048,17.4712 L181.72234600000002,17.4712 L182.232644,17.4712 L182.742942,17.4712 L183.25324,17.4712 L183.763538,17.4712 L184.27383600000002,17.4712 L184.784134,17.4712 L185.294432,17.4712 L185.80473,17.4712 L186.315028,17.4712 L186.82532600000002,17.4712 L187.335624,17.4712 L187.845922,17.4712 L188.35622,17.4712 L188.866518,17.4712 L189.37681600000002,17.4712 L189.887114,17.4712 L190.397412,17.4712 L190.90771,17.4712 L191.41800800000001,17.4712 L191.92830600000002,17.4712 L192.438604,17.4712 L192.948902,17.4712 L193.4592,17.4712 L193.96949800000002,17.4712 L194.479796,17.4712 L194.990094,17.4712 L195.500392,17.4712 L196.01069,17.4712 L196.52098800000002,17.4712 L197.031286,17.4712 L197.541584,17.4712 L198.051882,17.4712 L198.56218,17.4712 L199.07247800000002,17.4712 L199.582776,17.4712 L200.093074,17.4712 L200.603372,17.4712 L201.11367,17.4712 L201.62396800000002,17.4712 L202.134266,17.4712 L202.644564,17.4712 L203.154862,17.4712 L203.66516000000001,17.4712 L204.17545800000002,17.4712 L204.685756,17.4712 L205.196054,17.4712 L205.706352,17.4712 L206.21665000000002,17.4712 L206.72694800000002,17.4712 L207.237246,17.4712 L207.747544,17.4712 L208.257842,17.4712 L208.76814000000002,17.4712 L209.278438,17.4712 L209.788736,17.4712 L210.299034,17.4712 L210.809332,17.4712 L211.31963000000002,17.4712 L211.829928,17.4712 L212.340226,17.4712 L212.850524,17.4712 L213.360822,17.4712 L213.87112000000002,17.4712 L214.381418,17.4712 L214.891716,17.4712 L215.402014,17.4712 L215.91231200000001,17.4712 L216.42261000000002,17.4712 L216.932908,17.4712 L217.443206,17.4712 L217.953504,17.4712 L218.46380200000002,17.4712 L218.97410000000002,17.4712 L219.484398,17.4712 L219.994696,17.4712 L220.504994,17.4712 L221.01529200000002,17.4712 L221.52559000000002,17.4712 L222.035888,17.4712 L222.546186,17.4712 L223.056484,17.4712 L223.56678200000002,17.4712 L224.07708,17.4712 L224.587378,17.4712 L225.097676,17.4712 L225.607974,17.4712 L226.11827200000002,17.4712 L226.62857,17.4712 L227.138868,17.4712 L227.649166,17.4712 L228.159464,17.4712 L228.66976200000002,17.4712 L229.18006,17.4712 L229.690358,17.4712 L230.200656,17.4712 L230.71095400000002,17.4712 L231.22125200000002,17.4712 L231.73155,17.4712 L232.241848,17.4712 L232.752146,17.4712 L233.26244400000002,17.4712 L233.77274200000002,17.4712 L234.28304,17.4712 L234.793338,17.4712 L235.303636,17.4712 L235.81393400000002,17.4712 L236.324232,17.4712 L236.83453,17.4712 L237.344828,17.4712 L237.855126,17.4712 L238.36542400000002,17.4712 L238.875722,17.4712 L239.38602,17.4712 L239.896318,17.4712 L240.406616,17.4712 L240.91691400000002,17.4712 L241.427212,17.4712 L241.93751,17.4712 L242.447808,17.4712 L242.95810600000002,17.4712 "/>
                        </g>
                    </g>
                </g>
                <g id="PlotDataItem_3">
                    <g fill="none" stroke="black" stroke-width="1" fill-rule="evenodd" stroke-linecap="square" stroke-linejoin="bevel" id="PlotCurveItem_3">
                        <g fill="none" stroke="#0000ff" stroke-opacity="1" stroke-width="1" stroke-linecap="square" stroke-linejoin="bevel" font-family="Segoe UI" font-size="12" font-weight="400" font-style="normal">
                            <path vector-effect="non-scaling-stroke" fill-rule="evenodd" d="M40.3698,17.4712 L40.880098,17.4712 L41.390395999999996,17.79686872432 L41.900694,18.4648284238 L42.410992,19.1917985614 L42.92129,19.9108639222 L43.431588,20.6350431484 L43.941886,21.361541962 L44.452183999999995,22.0598758 L44.962481999999994,22.744911568 L45.47278,23.466643276 L45.983078,24.232511109999997 L46.493376,24.936534502 L47.003674,25.675031878 L47.513971999999995,26.392319674 L48.02427,27.056819181999998 L48.534568,27.781681827999996 L49.044866,28.465471953999998 L49.555164,29.188819629999998 L50.065462,29.884729516 L50.57576,30.573771538 L51.086057999999994,31.260490605999998 L51.596356,31.971954183999998 L52.106654,32.701227075999995 L52.616952,33.412084666 L53.12725,34.141357557999996 L53.637547999999995,34.868307496 L54.147846,35.574182518 L54.658144,36.293086282000004 L55.168442,37.030910338 L55.67874,37.74473053599999 L56.189038,38.41882485399999 L56.699336,39.088407927999995 L57.209633999999994,39.826265649999996 L57.719932,40.56233907399999 L58.23023,41.244412233999995 L58.740528,41.922916798 L59.250826,42.660235864 L59.761123999999995,43.40570210199999 L60.271422,44.13100240599999 L60.78172,44.804053077999995 L61.292018,45.47747407599999 L61.802316,46.157493609999996 L62.312613999999996,46.88666550399999 L62.822912,47.601731344 L63.333209999999994,48.317100178 L63.843508,49.003011261999994 L64.35380599999999,49.683704116 L64.864104,50.41183236399999 L65.374402,51.16177617999999 L65.8847,51.91656789999999 L66.394998,52.60739422 L66.90529599999999,53.26893111999999 L67.415594,54.00251326 L67.925892,54.68929965999999 L68.43619,55.38483921999999 L68.946488,56.11909467999999 L69.456786,56.79443463999999 L69.967084,57.54249315999999 L70.477382,58.29863152 L70.98768,58.989457839999986 L71.497978,59.53518369999999 L72.008276,59.53518369999999 L72.518574,59.86477384 L73.028872,60.48052498 L73.53917,61.322848300000004 L74.04946799999999,61.81066863999999 L74.559766,62.48129535999999 L75.070064,63.19232127999999 L75.58036200000001,63.889207479999996 L76.09066,64.57464723999999 L76.60095799999999,65.24359066 L77.111256,65.91758397999999 L77.621554,66.6117769 L78.13185200000001,67.33458592 L78.64215,68.06311816 L79.15244799999999,68.70782206 L79.662746,69.367339 L80.173044,70.02786592 L80.68334200000001,70.7712112 L81.19364,71.50176339999999 L81.703938,72.20571946 L82.214236,72.93223173999999 L82.724534,73.64123769999999 L83.234832,74.39266282 L83.74513,75.13668141999999 L84.255428,75.84703402 L84.765726,76.53853366 L85.276024,77.26740256 L85.786322,77.9892016 L86.29661999999999,78.72850695999999 L86.806918,79.41495669999999 L87.317216,80.08760337999999 L87.82751400000001,80.74005045999999 L88.337812,81.65913225999999 L88.84810999999999,82.20081819999999 L89.358408,82.90376427999999 L89.868706,83.61142359999998 L90.37900400000001,84.29821 L90.889302,84.97152999999999 L91.39959999999999,85.71285531999999 L91.909898,86.42489121999998 L92.420196,87.14669025999999 L92.93049400000001,87.88801557999999 L93.440792,88.6259743 L93.95109,89.32016721999999 L94.461388,90.05071942 L94.971686,90.77554839999999 L95.48198400000001,91.48354438 L95.992282,92.17033077999999 L96.50258,92.90761617999999 L97.012878,93.64086165999998 L97.523176,94.37646376 L98.033474,94.39935664 L98.543772,94.68215103999998 L99.05407,95.34099465999998 L99.564368,96.01936455999999 L100.07466600000001,96.69638782 L100.584964,97.3757677 L101.09526199999999,98.05413759999999 L101.60556,98.71904109999998 L102.115858,99.38832117999999 L102.62615600000001,100.06938436 L103.136454,100.76357727999998 L103.64675199999999,101.44565043999998 L104.15705,102.13950669999998 L104.667348,102.81350001999999 L105.177646,103.50971289999998 L105.687944,104.24228505999999 L106.19824200000001,104.918635 L106.70854,105.61249126 L107.218838,106.24844199999998 L107.729136,106.94633817999998 L108.239434,107.63783781999999 L108.74973200000001,108.35391363999999 L109.26003,108.85924029999998 L109.770328,109.53289695999999 L110.280626,110.20992021999999 L110.790924,110.88559683999999 L111.301222,111.55790685999997 L111.81152,112.23661341999998 L112.32181800000001,112.91935989999999 L112.832116,113.57618355999999 L113.342414,114.23738379999998 L113.852712,114.92383353999999 L114.36301,115.60422339999998 L114.87330800000001,116.29673301999999 L115.383606,116.95860658 L115.893904,117.64707627999998 L116.404202,118.33857591999998 L116.9145,119.03411547999998 L117.424798,119.71686195999999 L117.935096,120.41038155999998 L118.44539400000001,121.11265431999999 L118.955692,121.85195968 L119.46599,122.59732491999999 L119.976288,123.26997159999998 L120.486586,123.98402745999998 L120.99688400000001,124.72535278 L121.507182,125.42661555999999 L122.01748,126.08242923999998 L122.527778,126.74766939999998 L123.038076,127.44152565999998 L123.54837400000001,128.88983697999998 L124.058672,129.56282032 L124.56897000000001,130.23109042 L125.079268,130.8869041 L125.589566,131.62284286 L126.099864,132.31063924 L126.610162,132.99641566 L127.12046000000001,133.68252874 L127.630758,134.40230781999998 L128.141056,135.09784738 L128.651354,135.82031974 L129.161652,136.6437901 L129.67195,137.31172353999997 L130.18224800000002,137.98437022 L130.692546,138.8909956 L131.202844,139.4464846 L131.713142,140.24807206 L132.22343999999998,140.7830248 L132.73373800000002,141.53411326 L133.244036,142.18959028 L133.754334,143.00161419999998 L134.264632,143.69917372 L134.77492999999998,144.48224488 L135.28522800000002,145.21380706 L135.795526,146.02953424 L136.305824,146.70049762 L136.816122,147.44754616 L137.32641999999998,148.18079164 L137.83671800000002,148.9436632 L138.347016,149.7061981 L138.857314,150.39769773999998 L139.367612,151.12084342 L139.87790999999999,151.764874 L140.38820800000002,152.42775754 L140.898506,153.18591586 L141.408804,153.91276480000002 L141.919102,154.61806750000002 L142.4294,155.27724777999998 L142.93969800000002,156.02328634 L143.449996,156.7390255 L143.960294,157.39854244 L144.470592,158.19306004 L144.98089,158.81049448 L145.49118800000002,159.29999812 L146.001486,160.00092424000002 L146.511784,160.33657426000002 L147.022082,161.09574256 L147.53238,161.84683102 L148.04267800000002,162.5161111 L148.552976,163.22242377999999 L149.063274,163.91695336 L149.573572,164.66501188 L150.08387,165.37839442 L150.59416800000002,166.11736312000002 L151.104466,166.86138172 L151.614764,167.5895773 L152.125062,168.32888266 L152.63536,169.04192854 L153.145658,169.72770496 L153.655956,170.46095044 L154.166254,171.17231302000002 L154.67655200000002,171.84697966 L155.18685,172.57248195999998 L155.697148,173.29293435999998 L156.207446,173.95043134 L156.717744,174.66213058 L157.22804200000002,175.31491431999999 L157.73834,176.01584044 L158.248638,176.65212784000002 L158.758936,177.3712336 L159.269234,178.07889292 L159.77953200000002,178.86432069999998 L160.28983,179.54639386 L160.800128,180.22880368 L161.310426,180.88899394 L161.82072399999998,181.45289944 L162.33102200000002,182.1450724 L162.84132,182.87057470000002 L163.351618,183.55029123999998 L163.861916,184.23707764 L164.37221399999999,184.98378952 L164.88251200000002,185.6429698 L165.39281,186.33951934 L165.903108,187.05660514 L166.413406,188.22447868 L166.923704,188.94762436 L167.43400200000002,189.69433623999998 L167.9443,190.45013794 L168.454598,191.19146326 L168.964896,191.88733948 L169.47519400000002,192.61789168 L169.985492,193.31477788 L170.49579,193.82111452 L171.006088,194.59374921999998 L171.516386,195.36133402 L172.02668400000002,196.05754689999998 L172.536982,196.79011906 L173.04728,197.51057146 L173.557578,198.19904116 L174.067876,198.91208704 L174.57817400000002,200.40046089999998 L175.088472,200.77381684 L175.59877,201.39091462 L176.109068,202.11136702 L176.619366,202.79647011999998 L177.12966400000002,203.53375552 L177.639962,204.22289854 L178.15026,204.9218047 L178.660558,205.59074811999997 L179.17085600000001,206.22198561999997 L179.681154,206.95489443999998 L180.191452,207.6975664 L180.70175,208.42172205999998 L181.212048,209.14486774 L181.72234600000002,209.82290098000001 L182.232644,210.55109656 L182.742942,211.25033937999999 L183.25324,211.85969397999997 L183.763538,212.61751564 L184.27383600000002,213.52111108 L184.784134,214.19712436 L185.294432,214.77954616 L185.80473,215.68718152 L186.315028,216.32750884 L186.82532600000002,217.13212624 L187.335624,217.71286474 L187.845922,218.45116012 L188.35622,219.14265976 L188.866518,219.85334902 L189.37681600000002,220.64584666 L189.887114,221.26765768 L190.397412,222.06217528 L190.90771,222.76377472 L191.41800800000001,223.49769351999998 L191.92830600000002,224.1854899 L192.438604,224.93388507999998 L192.948902,225.66948718 L193.4592,226.4478451 L193.96949800000002,227.22855964000001 L194.479796,227.99412447999998 L194.990094,228.6479182 L195.500392,229.3414378 L196.01069,230.04640383999998 L196.52098800000002,230.70928737999998 L197.031286,231.48225874 L197.541584,232.19698792 L198.051882,232.97770246 L198.56218,233.61903975999996 L199.07247800000002,234.27721006 L199.582776,234.95726326 L200.093074,235.60062051999998 L200.603372,236.46011349999998 L201.11367,237.05802165999998 L201.62396800000002,237.93030772 L202.134266,238.54706884 L202.644564,239.40454185999997 L203.154862,239.98932028 L203.66516000000001,240.75791506 L204.17545800000002,241.43359167999998 L204.685756,242.14697422 L205.196054,242.78191497999998 L205.706352,243.49226758 L206.21665000000002,244.21608658 L206.72694800000002,244.91600271999997 L207.237246,245.70614374 L207.747544,246.41211976 L208.257842,247.1928343 L208.76814000000002,247.88399728 L209.278438,248.6674051 L209.788736,249.29561266 L210.299034,250.02145162 L210.809332,250.76244027999996 L211.31963000000002,251.41387737999997 L211.829928,252.16664913999998 L212.340226,252.86723859999998 L212.850524,253.54695514 L213.360822,254.20007554 L213.87112000000002,254.81717332 L214.381418,255.52079272 L214.891716,256.26077139999995 L215.402014,256.94250789999995 L215.91231200000001,257.66296029999995 L216.42261000000002,258.32887378 L216.932908,259.04124634 L217.443206,259.7620354 L217.953504,260.48046783999996 L218.46380200000002,261.1406581 L218.97410000000002,261.86144715999995 L219.484398,262.51692418 L219.994696,263.26363605999995 L220.504994,263.98880169999995 L221.01529200000002,264.77961603999995 L221.52559000000002,265.53811102 L222.035888,266.25082024 L222.546186,266.94736978 L223.056484,267.65637574 L223.56678200000002,268.33036905999995 L224.07708,269.1195001 L224.587378,269.76723394 L225.097676,270.5536717 L225.607974,271.27850068 L226.11827200000002,272.00467629999997 L226.62857,272.6965126 L227.138868,273.50685322 L227.649166,274.2367321 L228.159464,274.93462827999997 L228.66976200000002,275.7012031 L229.18006,276.38058298 L229.690358,277.11753172 L230.200656,277.8423607 L230.71095400000002,278.55742654 L231.22125200000002,279.28663209999996 L231.73155,280.00237126 L232.241848,280.76524282 L232.752146,281.34396136 L233.26244400000002,282.17147164 L233.77274200000002,282.83704846 L234.28304,283.57433385999997 L234.793338,284.29747954 L235.303636,285.05799448 L235.81393400000002,285.7505041 L236.324232,286.51438564 L236.83453,287.22541156 L237.344828,287.94350733999994 L237.855126,288.66059313999995 L238.36542400000002,289.30462372 L238.875722,290.04157246 L239.38602,290.75461834 L239.896318,291.44813794 L240.406616,292.16084716 L240.91691400000002,292.81767082 L241.427212,293.46136473999996 L241.93751,294.17609391999997 L242.447808,294.86557359999995 L242.95810600000002,295.52913046 "/>
                        </g>
                    </g>
                </g>
            </g>
            <g fill="none" stroke="black" stroke-width="1" fill-rule="evenodd" stroke-linecap="square" stroke-linejoin="bevel" id="LegendItem_1">
                <g fill="none" stroke="none" transform="matrix(1,0,0,1,56.3281,31)" font-family="Segoe UI" font-size="12" font-weight="400" font-style="normal">
                    <rect vector-effect="non-scaling-stroke" x="0" y="0" width="102" height="90"/>
                </g>
                <g fill="none" stroke="black" stroke-width="1" fill-rule="evenodd" stroke-linecap="square" stroke-linejoin="bevel" id="ItemSample_1">
                    <g fill="none" stroke="#ff0000" stroke-opacity="1" stroke-width="1" stroke-linecap="square" stroke-linejoin="bevel" font-family="Segoe UI" font-size="12" font-weight="400" font-style="normal">
                        <polyline fill="none" vector-effect="non-scaling-stroke" points="65.3281,51.0 85.3281,51.0"/>
                    </g>
                </g>
                <g fill="none" stroke="black" stroke-width="1" fill-rule="evenodd" stroke-linecap="square" stroke-linejoin="bevel" id="LabelItem_1">
                    <g fill="none" stroke="black" stroke-width="1" fill-rule="evenodd" stroke-linecap="square" stroke-linejoin="bevel" id="QGraphicsTextItem_1">
                        


                        


                        


                        <g fill="none" stroke="#969696" stroke-opacity="1" stroke-width="1" stroke-linecap="square" stroke-linejoin="bevel" transform="matrix(1,0,0,1,90.3281,40)" font-family="Segoe UI" font-size="12" font-weight="400" font-style="normal">
                            <text fill="#969696" fill-opacity="1" stroke="none" xml:space="preserve" x="4" y="16.9531" font-family="&quot;Segoe UI&quot;" font-size="12" font-weight="400" font-style="normal">velocity_x</text>
                        </g>
                        


                        

                    </g>
                </g>
                <g fill="none" stroke="black" stroke-width="1" fill-rule="evenodd" stroke-linecap="square" stroke-linejoin="bevel" id="ItemSample_2">
                    <g fill="none" stroke="#00ff00" stroke-opacity="1" stroke-width="1" stroke-linecap="square" stroke-linejoin="bevel" font-family="Segoe UI" font-size="12" font-weight="400" font-style="normal">
                        <polyline fill="none" vector-effect="non-scaling-stroke" points="65.3281,75.0 85.3281,75.0"/>
                    </g>
                </g>
                <g fill="none" stroke="black" stroke-width="1" fill-rule="evenodd" stroke-linecap="square" stroke-linejoin="bevel" id="LabelItem_2">
                    <g fill="none" stroke="black" stroke-width="1" fill-rule="evenodd" stroke-linecap="square" stroke-linejoin="bevel" id="QGraphicsTextItem_2">
                        


                        


                        


                        <g fill="none" stroke="#969696" stroke-opacity="1" stroke-width="1" stroke-linecap="square" stroke-linejoin="bevel" transform="matrix(1,0,0,1,90.3281,64)" font-family="Segoe UI" font-size="12" font-weight="400" font-style="normal">
                            <text fill="#969696" fill-opacity="1" stroke="none" xml:space="preserve" x="4" y="16.9531" font-family="&quot;Segoe UI&quot;" font-size="12" font-weight="400" font-style="normal">velocity_y</text>
                        </g>
                        


                        

                    </g>
                </g>
                <g fill="none" stroke="black" stroke-width="1" fill-rule="evenodd" stroke-linecap="square" stroke-linejoin="bevel" id="ItemSample_3">
                    <g fill="none" stroke="#0000ff" stroke-opacity="1" stroke-width="1" stroke-linecap="square" stroke-linejoin="bevel" font-family="Segoe UI" font-size="12" font-weight="400" font-style="normal">
                        <polyline fill="none" vector-effect="non-scaling-stroke" points="65.3281,99.0 85.3281,99.0"/>
                    </g>
                </g>
                <g fill="none" stroke="black" stroke-width="1" fill-rule="evenodd" stroke-linecap="square" stroke-linejoin="bevel" id="LabelItem_3">
                    <g fill="none" stroke="black" stroke-width="1" fill-rule="evenodd" stroke-linecap="square" stroke-linejoin="bevel" id="QGraphicsTextItem_3">
                        


                        


                        


                        <g fill="none" stroke="#969696" stroke-opacity="1" stroke-width="1" stroke-linecap="square" stroke-linejoin="bevel" transform="matrix(1,0,0,1,90.3281,88)" font-family="Segoe UI" font-size="12" font-weight="400" font-style="normal">
                            <text fill="#969696" fill-opacity="1" stroke="none" xml:space="preserve" x="4" y="16.9531" font-family="&quot;Segoe UI&quot;" font-size="12" font-weight="400" font-style="normal">velocity_z</text>
                        </g>
                        


                        

                    </g>
                </g>
            </g>
            <g fill="none" stroke="black" stroke-width="1" fill-rule="evenodd" stroke-linecap="square" stroke-linejoin="bevel" id="QGraphicsRectItem_1">
                <g fill="none" stroke="none" transform="matrix(1,0,0,1,26.3281,1)" font-family="Segoe UI" font-size="12" font-weight="400" font-style="normal">
                    <rect vector-effect="non-scaling-stroke" x="0" y="0" width="230.672" height="311"/>
                </g>
            </g>
        </g>
    </g>
    <g fill="none" stroke="black" stroke-width="1" fill-rule="evenodd" stroke-linecap="square" stroke-linejoin="bevel" id="AxisItem_1">
        <g fill="none" stroke="#969696" stroke-opacity="1" stroke-width="1" stroke-linecap="square" stroke-linejoin="bevel" font-family="Segoe UI" font-size="12" font-weight="400" font-style="normal">
            <polyline fill="none" vector-effect="non-scaling-stroke" points="26.3281,312.0 257.0001,312.0"/>
            <polyline fill="none" vector-effect="non-scaling-stroke" points="40.3698,312.0 40.3698,307.0"/>
            <polyline fill="none" vector-effect="non-scaling-stroke" points="142.4291,312.0 142.4291,307.0"/>
            <polyline fill="none" vector-effect="non-scaling-stroke" points="244.4891,312.0 244.4891,307.0"/>
        </g>
        <g fill="none" stroke="#969696" stroke-opacity="0.498039" stroke-width="1" stroke-linecap="square" stroke-linejoin="bevel" font-family="Segoe UI" font-size="12" font-weight="400" font-style="normal">
            <polyline fill="none" vector-effect="non-scaling-stroke" points="91.39959999999999,312.0 91.39959999999999,308.66667"/>
            <polyline fill="none" vector-effect="non-scaling-stroke" points="193.4591,312.0 193.4591,308.66667"/>
        </g>
        <g fill="none" stroke="#969696" stroke-opacity="1" stroke-width="1" stroke-linecap="square" stroke-linejoin="bevel" transform="matrix(1,0,0,1,26.3281,312)" font-family="Segoe UI" font-size="12" font-weight="400" font-style="normal">
            <text fill="#969696" fill-opacity="1" stroke="none" xml:space="preserve" x="10.7969" y="14.9063" font-family="&quot;Segoe UI&quot;" font-size="12" font-weight="400" font-style="normal">0</text>
            <text fill="#969696" fill-opacity="1" stroke="none" xml:space="preserve" x="106.391" y="14.9063" font-family="&quot;Segoe UI&quot;" font-size="12" font-weight="400" font-style="normal">200</text>
            <text fill="#969696" fill-opacity="1" stroke="none" xml:space="preserve" x="208.453" y="14.9063" font-family="&quot;Segoe UI&quot;" font-size="12" font-weight="400" font-style="normal">400</text>
            <text fill="#969696" fill-opacity="1" stroke="none" xml:space="preserve" x="55.3594" y="14.9063" font-family="&quot;Segoe UI&quot;" font-size="12" font-weight="400" font-style="normal">100</text>
            <text fill="#969696" fill-opacity="1" stroke="none" xml:space="preserve" x="157.422" y="14.9063" font-family="&quot;Segoe UI&quot;" font-size="12" font-weight="400" font-style="normal">300</text>
        </g>
    </g>
    <g fill="none" stroke="black" stroke-width="1" fill-rule="evenodd" stroke-linecap="square" stroke-linejoin="bevel" id="AxisItem_2">
        <g fill="none" stroke="#969696" stroke-opacity="1" stroke-width="1" stroke-linecap="square" stroke-linejoin="bevel" font-family="Segoe UI" font-size="12" font-weight="400" font-style="normal">
            <polyline fill="none" vector-effect="non-scaling-stroke" points="26.3281,1.0 26.3281,312.0"/>
            <polyline fill="none" vector-effect="non-scaling-stroke" points="26.3281,17.4712 31.3281,17.4712"/>
        </g>
        <g fill="none" stroke="#969696" stroke-opacity="0.498039" stroke-width="1" stroke-linecap="square" stroke-linejoin="bevel" font-family="Segoe UI" font-size="12" font-weight="400" font-style="normal">
            <polyline fill="none" vector-effect="non-scaling-stroke" points="26.3281,286.799 29.6615,286.799"/>
            <polyline fill="none" vector-effect="non-scaling-stroke" points="26.3281,219.467 29.6615,219.467"/>
            <polyline fill="none" vector-effect="non-scaling-stroke" points="26.3281,152.135 29.6615,152.135"/>
            <polyline fill="none" vector-effect="non-scaling-stroke" points="26.3281,84.8031 29.6615,84.8031"/>
        </g>
        <g fill="none" stroke="#969696" stroke-opacity="0.333333" stroke-width="1" stroke-linecap="square" stroke-linejoin="bevel" font-family="Segoe UI" font-size="12" font-weight="400" font-style="normal">
            <polyline fill="none" vector-effect="non-scaling-stroke" points="26.3281,253.133 28.8281,253.133"/>
            <polyline fill="none" vector-effect="non-scaling-stroke" points="26.3281,185.801 28.8281,185.801"/>
            <polyline fill="none" vector-effect="non-scaling-stroke" points="26.3281,118.469 28.8281,118.469"/>
            <polyline fill="none" vector-effect="non-scaling-stroke" points="26.3281,51.1372 28.8281,51.1372"/>
        </g>
        <g fill="none" stroke="#969696" stroke-opacity="1" stroke-width="1" stroke-linecap="square" stroke-linejoin="bevel" transform="matrix(1,0,0,1,1,1)" font-family="Segoe UI" font-size="12" font-weight="400" font-style="normal">
            <text fill="#969696" fill-opacity="1" stroke="none" xml:space="preserve" x="13.8594" y="21.3906" font-family="&quot;Segoe UI&quot;" font-size="12" font-weight="400" font-style="normal">0</text>
            <text fill="#969696" fill-opacity="1" stroke="none" xml:space="preserve" x="9.0625" y="290.719" font-family="&quot;Segoe UI&quot;" font-size="12" font-weight="400" font-style="normal">-8</text>
            <text fill="#969696" fill-opacity="1" stroke="none" xml:space="preserve" x="9.0625" y="223.375" font-family="&quot;Segoe UI&quot;" font-size="12" font-weight="400" font-style="normal">-6</text>
            <text fill="#969696" fill-opacity="1" stroke="none" xml:space="preserve" x="9.0625" y="156.047" font-family="&quot;Segoe UI&quot;" font-size="12" font-weight="400" font-style="normal">-4</text>
            <text fill="#969696" fill-opacity="1" stroke="none" xml:space="preserve" x="9.0625" y="88.7188" font-family="&quot;Segoe UI&quot;" font-size="12" font-weight="400" font-style="normal">-2</text>
            <text fill="#969696" fill-opacity="1" stroke="none" xml:space="preserve" x="9.0625" y="257.047" font-family="&quot;Segoe UI&quot;" font-size="12" font-weight="400" font-style="normal">-7</text>
            <text fill="#969696" fill-opacity="1" stroke="none" xml:space="preserve" x="9.0625" y="189.719" font-family="&quot;Segoe UI&quot;" font-size="12" font-weight="400" font-style="normal">-5</text>
            <text fill="#969696" fill-opacity="1" stroke="none" xml:space="preserve" x="9.0625" y="122.391" font-family="&quot;Segoe UI&quot;" font-size="12" font-weight="400" font-style="normal">-3</text>
            <text fill="#969696" fill-opacity="1" stroke="none" xml:space="preserve" x="9.0625" y="55.0469" font-family="&quot;Segoe UI&quot;" font-size="12" font-weight="400" font-style="normal">-1</text>
        </g>
    </g>
</g>

</svg>
