<?xml version="1.0" encoding="UTF-8" standalone="no"?>
<svg xmlns="http://www.w3.org/2000/svg" xmlns:xlink="http://www.w3.org/1999/xlink"  version="1.2" baseProfile="tiny" viewBox ="0 0 254.000000 333.000000">
<title>pyqtgraph SVG export</title>
<desc>Generated with Qt and pyqtgraph</desc>
<style>
    image {
        image-rendering: crisp-edges;
        image-rendering: -moz-crisp-edges;
        image-rendering: pixelated;
    }
</style>
<rect width="100%" height="100%" style="fill:rgba(255, 255, 255, 1.000000)" />
<defs>
</defs>
<g fill="none" stroke="black" stroke-width="1" fill-rule="evenodd" stroke-linecap="square" stroke-linejoin="bevel" id="PlotItem_1">
    <g fill="none" stroke="black" stroke-width="1" fill-rule="evenodd" stroke-linecap="square" stroke-linejoin="bevel" id="ViewBox_1">
        <g fill="none" stroke="none" font-family="Segoe UI" font-size="12" font-weight="400" font-style="normal">
            <path vector-effect="non-scaling-stroke" fill-rule="evenodd" d="M26.3281,1.0 L253.0001,1.0 L253.0001,312.0 L26.3281,312.0 L26.3281,1.0 "/>
        </g>
        <clipPath id="ViewBox_1_clip">
            <path vector-effect="none" fill-rule="evenodd" d="M26.3281,1.0 L253.0,1.0 L253.0,312.0 L26.3281,312.0 L26.3281,1.0 " stroke-width="1.0"/>
        </clipPath>
        <g clip-path="url(#ViewBox_1_clip)">
            <g fill="none" stroke="black" stroke-width="1" fill-rule="evenodd" stroke-linecap="square" stroke-linejoin="bevel" id="ChildGroup_1">
                <g id="PlotDataItem_1">
                    <g fill="none" stroke="black" stroke-width="1" fill-rule="evenodd" stroke-linecap="square" stroke-linejoin="bevel" id="PlotCurveItem_1">
                        <g fill="none" stroke="#ff0000" stroke-opacity="1" stroke-width="1" stroke-linecap="square" stroke-linejoin="bevel" font-family="Segoe UI" font-size="12" font-weight="400" font-style="normal">
                            <path vector-effect="non-scaling-stroke" fill-rule="evenodd" d="M40.2387,216.084 L40.739584,216.084 L41.240468,221.290356 L41.741352,221.483184 L42.242236,221.483184 L42.743120000000005,221.097528 L43.244004000000004,221.483184 L43.744888,221.290356 L44.245772,221.290356 L44.746656,221.67601200000001 L45.24754,221.290356 L45.748424,221.67601200000001 L46.249308,221.483184 L46.750192,221.483184 L47.251076,221.86884 L47.751960000000004,221.097528 L48.252844,221.67601200000001 L48.753728,220.9047 L49.254612,221.86884 L49.755496,221.290356 L50.25638,221.290356 L50.757264,221.290356 L51.258148000000006,221.67601200000001 L51.759032000000005,221.483184 L52.259916000000004,221.097528 L52.7608,221.097528 L53.261684,221.483184 L53.762568,221.097528 L54.263452,221.483184 L54.764336,221.67601200000001 L55.26522,221.097528 L55.766104,221.097528 L56.266988,221.290356 L56.767872,221.290356 L57.268755999999996,220.9047 L57.76964,221.290356 L58.270524,220.9047 L58.771408,220.9047 L59.272292,221.483184 L59.77317600000001,220.711872 L60.274060000000006,220.9047 L60.774944000000005,221.290356 L61.275828000000004,221.290356 L61.776712,220.9047 L62.277596,220.9047 L62.77848,221.097528 L63.279364,221.67601200000001 L63.780248,221.290356 L64.281132,221.290356 L64.782016,220.519044 L65.2829,221.290356 L65.783784,221.86884 L66.284668,221.290356 L66.785552,221.290356 L67.28643600000001,221.097528 L67.78732,221.290356 L68.28820400000001,221.290356 L68.78908799999999,221.290356 L69.289972,221.097528 L69.790856,221.290356 L70.29174,221.483184 L70.792624,222.061668 L71.293508,222.061668 L71.794392,222.061668 L72.295276,221.290356 L72.79616,221.483184 L73.297044,221.483184 L73.797928,221.290356 L74.298812,222.25449600000002 L74.79969600000001,221.67601200000001 L75.30058,221.67601200000001 L75.80146400000001,221.290356 L76.302348,221.67601200000001 L76.80323200000001,221.86884 L77.304116,221.86884 L77.805,221.290356 L78.30588399999999,221.67601200000001 L78.806768,221.483184 L79.307652,221.097528 L79.808536,221.097528 L80.30942,221.483184 L80.810304,221.290356 L81.311188,222.061668 L81.812072,221.097528 L82.312956,221.86884 L82.81384,221.290356 L83.314724,221.097528 L83.815608,221.483184 L84.31649200000001,221.290356 L84.817376,221.097528 L85.31826000000001,221.86884 L85.819144,221.483184 L86.32002800000001,221.67601200000001 L86.82091199999999,221.290356 L87.321796,220.711872 L87.82267999999999,220.9047 L88.323564,221.290356 L88.824448,221.097528 L89.325332,221.097528 L89.826216,221.483184 L90.3271,221.290356 L90.827984,220.9047 L91.328868,221.290356 L91.829752,221.097528 L92.330636,220.711872 L92.83152,221.483184 L93.332404,220.9047 L93.83328800000001,221.483184 L94.334172,220.9047 L94.83505600000001,222.061668 L95.33594,221.483184 L95.83682400000001,221.290356 L96.33770799999999,221.483184 L96.838592,221.483184 L97.33947599999999,221.67601200000001 L97.84036,221.290356 L98.341244,221.483184 L98.842128,221.483184 L99.343012,221.483184 L99.843896,221.097528 L100.34478,221.290356 L100.845664,221.86884 L101.346548,221.097528 L101.847432,221.86884 L102.34831600000001,221.290356 L102.8492,221.290356 L103.35008400000001,221.097528 L103.850968,221.097528 L104.35185200000001,220.9047 L104.852736,221.483184 L105.35362,221.290356 L105.85450399999999,221.67601200000001 L106.355388,221.67601200000001 L106.85627199999999,221.67601200000001 L107.357156,222.83298 L107.85803999999999,221.483184 L108.358924,221.097528 L108.85980799999999,222.061668 L109.360692,221.483184 L109.86157600000001,221.86884 L110.36246,221.483184 L110.86334400000001,221.097528 L111.364228,221.483184 L111.86511200000001,221.67601200000001 L112.365996,220.9047 L112.86688000000001,222.447324 L113.367764,220.9047 L113.86864800000001,220.711872 L114.36953199999999,221.097528 L114.870416,222.061668 L115.37129999999999,220.9047 L115.872184,222.25449600000002 L116.37306799999999,221.67601200000001 L116.873952,221.86884 L117.37483599999999,221.290356 L117.87572,221.86884 L118.37660400000001,220.519044 L118.877488,221.67601200000001 L119.37837200000001,220.519044 L119.879256,221.67601200000001 L120.38014000000001,222.061668 L120.881024,221.67601200000001 L121.38190800000001,221.67601200000001 L121.882792,222.061668 L122.38367600000001,220.711872 L122.88456,221.67601200000001 L123.385444,221.290356 L123.88632799999999,222.061668 L124.387212,221.67601200000001 L124.88809599999999,221.67601200000001 L125.38898,221.290356 L125.88986399999999,221.097528 L126.390748,221.290356 L126.89163199999999,220.9047 L127.392516,243.851232 L127.89340000000001,220.711872 L128.394284,219.94056 L128.895168,222.061668 L129.396052,222.447324 L129.896936,221.483184 L130.39782,222.83298 L130.898704,222.447324 L131.399588,221.67601200000001 L131.900472,220.519044 L132.401356,222.83298 L132.90224,219.362076 L133.403124,224.76126 L133.904008,219.94056 L134.404892,223.79712 L134.905776,219.554904 L135.40666,223.60429200000002 L135.907544,219.94056 L136.408428,222.83298 L136.909312,220.32621600000002 L137.410196,223.60429200000002 L137.91108,219.169248 L138.411964,223.025808 L138.912848,220.32621600000002 L139.413732,222.25449600000002 L139.914616,220.133388 L140.4155,221.86884 L140.916384,221.097528 L141.417268,222.061668 L141.918152,221.67601200000001 L142.419036,220.711872 L142.91992,223.218636 L143.420804,220.711872 L143.921688,223.411464 L144.422572,220.711872 L144.923456,220.9047 L145.42434,221.67601200000001 L145.92522400000001,221.483184 L146.426108,221.290356 L146.926992,222.25449600000002 L147.427876,221.67601200000001 L147.92876,222.25449600000002 L148.429644,221.86884 L148.930528,221.290356 L149.431412,221.86884 L149.932296,222.061668 L150.43318,221.86884 L150.934064,221.67601200000001 L151.434948,221.097528 L151.935832,221.483184 L152.436716,221.86884 L152.9376,221.67601200000001 L153.438484,222.447324 L153.939368,221.097528 L154.440252,221.67601200000001 L154.941136,221.483184 L155.44202,222.061668 L155.942904,221.483184 L156.443788,221.483184 L156.944672,221.86884 L157.445556,220.9047 L157.94644,221.290356 L158.447324,222.061668 L158.948208,221.86884 L159.449092,222.061668 L159.949976,221.290356 L160.45086,221.097528 L160.951744,220.9047 L161.452628,221.483184 L161.953512,221.67601200000001 L162.454396,221.67601200000001 L162.95528,221.67601200000001 L163.456164,221.86884 L163.95704800000001,222.061668 L164.457932,221.86884 L164.958816,222.447324 L165.4597,221.67601200000001 L165.960584,221.290356 L166.461468,221.86884 L166.962352,221.290356 L167.463236,221.483184 L167.96412,220.133388 L168.465004,220.9047 L168.965888,221.67601200000001 L169.466772,220.9047 L169.967656,221.290356 L170.46854,221.290356 L170.969424,221.483184 L171.470308,221.097528 L171.971192,223.025808 L172.472076,221.86884 L172.97296,221.290356 L173.47384399999999,220.711872 L173.974728,222.25449600000002 L174.47561199999998,220.9047 L174.976496,221.67601200000001 L175.47737999999998,221.097528 L175.978264,221.097528 L176.47914799999998,221.290356 L176.980032,221.86884 L177.48091599999998,221.483184 L177.9818,221.67601200000001 L178.482684,221.67601200000001 L178.983568,221.483184 L179.484452,222.061668 L179.985336,220.711872 L180.48622,219.362076 L180.987104,224.568432 L181.487988,217.240968 L181.988872,220.133388 L182.489756,222.061668 L182.99063999999998,223.989948 L183.491524,220.32621600000002 L183.99240799999998,221.86884 L184.493292,218.590764 L184.99417599999998,225.339744 L185.49506,219.554904 L185.99594399999998,224.76126 L186.496828,218.783592 L186.997712,224.954088 L187.498596,220.133388 L187.99948,224.375604 L188.500364,219.554904 L189.001248,221.86884 L189.502132,220.711872 L190.003016,225.146916 L190.5039,219.169248 L191.004784,223.79712 L191.505668,220.32621600000002 L192.006552,223.60429200000002 L192.50743599999998,220.519044 L193.00832,223.025808 L193.50920399999998,220.519044 L194.010088,222.25449600000002 L194.51097199999998,221.290356 L195.011856,221.67601200000001 L195.51273999999998,221.67601200000001 L196.013624,221.67601200000001 L196.514508,223.025808 L197.015392,220.32621600000002 L197.516276,222.83298 L198.01716,219.94056 L198.518044,223.989948 L199.018928,218.39793600000002 L199.519812,223.411464 L200.020696,220.9047 L200.52158,219.747732 L201.02246399999999,223.79712 L201.523348,214.734204 L202.02423199999998,224.568432 L202.525116,218.205108 L203.02599999999998,221.483184 L203.526884,218.783592 L204.02776799999998,222.25449600000002 L204.528652,220.711872 L205.02953599999998,220.9047 L205.53042,221.290356 L206.031304,220.519044 L206.532188,221.483184 L207.033072,220.9047 L207.533956,221.290356 L208.03484,221.097528 L208.535724,220.711872 L209.036608,220.9047 L209.537492,222.25449600000002 L210.038376,220.519044 L210.53925999999998,221.86884 L211.040144,220.32621600000002 L211.54102799999998,221.86884 L212.041912,220.711872 L212.54279599999998,222.25449600000002 L213.04368,220.519044 L213.54456399999998,221.67601200000001 L214.045448,221.097528 L214.546332,220.711872 L215.047216,295.529136 L215.5481,227.268024 L216.048984,221.86884 L216.549868,224.182776 L217.050752,222.640152 L217.551636,217.819452 L218.05252,217.240968 L218.553404,224.568432 L219.05428799999999,217.626624 L219.555172,224.375604 L220.05605599999998,219.554904 L220.55694,223.218636 L221.05782399999998,220.133388 L221.558708,222.640152 L222.05959199999998,220.32621600000002 L222.560476,221.67601200000001 L223.06135999999998,223.79712 L223.562244,219.747732 L224.063128,223.989948 L224.564012,218.39793600000002 L225.064896,224.375604 L225.56578,219.362076 L226.066664,221.483184 L226.567548,220.32621600000002 L227.068432,223.025808 L227.569316,221.67601200000001 L228.0702,220.519044 L228.57108399999998,220.32621600000002 L229.071968,232.281552 L229.57285199999998,223.025808 L230.073736,221.097528 L230.57461999999998,219.554904 L231.075504,217.819452 L231.57638799999998,221.097528 L232.077272,222.061668 L232.57815599999998,226.882368 L233.07904,219.747732 L233.579924,220.711872 L234.080808,223.60429200000002 L234.581692,220.519044 L235.082576,221.290356 L235.58346,220.711872 L236.084344,220.32621600000002 L236.585228,222.061668 L237.08611199999999,220.133388 L237.586996,220.32621600000002 L238.08787999999998,220.519044 L238.588764,220.9047 L239.08964799999998,221.290356 "/>
                        </g>
                    </g>
                </g>
                <g id="PlotDataItem_2">
                    <g fill="none" stroke="black" stroke-width="1" fill-rule="evenodd" stroke-linecap="square" stroke-linejoin="bevel" id="PlotCurveItem_2">
                        <g fill="none" stroke="#00ff00" stroke-opacity="1" stroke-width="1" stroke-linecap="square" stroke-linejoin="bevel" font-family="Segoe UI" font-size="12" font-weight="400" font-style="normal">
                            <path vector-effect="non-scaling-stroke" fill-rule="evenodd" d="M40.2387,216.084 L40.739584,216.084 L41.240468,217.626624 L41.741352,217.819452 L42.242236,217.626624 L42.743120000000005,217.626624 L43.244004000000004,218.01228 L43.744888,217.819452 L44.245772,217.626624 L44.746656,218.205108 L45.24754,217.819452 L45.748424,218.01228 L46.249308,217.433796 L46.750192,217.240968 L47.251076,217.819452 L47.751960000000004,217.626624 L48.252844,218.01228 L48.753728,218.01228 L49.254612,217.433796 L49.755496,217.433796 L50.25638,217.819452 L50.757264,217.626624 L51.258148000000006,217.433796 L51.759032000000005,217.819452 L52.259916000000004,217.819452 L52.7608,217.819452 L53.261684,217.819452 L53.762568,217.626624 L54.263452,217.819452 L54.764336,218.01228 L55.26522,217.819452 L55.766104,218.01228 L56.266988,217.433796 L56.767872,217.433796 L57.268755999999996,217.626624 L57.76964,217.819452 L58.270524,217.240968 L58.771408,218.01228 L59.272292,217.433796 L59.77317600000001,218.01228 L60.274060000000006,217.433796 L60.774944000000005,217.04814 L61.275828000000004,217.04814 L61.776712,218.01228 L62.277596,217.819452 L62.77848,217.819452 L63.279364,217.626624 L63.780248,218.01228 L64.281132,217.240968 L64.782016,216.855312 L65.2829,217.626624 L65.783784,217.626624 L66.284668,217.819452 L66.785552,217.626624 L67.28643600000001,217.626624 L67.78732,217.433796 L68.28820400000001,217.819452 L68.78908799999999,218.01228 L69.289972,217.433796 L69.790856,217.626624 L70.29174,217.626624 L70.792624,218.01228 L71.293508,218.01228 L71.794392,217.240968 L72.295276,217.240968 L72.79616,218.205108 L73.297044,217.626624 L73.797928,217.240968 L74.298812,217.819452 L74.79969600000001,217.433796 L75.30058,217.819452 L75.80146400000001,217.240968 L76.302348,217.433796 L76.80323200000001,217.240968 L77.304116,217.433796 L77.805,217.819452 L78.30588399999999,217.626624 L78.806768,218.01228 L79.307652,217.433796 L79.808536,217.240968 L80.30942,217.240968 L80.810304,217.433796 L81.311188,218.01228 L81.812072,217.819452 L82.312956,217.240968 L82.81384,217.433796 L83.314724,217.240968 L83.815608,217.433796 L84.31649200000001,218.01228 L84.817376,217.240968 L85.31826000000001,217.433796 L85.819144,217.626624 L86.32002800000001,217.819452 L86.82091199999999,217.819452 L87.321796,216.46965600000001 L87.82267999999999,218.205108 L88.323564,217.819452 L88.824448,217.240968 L89.325332,217.04814 L89.826216,218.205108 L90.3271,217.819452 L90.827984,216.855312 L91.328868,217.433796 L91.829752,218.01228 L92.330636,218.01228 L92.83152,217.433796 L93.332404,217.433796 L93.83328800000001,217.819452 L94.334172,218.01228 L94.83505600000001,217.626624 L95.33594,217.240968 L95.83682400000001,217.04814 L96.33770799999999,217.819452 L96.838592,217.819452 L97.33947599999999,218.01228 L97.84036,217.626624 L98.341244,217.626624 L98.842128,217.626624 L99.343012,217.626624 L99.843896,217.240968 L100.34478,217.433796 L100.845664,218.205108 L101.346548,217.04814 L101.847432,217.819452 L102.34831600000001,217.433796 L102.8492,217.433796 L103.35008400000001,218.01228 L103.850968,217.04814 L104.35185200000001,218.01228 L104.852736,218.01228 L105.35362,216.662484 L105.85450399999999,217.819452 L106.355388,218.01228 L106.85627199999999,217.433796 L107.357156,217.04814 L107.85803999999999,217.433796 L108.358924,218.01228 L108.85980799999999,218.205108 L109.360692,216.662484 L109.86157600000001,217.04814 L110.36246,217.240968 L110.86334400000001,218.205108 L111.364228,217.04814 L111.86511200000001,217.433796 L112.365996,217.626624 L112.86688000000001,218.205108 L113.367764,217.626624 L113.86864800000001,218.01228 L114.36953199999999,216.276828 L114.870416,217.819452 L115.37129999999999,217.240968 L115.872184,216.46965600000001 L116.37306799999999,217.433796 L116.873952,217.433796 L117.37483599999999,217.04814 L117.87572,217.04814 L118.37660400000001,217.433796 L118.877488,217.819452 L119.37837200000001,217.626624 L119.879256,217.04814 L120.38014000000001,217.433796 L120.881024,218.01228 L121.38190800000001,217.626624 L121.882792,217.04814 L122.38367600000001,217.04814 L122.88456,217.626624 L123.385444,217.433796 L123.88632799999999,218.01228 L124.387212,217.433796 L124.88809599999999,217.240968 L125.38898,217.626624 L125.88986399999999,217.626624 L126.390748,217.819452 L126.89163199999999,216.662484 L127.392516,202.971696 L127.89340000000001,213.19158000000002 L128.394284,224.182776 L128.895168,219.169248 L129.396052,214.15572 L129.896936,218.205108 L130.39782,218.01228 L130.898704,214.927032 L131.399588,217.04814 L131.900472,218.590764 L132.401356,215.891172 L132.90224,215.891172 L133.403124,220.133388 L133.904008,218.01228 L134.404892,215.891172 L134.905776,216.084 L135.40666,219.747732 L135.907544,217.626624 L136.408428,216.46965600000001 L136.909312,217.819452 L137.410196,218.39793600000002 L137.91108,218.590764 L138.411964,215.505516 L138.912848,219.747732 L139.413732,219.362076 L139.914616,216.855312 L140.4155,218.205108 L140.916384,217.04814 L141.417268,216.662484 L141.918152,216.084 L142.419036,216.662484 L142.91992,217.240968 L143.420804,218.01228 L143.921688,217.240968 L144.422572,216.662484 L144.923456,217.240968 L145.42434,218.205108 L145.92522400000001,218.39793600000002 L146.426108,217.433796 L146.926992,216.855312 L147.427876,217.240968 L147.92876,217.626624 L148.429644,217.819452 L148.930528,218.01228 L149.431412,217.240968 L149.932296,216.855312 L150.43318,218.205108 L150.934064,217.819452 L151.434948,217.04814 L151.935832,217.240968 L152.436716,217.626624 L152.9376,217.819452 L153.438484,217.433796 L153.939368,217.240968 L154.440252,216.855312 L154.941136,217.626624 L155.44202,217.819452 L155.942904,217.240968 L156.443788,216.855312 L156.944672,217.04814 L157.445556,217.819452 L157.94644,217.433796 L158.447324,217.626624 L158.948208,217.240968 L159.449092,218.01228 L159.949976,217.240968 L160.45086,216.855312 L160.951744,217.240968 L161.452628,217.433796 L161.953512,217.433796 L162.454396,217.04814 L162.95528,217.240968 L163.456164,217.433796 L163.95704800000001,218.01228 L164.457932,217.240968 L164.958816,218.01228 L165.4597,217.04814 L165.960584,216.662484 L166.461468,217.433796 L166.962352,218.01228 L167.463236,217.626624 L167.96412,218.01228 L168.465004,217.626624 L168.965888,217.433796 L169.466772,217.04814 L169.967656,217.433796 L170.46854,217.819452 L170.969424,217.626624 L171.470308,217.819452 L171.971192,217.626624 L172.472076,218.590764 L172.97296,217.240968 L173.47384399999999,217.04814 L173.974728,218.01228 L174.47561199999998,216.855312 L174.976496,217.433796 L175.47737999999998,217.433796 L175.978264,217.433796 L176.47914799999998,217.240968 L176.980032,217.626624 L177.48091599999998,217.04814 L177.9818,217.433796 L178.482684,217.240968 L178.983568,217.626624 L179.484452,217.626624 L179.985336,216.084 L180.48622,213.384408 L180.987104,218.39793600000002 L181.487988,218.590764 L181.988872,216.084 L182.489756,215.11986000000002 L182.99063999999998,217.240968 L183.491524,220.519044 L183.99240799999998,217.433796 L184.493292,218.783592 L184.99417599999998,212.613096 L185.49506,217.04814 L185.99594399999998,220.133388 L186.496828,215.312688 L186.997712,215.698344 L187.498596,220.133388 L187.99948,216.276828 L188.500364,214.541376 L189.001248,218.205108 L189.502132,218.97642 L190.003016,217.240968 L190.5039,215.11986000000002 L191.004784,217.240968 L191.505668,218.590764 L192.006552,218.205108 L192.50743599999998,216.084 L193.00832,217.04814 L193.50920399999998,218.590764 L194.010088,218.01228 L194.51097199999998,216.46965600000001 L195.011856,216.084 L195.51273999999998,218.01228 L196.013624,216.662484 L196.514508,219.94056 L197.015392,216.276828 L197.516276,218.590764 L198.01716,219.94056 L198.518044,215.698344 L199.018928,219.362076 L199.519812,219.169248 L200.020696,214.15572 L200.52158,218.205108 L201.02246399999999,218.01228 L201.523348,216.084 L202.02423199999998,218.205108 L202.525116,217.433796 L203.02599999999998,218.205108 L203.526884,217.04814 L204.02776799999998,217.626624 L204.528652,216.662484 L205.02953599999998,218.01228 L205.53042,218.39793600000002 L206.031304,217.433796 L206.532188,216.662484 L207.033072,216.662484 L207.533956,218.01228 L208.03484,217.240968 L208.535724,216.855312 L209.036608,217.04814 L209.537492,217.819452 L210.038376,217.240968 L210.53925999999998,217.04814 L211.040144,217.433796 L211.54102799999998,217.433796 L212.041912,216.855312 L212.54279599999998,217.240968 L213.04368,217.819452 L213.54456399999998,217.240968 L214.045448,217.433796 L214.546332,217.240968 L215.047216,229.003476 L215.5481,217.04814 L216.048984,216.084 L216.549868,219.169248 L217.050752,216.662484 L217.551636,216.46965600000001 L218.05252,220.519044 L218.553404,217.433796 L219.05428799999999,214.927032 L219.555172,217.433796 L220.05605599999998,219.169248 L220.55694,216.662484 L221.05782399999998,217.04814 L221.558708,218.01228 L222.05959199999998,214.927032 L222.560476,214.541376 L223.06135999999998,219.554904 L223.562244,220.711872 L224.063128,211.648956 L224.564012,217.819452 L225.064896,218.590764 L225.56578,215.312688 L226.066664,216.084 L226.567548,220.32621600000002 L227.068432,216.084 L227.569316,215.891172 L228.0702,219.94056 L228.57108399999998,218.97642 L229.071968,212.034612 L229.57285199999998,218.205108 L230.073736,218.205108 L230.57461999999998,216.662484 L231.075504,214.348548 L231.57638799999998,219.747732 L232.077272,219.94056 L232.57815599999998,216.662484 L233.07904,214.734204 L233.579924,217.433796 L234.080808,218.783592 L234.581692,218.97642 L235.082576,218.01228 L235.58346,216.662484 L236.084344,218.205108 L236.585228,217.04814 L237.08611199999999,217.240968 L237.586996,217.240968 L238.08787999999998,217.626624 L238.588764,218.205108 L239.08964799999998,218.205108 "/>
                        </g>
                    </g>
                </g>
                <g id="PlotDataItem_3">
                    <g fill="none" stroke="black" stroke-width="1" fill-rule="evenodd" stroke-linecap="square" stroke-linejoin="bevel" id="PlotCurveItem_3">
                        <g fill="none" stroke="#0000ff" stroke-opacity="1" stroke-width="1" stroke-linecap="square" stroke-linejoin="bevel" font-family="Segoe UI" font-size="12" font-weight="400" font-style="normal">
                            <path vector-effect="non-scaling-stroke" fill-rule="evenodd" d="M40.2387,216.084 L40.739584,216.084 L41.240468,31.161947999999995 L41.741352,31.161947999999995 L42.242236,31.161947999999995 L42.743120000000005,31.54760399999998 L43.244004000000004,31.354775999999987 L43.744888,30.969120000000004 L44.245772,31.161947999999995 L44.746656,31.354775999999987 L45.24754,31.74043199999997 L45.748424,31.354775999999987 L46.249308,31.354775999999987 L46.750192,30.969120000000004 L47.251076,30.969120000000004 L47.751960000000004,31.161947999999995 L48.252844,31.54760399999998 L48.753728,31.161947999999995 L49.254612,31.354775999999987 L49.755496,31.354775999999987 L50.25638,31.161947999999995 L50.757264,30.969120000000004 L51.258148000000006,30.969120000000004 L51.759032000000005,31.354775999999987 L52.259916000000004,31.161947999999995 L52.7608,31.161947999999995 L53.261684,31.161947999999995 L53.762568,30.969120000000004 L54.263452,30.969120000000004 L54.764336,31.354775999999987 L55.26522,30.969120000000004 L55.766104,31.354775999999987 L56.266988,30.969120000000004 L56.767872,31.354775999999987 L57.268755999999996,31.54760399999998 L57.76964,31.354775999999987 L58.270524,31.354775999999987 L58.771408,30.969120000000004 L59.272292,31.74043199999997 L59.77317600000001,31.54760399999998 L60.274060000000006,31.54760399999998 L60.774944000000005,31.354775999999987 L61.275828000000004,31.54760399999998 L61.776712,30.969120000000004 L62.277596,31.354775999999987 L62.77848,30.776291999999984 L63.279364,30.969120000000004 L63.780248,31.161947999999995 L64.281132,31.354775999999987 L64.782016,31.74043199999997 L65.2829,33.090227999999996 L65.783784,30.776291999999984 L66.284668,30.19780799999998 L66.785552,31.54760399999998 L67.28643600000001,31.54760399999998 L67.78732,31.54760399999998 L68.28820400000001,31.354775999999987 L68.78908799999999,31.54760399999998 L69.289972,30.776291999999984 L69.790856,31.354775999999987 L70.29174,31.74043199999997 L70.792624,32.897399999999976 L71.293508,32.897399999999976 L71.794392,30.776291999999984 L72.295276,30.969120000000004 L72.79616,36.75395999999998 L73.297044,30.776291999999984 L73.797928,31.54760399999998 L74.298812,30.969120000000004 L74.79969600000001,31.161947999999995 L75.30058,31.161947999999995 L75.80146400000001,31.161947999999995 L76.302348,31.161947999999995 L76.80323200000001,31.161947999999995 L77.304116,31.161947999999995 L77.805,31.161947999999995 L78.30588399999999,30.969120000000004 L78.806768,31.354775999999987 L79.307652,31.354775999999987 L79.808536,30.969120000000004 L80.30942,31.54760399999998 L80.810304,30.969120000000004 L81.311188,30.969120000000004 L81.812072,31.54760399999998 L82.312956,31.354775999999987 L82.81384,31.354775999999987 L83.314724,31.54760399999998 L83.815608,33.090227999999996 L84.31649200000001,30.969120000000004 L84.817376,30.583463999999992 L85.31826000000001,31.161947999999995 L85.819144,30.776291999999984 L86.32002800000001,31.74043199999997 L86.82091199999999,30.583463999999992 L87.321796,26.34124799999998 L87.82267999999999,30.00497999999999 L88.323564,30.00497999999999 L88.824448,30.00497999999999 L89.325332,30.969120000000004 L89.826216,30.776291999999984 L90.3271,31.161947999999995 L90.827984,30.969120000000004 L91.328868,30.969120000000004 L91.829752,31.354775999999987 L92.330636,31.161947999999995 L92.83152,31.354775999999987 L93.332404,31.54760399999998 L93.83328800000001,31.161947999999995 L94.334172,31.161947999999995 L94.83505600000001,31.161947999999995 L95.33594,31.54760399999998 L95.83682400000001,31.161947999999995 L96.33770799999999,30.969120000000004 L96.838592,30.969120000000004 L97.33947599999999,31.74043199999997 L97.84036,31.354775999999987 L98.341244,31.354775999999987 L98.842128,31.354775999999987 L99.343012,30.583463999999992 L99.843896,31.161947999999995 L100.34478,31.161947999999995 L100.845664,31.54760399999998 L101.346548,31.74043199999997 L101.847432,31.354775999999987 L102.34831600000001,31.93325999999996 L102.8492,31.161947999999995 L103.35008400000001,31.161947999999995 L103.850968,31.54760399999998 L104.35185200000001,31.161947999999995 L104.852736,31.354775999999987 L105.35362,29.233667999999994 L105.85450399999999,31.354775999999987 L106.355388,30.969120000000004 L106.85627199999999,31.161947999999995 L107.357156,34.632851999999986 L107.85803999999999,29.426495999999986 L108.358924,31.161947999999995 L108.85980799999999,31.54760399999998 L109.360692,31.354775999999987 L109.86157600000001,31.54760399999998 L110.36246,31.161947999999995 L110.86334400000001,31.161947999999995 L111.364228,31.161947999999995 L111.86511200000001,31.354775999999987 L112.365996,30.583463999999992 L112.86688000000001,31.354775999999987 L113.367764,31.161947999999995 L113.86864800000001,31.54760399999998 L114.36953199999999,31.54760399999998 L114.870416,30.969120000000004 L115.37129999999999,30.776291999999984 L115.872184,31.93325999999996 L116.37306799999999,31.354775999999987 L116.873952,31.161947999999995 L117.37483599999999,31.354775999999987 L117.87572,30.969120000000004 L118.37660400000001,31.54760399999998 L118.877488,31.354775999999987 L119.37837200000001,30.969120000000004 L119.879256,31.54760399999998 L120.38014000000001,30.776291999999984 L120.881024,31.54760399999998 L121.38190800000001,31.54760399999998 L121.882792,30.776291999999984 L122.38367600000001,30.969120000000004 L122.88456,30.776291999999984 L123.385444,31.161947999999995 L123.88632799999999,31.161947999999995 L124.387212,31.354775999999987 L124.88809599999999,31.74043199999997 L125.38898,31.93325999999996 L125.88986399999999,31.161947999999995 L126.390748,31.54760399999998 L126.89163199999999,30.776291999999984 L127.392516,34.440023999999994 L127.89340000000001,28.26952799999998 L128.394284,32.12608800000001 L128.895168,30.776291999999984 L129.396052,31.54760399999998 L129.896936,30.19780799999998 L130.39782,28.848011999999983 L130.898704,30.969120000000004 L131.399588,31.93325999999996 L131.900472,30.583463999999992 L132.401356,32.318916 L132.90224,30.969120000000004 L133.403124,31.93325999999996 L133.904008,30.969120000000004 L134.404892,32.318916 L134.905776,30.776291999999984 L135.40666,31.354775999999987 L135.907544,30.969120000000004 L136.408428,31.74043199999997 L136.909312,30.583463999999992 L137.410196,30.00497999999999 L137.91108,31.161947999999995 L138.411964,32.318916 L138.912848,30.969120000000004 L139.413732,32.318916 L139.914616,31.54760399999998 L140.4155,31.74043199999997 L140.916384,31.54760399999998 L141.417268,31.74043199999997 L141.918152,31.74043199999997 L142.419036,26.919731999999982 L142.91992,33.28305599999999 L143.420804,30.19780799999998 L143.921688,29.619323999999978 L144.422572,17.66398799999999 L144.923456,32.897399999999976 L145.42434,31.354775999999987 L145.92522400000001,31.54760399999998 L146.426108,31.54760399999998 L146.926992,31.93325999999996 L147.427876,30.776291999999984 L147.92876,31.161947999999995 L148.429644,32.12608800000001 L148.930528,32.12608800000001 L149.431412,31.74043199999997 L149.932296,31.54760399999998 L150.43318,31.54760399999998 L150.934064,31.161947999999995 L151.434948,31.161947999999995 L151.935832,31.354775999999987 L152.436716,30.969120000000004 L152.9376,31.54760399999998 L153.438484,31.74043199999997 L153.939368,31.161947999999995 L154.440252,31.54760399999998 L154.941136,30.969120000000004 L155.44202,30.969120000000004 L155.942904,31.54760399999998 L156.443788,31.354775999999987 L156.944672,31.354775999999987 L157.445556,30.969120000000004 L157.94644,32.897399999999976 L158.447324,30.969120000000004 L158.948208,28.46235599999997 L159.449092,32.318916 L159.949976,28.848011999999983 L160.45086,31.354775999999987 L160.951744,30.969120000000004 L161.452628,31.54760399999998 L161.953512,31.354775999999987 L162.454396,30.969120000000004 L162.95528,31.54760399999998 L163.456164,33.47588399999998 L163.95704800000001,29.812151999999998 L164.457932,30.776291999999984 L164.958816,31.74043199999997 L165.4597,31.161947999999995 L165.960584,31.74043199999997 L166.461468,30.776291999999984 L166.962352,30.969120000000004 L167.463236,30.776291999999984 L167.96412,17.47115999999997 L168.465004,30.969120000000004 L168.965888,32.12608800000001 L169.466772,30.969120000000004 L169.967656,30.969120000000004 L170.46854,31.161947999999995 L170.969424,31.74043199999997 L171.470308,30.969120000000004 L171.971192,35.98264799999998 L172.472076,30.776291999999984 L172.97296,31.54760399999998 L173.47384399999999,31.354775999999987 L173.974728,31.354775999999987 L174.47561199999998,31.161947999999995 L174.976496,31.54760399999998 L175.47737999999998,30.776291999999984 L175.978264,28.655183999999963 L176.47914799999998,31.161947999999995 L176.980032,31.161947999999995 L177.48091599999998,31.161947999999995 L177.9818,31.54760399999998 L178.482684,31.354775999999987 L178.983568,30.969120000000004 L179.484452,31.354775999999987 L179.985336,30.776291999999984 L180.48622,31.354775999999987 L180.987104,31.74043199999997 L181.487988,30.19780799999998 L181.988872,31.354775999999987 L182.489756,28.848011999999983 L182.99063999999998,31.93325999999996 L183.491524,30.390635999999972 L183.99240799999998,30.969120000000004 L184.493292,30.776291999999984 L184.99417599999998,33.28305599999999 L185.49506,29.233667999999994 L185.99594399999998,34.247196 L186.496828,32.318916 L186.997712,30.969120000000004 L187.498596,30.390635999999972 L187.99948,32.12608800000001 L188.500364,30.00497999999999 L189.001248,32.704571999999985 L189.502132,30.776291999999984 L190.003016,31.93325999999996 L190.5039,30.390635999999972 L191.004784,32.51174399999999 L191.505668,30.776291999999984 L192.006552,30.776291999999984 L192.50743599999998,31.161947999999995 L193.00832,28.46235599999997 L193.50920399999998,31.74043199999997 L194.010088,31.74043199999997 L194.51097199999998,30.776291999999984 L195.011856,31.74043199999997 L195.51273999999998,31.54760399999998 L196.013624,32.897399999999976 L196.514508,28.076699999999988 L197.015392,29.040840000000003 L197.516276,31.93325999999996 L198.01716,27.691044000000005 L198.518044,31.93325999999996 L199.018928,30.583463999999992 L199.519812,31.93325999999996 L200.020696,31.93325999999996 L200.52158,31.93325999999996 L201.02246399999999,30.19780799999998 L201.523348,30.776291999999984 L202.02423199999998,30.776291999999984 L202.525116,30.969120000000004 L203.02599999999998,30.776291999999984 L203.526884,30.776291999999984 L204.02776799999998,31.161947999999995 L204.528652,30.583463999999992 L205.02953599999998,31.354775999999987 L205.53042,31.161947999999995 L206.031304,31.161947999999995 L206.532188,31.74043199999997 L207.033072,30.969120000000004 L207.533956,30.583463999999992 L208.03484,32.12608800000001 L208.535724,30.969120000000004 L209.036608,31.161947999999995 L209.537492,31.93325999999996 L210.038376,31.354775999999987 L210.53925999999998,31.354775999999987 L211.040144,31.74043199999997 L211.54102799999998,30.776291999999984 L212.041912,30.969120000000004 L212.54279599999998,31.74043199999997 L213.04368,29.812151999999998 L213.54456399999998,31.54760399999998 L214.045448,30.776291999999984 L214.546332,31.354775999999987 L215.047216,30.583463999999992 L215.5481,32.12608800000001 L216.048984,31.74043199999997 L216.549868,31.74043199999997 L217.050752,30.776291999999984 L217.551636,32.318916 L218.05252,29.619323999999978 L218.553404,30.19780799999998 L219.05428799999999,31.161947999999995 L219.555172,32.51174399999999 L220.05605599999998,30.776291999999984 L220.55694,31.354775999999987 L221.05782399999998,31.354775999999987 L221.558708,31.54760399999998 L222.05959199999998,30.583463999999992 L222.560476,31.54760399999998 L223.06135999999998,30.969120000000004 L223.562244,29.233667999999994 L224.063128,32.897399999999976 L224.564012,31.93325999999996 L225.064896,32.704571999999985 L225.56578,32.12608800000001 L226.066664,30.583463999999992 L226.567548,30.583463999999992 L227.068432,30.583463999999992 L227.569316,30.969120000000004 L228.0702,32.897399999999976 L228.57108399999998,30.00497999999999 L229.071968,30.776291999999984 L229.57285199999998,32.12608800000001 L230.073736,30.583463999999992 L230.57461999999998,30.583463999999992 L231.075504,30.390635999999972 L231.57638799999998,31.54760399999998 L232.077272,32.12608800000001 L232.57815599999998,32.12608800000001 L233.07904,30.776291999999984 L233.579924,31.161947999999995 L234.080808,32.12608800000001 L234.581692,31.354775999999987 L235.082576,30.776291999999984 L235.58346,31.354775999999987 L236.084344,31.161947999999995 L236.585228,30.969120000000004 L237.08611199999999,30.776291999999984 L237.586996,31.161947999999995 L238.08787999999998,31.161947999999995 L238.588764,30.969120000000004 L239.08964799999998,31.354775999999987 "/>
                        </g>
                    </g>
                </g>
            </g>
            <g fill="none" stroke="black" stroke-width="1" fill-rule="evenodd" stroke-linecap="square" stroke-linejoin="bevel" id="LegendItem_1">
                <g fill="none" stroke="none" transform="matrix(1,0,0,1,56.3281,31)" font-family="Segoe UI" font-size="12" font-weight="400" font-style="normal">
                    <rect vector-effect="non-scaling-stroke" x="0" y="0" width="117.188" height="90"/>
                </g>
                <g fill="none" stroke="black" stroke-width="1" fill-rule="evenodd" stroke-linecap="square" stroke-linejoin="bevel" id="ItemSample_1">
                    <g fill="none" stroke="#ff0000" stroke-opacity="1" stroke-width="1" stroke-linecap="square" stroke-linejoin="bevel" font-family="Segoe UI" font-size="12" font-weight="400" font-style="normal">
                        <polyline fill="none" vector-effect="non-scaling-stroke" points="65.3281,51.0 85.3281,51.0"/>
                    </g>
                </g>
                <g fill="none" stroke="black" stroke-width="1" fill-rule="evenodd" stroke-linecap="square" stroke-linejoin="bevel" id="LabelItem_1">
                    <g fill="none" stroke="black" stroke-width="1" fill-rule="evenodd" stroke-linecap="square" stroke-linejoin="bevel" id="QGraphicsTextItem_1">
                        


                        


                        


                        <g fill="none" stroke="#969696" stroke-opacity="1" stroke-width="1" stroke-linecap="square" stroke-linejoin="bevel" transform="matrix(1,0,0,1,90.3281,40)" font-family="Segoe UI" font-size="12" font-weight="400" font-style="normal">
                            <text fill="#969696" fill-opacity="1" stroke="none" xml:space="preserve" x="4" y="16.9531" font-family="&quot;Segoe UI&quot;" font-size="12" font-weight="400" font-style="normal">acc_raw_0[0]</text>
                        </g>
                        


                        

                    </g>
                </g>
                <g fill="none" stroke="black" stroke-width="1" fill-rule="evenodd" stroke-linecap="square" stroke-linejoin="bevel" id="ItemSample_2">
                    <g fill="none" stroke="#00ff00" stroke-opacity="1" stroke-width="1" stroke-linecap="square" stroke-linejoin="bevel" font-family="Segoe UI" font-size="12" font-weight="400" font-style="normal">
                        <polyline fill="none" vector-effect="non-scaling-stroke" points="65.3281,75.0 85.3281,75.0"/>
                    </g>
                </g>
                <g fill="none" stroke="black" stroke-width="1" fill-rule="evenodd" stroke-linecap="square" stroke-linejoin="bevel" id="LabelItem_2">
                    <g fill="none" stroke="black" stroke-width="1" fill-rule="evenodd" stroke-linecap="square" stroke-linejoin="bevel" id="QGraphicsTextItem_2">
                        


                        


                        


                        <g fill="none" stroke="#969696" stroke-opacity="1" stroke-width="1" stroke-linecap="square" stroke-linejoin="bevel" transform="matrix(1,0,0,1,90.3281,64)" font-family="Segoe UI" font-size="12" font-weight="400" font-style="normal">
                            <text fill="#969696" fill-opacity="1" stroke="none" xml:space="preserve" x="4" y="16.9531" font-family="&quot;Segoe UI&quot;" font-size="12" font-weight="400" font-style="normal">acc_raw_0[1]</text>
                        </g>
                        


                        

                    </g>
                </g>
                <g fill="none" stroke="black" stroke-width="1" fill-rule="evenodd" stroke-linecap="square" stroke-linejoin="bevel" id="ItemSample_3">
                    <g fill="none" stroke="#0000ff" stroke-opacity="1" stroke-width="1" stroke-linecap="square" stroke-linejoin="bevel" font-family="Segoe UI" font-size="12" font-weight="400" font-style="normal">
                        <polyline fill="none" vector-effect="non-scaling-stroke" points="65.3281,99.0 85.3281,99.0"/>
                    </g>
                </g>
                <g fill="none" stroke="black" stroke-width="1" fill-rule="evenodd" stroke-linecap="square" stroke-linejoin="bevel" id="LabelItem_3">
                    <g fill="none" stroke="black" stroke-width="1" fill-rule="evenodd" stroke-linecap="square" stroke-linejoin="bevel" id="QGraphicsTextItem_3">
                        


                        


                        


                        <g fill="none" stroke="#969696" stroke-opacity="1" stroke-width="1" stroke-linecap="square" stroke-linejoin="bevel" transform="matrix(1,0,0,1,90.3281,88)" font-family="Segoe UI" font-size="12" font-weight="400" font-style="normal">
                            <text fill="#969696" fill-opacity="1" stroke="none" xml:space="preserve" x="4" y="16.9531" font-family="&quot;Segoe UI&quot;" font-size="12" font-weight="400" font-style="normal">acc_raw_0[2]</text>
                        </g>
                        


                        

                    </g>
                </g>
            </g>
            <g fill="none" stroke="black" stroke-width="1" fill-rule="evenodd" stroke-linecap="square" stroke-linejoin="bevel" id="QGraphicsRectItem_1">
                <g fill="none" stroke="none" transform="matrix(1,0,0,1,26.3281,1)" font-family="Segoe UI" font-size="12" font-weight="400" font-style="normal">
                    <rect vector-effect="non-scaling-stroke" x="0" y="0" width="226.672" height="311"/>
                </g>
            </g>
        </g>
    </g>
    <g fill="none" stroke="black" stroke-width="1" fill-rule="evenodd" stroke-linecap="square" stroke-linejoin="bevel" id="AxisItem_1">
        <g fill="none" stroke="#969696" stroke-opacity="1" stroke-width="1" stroke-linecap="square" stroke-linejoin="bevel" font-family="Segoe UI" font-size="12" font-weight="400" font-style="normal">
            <polyline fill="none" vector-effect="non-scaling-stroke" points="26.3281,312.0 253.0001,312.0"/>
            <polyline fill="none" vector-effect="non-scaling-stroke" points="40.2387,312.0 40.2387,307.0"/>
            <polyline fill="none" vector-effect="non-scaling-stroke" points="140.4151,312.0 140.4151,307.0"/>
            <polyline fill="none" vector-effect="non-scaling-stroke" points="240.59210000000002,312.0 240.59210000000002,307.0"/>
        </g>
        <g fill="none" stroke="#969696" stroke-opacity="0.498039" stroke-width="1" stroke-linecap="square" stroke-linejoin="bevel" font-family="Segoe UI" font-size="12" font-weight="400" font-style="normal">
            <polyline fill="none" vector-effect="non-scaling-stroke" points="90.327,312.0 90.327,308.66667"/>
            <polyline fill="none" vector-effect="non-scaling-stroke" points="190.5041,312.0 190.5041,308.66667"/>
        </g>
        <g fill="none" stroke="#969696" stroke-opacity="1" stroke-width="1" stroke-linecap="square" stroke-linejoin="bevel" transform="matrix(1,0,0,1,26.3281,312)" font-family="Segoe UI" font-size="12" font-weight="400" font-style="normal">
            <text fill="#969696" fill-opacity="1" stroke="none" xml:space="preserve" x="10.6719" y="14.9063" font-family="&quot;Segoe UI&quot;" font-size="12" font-weight="400" font-style="normal">0</text>
            <text fill="#969696" fill-opacity="1" stroke="none" xml:space="preserve" x="104.375" y="14.9063" font-family="&quot;Segoe UI&quot;" font-size="12" font-weight="400" font-style="normal">200</text>
            <text fill="#969696" fill-opacity="1" stroke="none" xml:space="preserve" x="204.547" y="14.9063" font-family="&quot;Segoe UI&quot;" font-size="12" font-weight="400" font-style="normal">400</text>
            <text fill="#969696" fill-opacity="1" stroke="none" xml:space="preserve" x="54.2813" y="14.9063" font-family="&quot;Segoe UI&quot;" font-size="12" font-weight="400" font-style="normal">100</text>
            <text fill="#969696" fill-opacity="1" stroke="none" xml:space="preserve" x="154.469" y="14.9063" font-family="&quot;Segoe UI&quot;" font-size="12" font-weight="400" font-style="normal">300</text>
        </g>
    </g>
    <g fill="none" stroke="black" stroke-width="1" fill-rule="evenodd" stroke-linecap="square" stroke-linejoin="bevel" id="AxisItem_2">
        <g fill="none" stroke="#969696" stroke-opacity="1" stroke-width="1" stroke-linecap="square" stroke-linejoin="bevel" font-family="Segoe UI" font-size="12" font-weight="400" font-style="normal">
            <polyline fill="none" vector-effect="non-scaling-stroke" points="26.3281,1.0 26.3281,312.0"/>
            <polyline fill="none" vector-effect="non-scaling-stroke" points="26.3281,216.084 31.3281,216.084"/>
        </g>
        <g fill="none" stroke="#969696" stroke-opacity="0.498039" stroke-width="1" stroke-linecap="square" stroke-linejoin="bevel" font-family="Segoe UI" font-size="12" font-weight="400" font-style="normal">
            <polyline fill="none" vector-effect="non-scaling-stroke" points="26.3281,23.256 29.6615,23.256"/>
        </g>
        <g fill="none" stroke="#969696" stroke-opacity="0.333333" stroke-width="1" stroke-linecap="square" stroke-linejoin="bevel" font-family="Segoe UI" font-size="12" font-weight="400" font-style="normal">
            <polyline fill="none" vector-effect="non-scaling-stroke" points="26.3281,293.215 28.8281,293.215"/>
            <polyline fill="none" vector-effect="non-scaling-stroke" points="26.3281,254.649 28.8281,254.649"/>
            <polyline fill="none" vector-effect="non-scaling-stroke" points="26.3281,177.518 28.8281,177.518"/>
            <polyline fill="none" vector-effect="non-scaling-stroke" points="26.3281,138.953 28.8281,138.953"/>
            <polyline fill="none" vector-effect="non-scaling-stroke" points="26.3281,100.3871 28.8281,100.3871"/>
            <polyline fill="none" vector-effect="non-scaling-stroke" points="26.3281,61.8216 28.8281,61.8216"/>
        </g>
        <g fill="none" stroke="#969696" stroke-opacity="1" stroke-width="1" stroke-linecap="square" stroke-linejoin="bevel" transform="matrix(1,0,0,1,1,1)" font-family="Segoe UI" font-size="12" font-weight="400" font-style="normal">
            <text fill="#969696" fill-opacity="1" stroke="none" xml:space="preserve" x="13.8594" y="220" font-family="&quot;Segoe UI&quot;" font-size="12" font-weight="400" font-style="normal">0</text>
            <text fill="#969696" fill-opacity="1" stroke="none" xml:space="preserve" x="7.39063" y="27.1719" font-family="&quot;Segoe UI&quot;" font-size="12" font-weight="400" font-style="normal">10</text>
            <text fill="#969696" fill-opacity="1" stroke="none" xml:space="preserve" x="9.0625" y="297.125" font-family="&quot;Segoe UI&quot;" font-size="12" font-weight="400" font-style="normal">-4</text>
            <text fill="#969696" fill-opacity="1" stroke="none" xml:space="preserve" x="9.0625" y="258.563" font-family="&quot;Segoe UI&quot;" font-size="12" font-weight="400" font-style="normal">-2</text>
            <text fill="#969696" fill-opacity="1" stroke="none" xml:space="preserve" x="13.8594" y="181.438" font-family="&quot;Segoe UI&quot;" font-size="12" font-weight="400" font-style="normal">2</text>
            <text fill="#969696" fill-opacity="1" stroke="none" xml:space="preserve" x="13.8594" y="142.859" font-family="&quot;Segoe UI&quot;" font-size="12" font-weight="400" font-style="normal">4</text>
            <text fill="#969696" fill-opacity="1" stroke="none" xml:space="preserve" x="13.8594" y="104.297" font-family="&quot;Segoe UI&quot;" font-size="12" font-weight="400" font-style="normal">6</text>
            <text fill="#969696" fill-opacity="1" stroke="none" xml:space="preserve" x="13.8594" y="65.7344" font-family="&quot;Segoe UI&quot;" font-size="12" font-weight="400" font-style="normal">8</text>
        </g>
    </g>
</g>

</svg>
